<svg id="Layer_1" data-name="Layer 1" xmlns="http://www.w3.org/2000/svg" viewBox="0 0 180 180"><title>sv icons</title><path d="M104.86,87.89a27.5,27.5,0,0,1-3.55,2,26.63,26.63,0,0,1-3.6,1.4A19,19,0,0,1,104,96.85H76a19,19,0,0,1,6.34-5.53,16.78,16.78,0,0,1,2.25-1A16.13,16.13,0,0,1,90,89.4,23,23,0,0,0,100,87.14q1.1-.53,2.15-1.16,0.72-.44,1.42-0.93t1.3-1a26.18,26.18,0,0,0,3.14-3,29.35,29.35,0,0,0,7.24-19.58v-5a2,2,0,0,0-2-2h-2.73a2,2,0,0,0-2,2v3.2H71.69V56.5a2,2,0,0,0-2-2H66.91a2,2,0,0,0-2,2v5A29.34,29.34,0,0,0,72.1,81.08a26.23,26.23,0,0,0,3.14,3,27.53,27.53,0,0,1,3.55-2,26.56,26.56,0,0,1,3.6-1.4A19,19,0,0,1,76,75H104.1a19,19,0,0,1-6.39,5.61,16.83,16.83,0,0,1-2.25,1,16.14,16.14,0,0,1-5.41.93,23,23,0,0,0-9.94,2.26A24.24,24.24,0,0,0,78,86q-0.72.44-1.42,0.93t-1.3,1a26.26,26.26,0,0,0-3.14,3,29.34,29.34,0,0,0-7.24,19.58v4.94a2,2,0,0,0,2,2h2.73a2,2,0,0,0,2-2V112.2h36.72v3.21a2,2,0,0,0,2,2h2.73a2,2,0,0,0,2-2v-4.94A29.34,29.34,0,0,0,108,90.89,26.25,26.25,0,0,0,104.86,87.89ZM104,68.9H72.86a23.33,23.33,0,0,1-.78-3.06H108a23.35,23.35,0,0,1-.78,3.06H104ZM72.1,106.05a23.2,23.2,0,0,1,.79-3.06h34.33a23.35,23.35,0,0,1,.79,3.06H72.1Z"/><rect x="19.96" y="61.45" width="10.28" height="56.01" rx="2.4" ry="2.4"/><rect x="50.3" y="45.59" width="10.28" height="71.87" rx="2.4" ry="2.4"/><rect x="35.36" y="73.45" width="10.27" height="44.01" rx="2.4" ry="2.4"/><rect x="149.78" y="61.45" width="10.26" height="56.01" rx="2.4" ry="2.4"/><rect x="119.44" y="53.52" width="10.26" height="63.94" rx="2.4" ry="2.4"/><path d="M179.5,135V20.66H0.5V135h68v8.14l-12.93,14.4a1.08,1.08,0,0,0,.8,1.8H123.8a1.08,1.08,0,0,0,.8-1.8L111.55,143v-8h68ZM12.26,125.19V32.3H167.74v92.89H12.26Z"/><rect x="134.37" y="73.45" width="10.26" height="44.01" rx="2.4" ry="2.4"/></svg>