<svg id="Layer_1" data-name="Layer 1" xmlns="http://www.w3.org/2000/svg" viewBox="0 0 180 180"><title>sv icons</title><path d="M165,27.41c-9.51-9.51-23.83-13.69-38.32-11.18A44.39,44.39,0,0,0,98.08,33.46a44.44,44.44,0,0,0-28.6-17.23C55,13.71,40.68,17.9,31.17,27.41A49.62,49.62,0,0,0,19,77.49h9.75a40.46,40.46,0,0,1,8.94-43.57c5.95-6,14.42-9.2,23.52-9.2a39.38,39.38,0,0,1,6.71.58c11.74,2,21.23,9,26,19.08l1.9,4a2.51,2.51,0,0,0,4.55,0l1.9-4c4.77-10.09,14.25-17,26-19.08,11.54-2,22.83,1.22,30.23,8.61a40.45,40.45,0,0,1,0,57.13L98.08,151.45,45.63,99h-13l65.49,65.48L165,97.58A49.69,49.69,0,0,0,165,27.41Z"/><path d="M60.29,89.63l7.44-17.7L81.8,112.42a5.72,5.72,0,0,0,10.53.43l9.75-20.75h13.16a13.89,13.89,0,1,0,0-9.22H100a5.86,5.86,0,0,0-5.24,3.24l-7,14.1L74.1,60.75a5.72,5.72,0,0,0-10.61-1L53,83.64H5.11a4.61,4.61,0,0,0,0,9.22H55.05A5.85,5.85,0,0,0,60.29,89.63Z"/></svg>