<?xml version="1.0" encoding="utf-8"?>
<!-- Generator: Adobe Illustrator 19.2.1, SVG Export Plug-In . SVG Version: 6.00 Build 0)  -->
<svg version="1.1" id="Layer_1" xmlns="http://www.w3.org/2000/svg" xmlns:xlink="http://www.w3.org/1999/xlink" x="0px" y="0px"
	 viewBox="0 0 180 180" style="enable-background:new 0 0 180 180;" xml:space="preserve">
<title>sv icons</title>
<path d="M90,180c-49.7,0-90-40.3-90-90S40.3,0,90,0s90,40.3,90,90C179.9,139.7,139.7,179.9,90,180z M90,6.9
	C44.1,6.9,6.9,44.1,6.9,90s37.2,83.1,83.1,83.1s83.1-37.2,83.1-83.1l0,0C173,44.1,135.9,7,90,6.9z"/>
<g>
	<path d="M100.7,65.2c0,1.5-0.1,3.1-0.4,4.6c8.6,4.9,19.6,1.9,24.5-6.7s1.9-19.6-6.7-24.5s-19.6-1.9-24.5,6.7
		c-0.2,0.4-0.5,0.8-0.7,1.3C97.9,51.5,100.7,58.2,100.7,65.2z"/>
	<path d="M138.2,111.8c-3.5-21-14.3-33.5-29-33.5c-8.1,0-14.9,3.8-20.1,10.6c11.4,5.6,19.6,18.2,23.2,35.8h17.2
		c2.4-0.1,4.6-1.2,6.1-3.1C137.9,118.9,138.8,115.3,138.2,111.8z"/>
	<path d="M74.3,85.5c11.2,0,20.3-9.1,20.3-20.3s-9.1-20.3-20.3-20.3c-11.2,0-20.3,9.1-20.3,20.3l0,0C54.1,76.4,63.2,85.5,74.3,85.5z
		"/>
	<path d="M74.3,91.6c-16.5,0-28.6,14-32.5,37.5c-0.7,4,0.4,8.1,2.9,11.3c1.7,2.2,4.3,3.4,7.1,3.5h45.1c2.8-0.1,5.3-1.3,7.1-3.5
		c2.6-3.2,3.6-7.3,2.9-11.3C103,105.6,90.8,91.6,74.3,91.6z"/>
</g>
</svg>
