<svg id="Layer_1" data-name="Layer 1" xmlns="http://www.w3.org/2000/svg" viewBox="0 0 180 180"><title>sv icons</title><path d="M37.28,182.35c4.79-.4,8.68-0.58,12.53-1.06,10.07-1.28,18.59-6.08,26.38-12.23,16.79-13.27,30.44-29.34,41.69-47.5,2.93-4.72,6.45-9,11.22-11.84,5-3,10.27-5.63,15.53-8.19,3.95-1.92,7.59-4,10.31-7.63,9.82-13,17.26-27.35,25-41.58a1.88,1.88,0,0,0-.23-1.66c-5.47-7-12.06-12.24-21.29-13.27a2.33,2.33,0,0,1-1.56-1c-6.42-11.84-17.3-17.77-29.33-22.15a6.39,6.39,0,0,0-5.19.15c-2.89,1.4-2.94,1.3-3.2-1.85-0.37-4.51-6-8.25-10.26-6.82-4,1.33-7.86,7.08-7.49,11.27s0.67,8.66,1.45,12.91A9.57,9.57,0,0,1,98.3,40.4c-4.42,2.85-9.07,5.38-13.75,7.8-5,2.57-10.26,2.62-15.64,1.23-3.82-1-7.66-1.91-11.54-2.62-3.54-.64-5.19.78-5.31,4.41-0.07,2.16.15,4.32,0.25,6.49,0.08,2,.59,4,0.18,5.85C50.8,71.13,48.77,78.63,47,86.18,44.88,95,43,104,40.86,112.78a46.94,46.94,0,0,1-13.33,23c-4.16,4-9.46,6.16-14.42,8.9-3.09,1.71-6.36,3.5-8.74,6-4.83,5.1-5.28,11.51-3.16,17.9a16.2,16.2,0,0,0,13.57,11.28C22.51,181.09,30.34,181.62,37.28,182.35Z"/></svg>