<svg id="Layer_1" data-name="Layer 1" xmlns="http://www.w3.org/2000/svg" viewBox="0 0 180 180"><title>sv icons</title><path d="M163.84,113.76a29.18,29.18,0,0,0-7.19-47,28.89,28.89,0,0,0-16.79-26.87,29,29,0,0,0-5.64-8.16A29.39,29.39,0,0,0,113,23.16,28.76,28.76,0,0,0,107.85,16,29.58,29.58,0,0,0,66,16c-0.29.28-.49,0.62-0.76,0.93a29.54,29.54,0,1,0-21,54.26c-0.77,6.58-7.16,54.15-34.89,88.14a8.22,8.22,0,0,0,11.57,11.56c34.47-28,81.52-34.37,87.92-35.14a29,29,0,0,0,8,15,29.52,29.52,0,0,0,46.11-36.2c0.31-.27.65-0.46,0.95-0.77h0ZM53.52,100.41a46.49,46.49,0,0,0,5.55,9.87l-12.94,13c3-8.18,5.53-15.9,7.39-22.82h0ZM57,134.06L70,121a46.71,46.71,0,0,0,10.36,5.5A190.44,190.44,0,0,0,57,134.06h0Zm0,0"/></svg>