<?xml version="1.0" encoding="utf-8"?>
<!-- Generator: Adobe Illustrator 19.2.1, SVG Export Plug-In . SVG Version: 6.00 Build 0)  -->
<svg version="1.1" id="Layer_1" xmlns="http://www.w3.org/2000/svg" xmlns:xlink="http://www.w3.org/1999/xlink" x="0px" y="0px"
	 viewBox="0 0 180 180" style="enable-background:new 0 0 180 180;" xml:space="preserve">
<title>sv icons</title>
<path d="M90,180c-49.7,0-90-40.3-90-90S40.3,0,90,0s90,40.3,90,90C179.9,139.7,139.7,179.9,90,180z M90,6.9
	C44.1,6.9,6.9,44.1,6.9,90s37.2,83.1,83.1,83.1s83.1-37.2,83.1-83.1l0,0C173,44.1,135.9,7,90,6.9z"/>
<g>
	<path d="M64.4,74.8c-8.9-0.5-18.9,4.6-25.1,12.6l10.7,10.7c6-7.8,14.7-13.6,24-13.6c1.2,0,2.4,0.1,3.6,0.2
		C77,78.9,73.9,75.3,64.4,74.8z"/>
	<path d="M38.1,89.1c-2.5,3.6-4.1,7.8-4.7,12.1c-1.3,10.4,0.5,15.6,8.7,18.1c0-6.4,2.5-13.5,6.6-19.5L38.1,89.1z"/>
	<g>
		<path d="M133.2,37.1H89.5c-4.2,0-7.6,3.4-7.6,7.6v88.7c0,4.2,3.4,7.6,7.6,7.6h43.7c4.2,0,7.6-3.4,7.6-7.6c0,0,0,0,0,0V44.6
			C140.7,40.5,137.4,37.1,133.2,37.1L133.2,37.1z M100.6,41.7h21.6c0.6,0,1,0.8,1,1.8c0,1-0.4,1.8-1,1.8h-21.6c-0.6,0-1-0.8-1-1.8
			C99.6,42.5,100,41.7,100.6,41.7L100.6,41.7z M111.4,133.5c-2.7,0-4.8-2.1-4.8-4.8c0-2.7,2.1-4.8,4.8-4.8c2.7,0,4.8,2.1,4.8,4.8
			c0,0,0,0,0,0C116.2,131.3,114,133.4,111.4,133.5L111.4,133.5z M135.1,116.9H87.7V49.9h47.5V116.9L135.1,116.9z"/>
		<path d="M71.4,77.7c4.7,3.2,8,7.8,8,14.2c0,16.4-18.2,34.4-34.3,34.4c-7.4,0-11.5-3.3-13.9-8.4c4.1,13.7,16,22,25.9,22
			c17.6,0,35.1-17.6,35.1-34.4C92.2,90.9,81.6,81.5,71.4,77.7z M70.7,125.1c-1.2,0-2.2-1-2.2-2.2c0-1.2,1-2.2,2.2-2.2s2.2,1,2.2,2.2
			C72.9,124.1,71.9,125.1,70.7,125.1L70.7,125.1z M75.3,120.5c-1.2,0-2.2-1-2.2-2.2c0-1.2,1-2.2,2.2-2.2s2.2,1,2.2,2.2
			C77.5,119.5,76.5,120.5,75.3,120.5L75.3,120.5z M78.9,115.4c-1.2,0-2.2-1-2.2-2.2c0-1.2,1-2.2,2.2-2.2c1.2,0,2.2,1,2.2,2.2
			C81.1,114.3,80.1,115.3,78.9,115.4C78.9,115.3,78.9,115.3,78.9,115.4L78.9,115.4z"/>
	</g>
</g>
</svg>
