<svg id="Layer_1" data-name="Layer 1" xmlns="http://www.w3.org/2000/svg" viewBox="0 0 180 180"><title>sv icons</title><path d="M107.84,48.76a43.84,43.84,0,0,1-.7,7.6A29.92,29.92,0,1,0,94.87,17.64,43.76,43.76,0,0,1,107.84,48.76Z"/><path d="M170.21,126.22c-5.76-34.92-23.81-55.76-48.3-55.76-13.41,0-24.87,6.29-33.46,17.68,18.91,9.4,32.62,30.22,38.6,59.66h28.69a13.4,13.4,0,0,0,10.2-5.08A20.54,20.54,0,0,0,170.21,126.22Z"/><path d="M63.94,82.5A33.74,33.74,0,1,0,30.2,48.76,33.78,33.78,0,0,0,63.94,82.5Z"/><path d="M63.94,92.66C36.49,92.66,16.26,116,9.83,155a23.36,23.36,0,0,0,4.87,18.75,15.4,15.4,0,0,0,11.74,5.83h75a15.4,15.4,0,0,0,11.74-5.83A23.36,23.36,0,0,0,118.06,155C111.62,116,91.4,92.66,63.94,92.66Z"/></svg>