<svg id="Layer_1" data-name="Layer 1" xmlns="http://www.w3.org/2000/svg" viewBox="0 0 180 180"><title>sv icons</title><path d="M90,180a90,90,0,1,1,90-90A90.1,90.1,0,0,1,90,180ZM90,6.92A83.08,83.08,0,1,0,173.08,90,83.17,83.17,0,0,0,90,6.92Z"/><path d="M117.77,44.87H55v73.92h62.78V44.87Zm-6,67.91H61V50.9h50.74v61.89Zm0,0"/><rect x="67.07" y="58.6" width="39.42" height="3.65"/><rect x="67.07" y="70.07" width="39.42" height="3.63"/><path d="M120.13,56.51v6h3.28v60.6H74v-2.41h-6v8.44h61.52V56.51h-9.3Zm0,0"/><path d="M68.53,97a4.22,4.22,0,0,0,1.89-.48l4.94,4a3.09,3.09,0,0,0-.11.56,4.33,4.33,0,0,0,8.65,0,4.22,4.22,0,0,0-.48-1.89c2.38-3.56,5.41-8.12,7.24-10.85a5,5,0,0,0,.83.16,4.29,4.29,0,0,0,2.71-1l5.55,3.24c0,0.06,0,.09,0,0.16a4.43,4.43,0,1,0,1.57-3.28l-5.52-3.23c0-.07,0-0.13,0-0.21a4.32,4.32,0,1,0-8.64,0,4.12,4.12,0,0,0,.66,2.15c-2.28,3.42-5.25,7.87-7.09,10.66a3.52,3.52,0,0,0-3.53.56l-4.59-3.76a4.07,4.07,0,0,0,.24-1.17A4.33,4.33,0,1,0,68.53,97h0Zm0,0"/></svg>