<svg id="Layer_1" data-name="Layer 1" xmlns="http://www.w3.org/2000/svg" viewBox="0 0 180 180"><title>sv icons</title><path d="M177.07,20.15H115.9V30.31H105V20.15H81.45c-21.16,0-38.55,14.89-41,35.4h0C16.3,60.29-1,76.12.6,103c1.29,21.5,14.48,47,35.36,55.18,20.15,7.87,33.23-14.17,23-30.44-6.81-10.83-17.09-19.32-25.22-29.11-11.27-13.58-8-22.68,6.9-29.91h0c2.44,20.49,19.66,34,40.8,34A41.3,41.3,0,0,0,122,69.46c0.25-1.32.4-2.45,0.43-2.52a0.34,0.34,0,0,0,0-.11c6.17-25.17,46.5-27,55.34-27.13h0.88c0.47,0,.87-1.09.87-2.43V22.58A2.43,2.43,0,0,0,177.07,20.15ZM49.73,145.76c-14,13.55-31.9-20.53-35-29.55-4.12-12-3.61-22.76.71-31.3,0.24,4.79,2,10,5.61,15.5C26.7,109,60.28,135.55,49.73,145.76Z"/></svg>