<?xml version="1.0" encoding="utf-8"?>
<!-- Generator: Adobe Illustrator 19.2.1, SVG Export Plug-In . SVG Version: 6.00 Build 0)  -->
<svg version="1.1" id="Layer_1" xmlns="http://www.w3.org/2000/svg" xmlns:xlink="http://www.w3.org/1999/xlink" x="0px" y="0px"
	 viewBox="0 0 180 180" style="enable-background:new 0 0 180 180;" xml:space="preserve">
<title>sv icons</title>
<g>
	<g>
		<path d="M83.9,15.3c0,0,0.9,4.1,3.9,7.1c0,0,5.8,4.9,5.8,9.7c0,0,0.7,5.8-7.5,5.3c0,0-7.3-2.6-12-6.4c0,0-10.4-6.6-18.3-0.2
			c0,0-5.8,6.8,0,14.8c0,0,3.8,5.7,12.2,8.6c0,0,9.5,3.9,8.7,9.8c0,0,0.2,16.9-11.6,26c0,0,5.1-16.2,2.4-20.9c0,0-2.5-7.4-14-9.7
			c0,0-13.4-3.7-17.9-2.4c0,0-9.5,3.4-5,12.4c0,0,2.3,3,7.7,3.6c0,0,7.8,1.6,6,7.3c0,0-4.9,11.4-4.4,21.8c0,0,0.1,20.2,20,27.8
			c0,0,13.8,7.2,34.7,4.4c0,0,10.7-1.7,16.3-6.4c0,0,10.7-8.1,4.6-20.1c0,0-11.3-12-11.5-14.9c0,0,0.6-5.6,2.9-9.7
			c0,0,4.6-8.3,2.3-13.9c0,0-8.3-14-18,2.8c0,0-6.8,12.4-4.4,22.6c0,0-6.6,4-17.6-1.7c0,0,12.1-9.4,13.2-27.4c0,0,1.3-10.2-9.2-14.7
			c0,0-14.7-7.3-14.5-11.8c0,0-1-7.3,7.4-4.5c0,0,8,3.8,15.5,7.9c0,0,10,3.5,15.8-4.2c0,0,5.6-5.3-1.3-13.7c0,0-7.3-7.4-2.4-9.2
			C93.9,15.3,87.2,13,83.9,15.3z"/>
		<circle cx="135.7" cy="92.8" r="21.9"/>
	</g>
</g>
</svg>
