<svg id="Layer_1" data-name="Layer 1" xmlns="http://www.w3.org/2000/svg" viewBox="0 0 180 180"><title>sv icons</title><path d="M171.12,121.07c-4.48-27.18-16.66-46.13-33.83-53.87A36,36,0,1,0,87,19.22a39.43,39.43,0,1,0-39.95,68c-19.37,8.27-33.14,29.3-38.16,59.73a30.23,30.23,0,0,0,6.43,24.25,22.84,22.84,0,0,0,17.52,8.47H100.3a22.85,22.85,0,0,0,17.52-8.47,29.92,29.92,0,0,0,6.79-20.09h24.5a21,21,0,0,0,16.13-7.79A27.7,27.7,0,0,0,171.12,121.07ZM118.69,9.49a26.9,26.9,0,0,1,0,53.8h0a26.57,26.57,0,0,1-13.27-3.65A38.67,38.67,0,0,0,94.42,25,26.86,26.86,0,0,1,118.69,9.49ZM36.24,52.93A30.32,30.32,0,0,1,96.86,52c0,0.31,0,.62,0,0.93A30.34,30.34,0,0,1,36.24,52.93Zm74.61,112.34a13.83,13.83,0,0,1-10.55,5.24H32.85a13.83,13.83,0,0,1-10.55-5.24,21,21,0,0,1-4.38-16.85c5.78-35.07,24-56,48.63-56H66.6a41,41,0,0,1,8.28.86,38.77,38.77,0,0,1,8.79,2.91C98.19,103,108.95,119,114,142q0.69,3.14,1.24,6.45a21.78,21.78,0,0,1,.16,2.68A20.62,20.62,0,0,1,110.85,165.26Zm47.42-27.87A12,12,0,0,1,149.1,142H123.31c-5.38-26.47-17.74-45.14-34.75-53.58,7.73-10.28,18-16,30.12-16,22,0,38.25,18.74,43.42,50.13A18.45,18.45,0,0,1,158.26,137.39Z"/></svg>