<svg id="Layer_1" data-name="Layer 1" xmlns="http://www.w3.org/2000/svg" viewBox="0 0 180 180"><title>sv icons</title><path d="M79.21,5.15A10.87,10.87,0,0,0,68.36,16v90.12A10.87,10.87,0,0,0,79.21,117h44.68c0,16.74-3.44,28.21-10.44,35.11-10.37,10.2-28.17,9.84-47,9.57-3.25-.08-6.51-0.11-9.74-0.11-26.82,0-27.83-26.49-27.83-29.47V111.4c8.85-3.58,15.31-14.33,15.31-27,0-15.64-9.79-28.33-21.82-28.33S0.5,68.74.5,84.39c0,12.52,6.26,23.13,15,26.88v20.8c0,14.71,8.72,42.57,41.09,42.57,3.14,0,6.48.06,9.65,0.11s6.59,0.11,9.87.11c17.47,0,34.56-1.61,46.56-13.4C132.28,152,137,137.43,137,117h31.63a10.84,10.84,0,0,0,10.86-10.86V16A10.87,10.87,0,0,0,168.64,5.15H79.21Zm46.67,95A39.15,39.15,0,1,1,165,61a39.15,39.15,0,0,1-39.15,39.15h0Zm0,0"/><path d="M126,31.65A29.47,29.47,0,1,0,155.5,61.11,29.5,29.5,0,0,0,126,31.65h0Zm0,52a22.56,22.56,0,1,1,22.55-22.56A22.58,22.58,0,0,1,126,83.67h0Zm0,0"/><path d="M140.81,48A1.83,1.83,0,1,1,139,46.22,1.83,1.83,0,0,1,140.81,48h0Zm0,0"/><path d="M111.77,72.66a1.82,1.82,0,0,0,0,2.57,1.8,1.8,0,0,0,2.6,0,1.82,1.82,0,0,0,0-2.57,1.8,1.8,0,0,0-2.6,0h0Zm0,0"/><path d="M146.17,61a1.83,1.83,0,1,1-1.83-1.83A1.84,1.84,0,0,1,146.17,61h0Zm0,0"/><path d="M109.56,61a1.84,1.84,0,1,1-1.83-1.83A1.84,1.84,0,0,1,109.56,61h0Zm0,0"/><path d="M137.67,72.66a1.83,1.83,0,1,0,2.6,0,1.81,1.81,0,0,0-2.6,0h0Zm0,0"/><path d="M114.92,48a1.85,1.85,0,1,1-1.83-1.83A1.84,1.84,0,0,1,114.92,48h0Zm0,0"/><path d="M128.62,56.63V49.91a2.34,2.34,0,0,0-4.68,0v6.73a4.5,4.5,0,0,0-2.87,4.48,5,5,0,0,0,5,5,5.11,5.11,0,0,0,5.14-5,5.56,5.56,0,0,0-2.6-4.48h0Zm0,0"/><path d="M127.85,42.69A1.83,1.83,0,1,1,126,40.83a1.83,1.83,0,0,1,1.83,1.86h0Zm0,0"/><path d="M127.88,79.3A1.85,1.85,0,0,1,126,81.13a1.83,1.83,0,1,1,0-3.67,1.86,1.86,0,0,1,1.85,1.83h0Zm0,0"/></svg>