<svg id="Layer_1" data-name="Layer 1" xmlns="http://www.w3.org/2000/svg" viewBox="0 0 180 180"><title>sv icons</title><path d="M178.54,29.17A6.91,6.91,0,0,0,174,25.93L72.58,1.48a6.86,6.86,0,0,0-7.79,4.39L26.13,104.06l12.9,4.7L75.66,15.4l88.1,22.48c-5.5,17.06-18.59,52.66-31.15,85.81-10.94,28.92-17.24,38.83-29.2,40.85a0.07,0.07,0,0,1,0,0c-24.46,3.43-24-27.75-24-27.75L1.25,105.18c-5.55,35.18,21.48,43.65,21.48,43.65l57.19,26s8.94,4.26,18.64,3.82c26.17-.62,35.37-19.62,46.89-50.07,16.65-44,33.55-93.31,33.71-93.83a6.8,6.8,0,0,0-.64-5.55h0Zm0,0"/><path d="M132.32,68.76a7,7,0,0,0,1.82.25,6.87,6.87,0,0,0,1.79-13.49l-29.76-9.18a6.87,6.87,0,1,0-3.62,13.25Zm0,0"/><path d="M85.83,78.64a6.87,6.87,0,0,0,4.34,8.69l29.6,10.58a6.81,6.81,0,0,0,2.14.35,6.86,6.86,0,0,0,2.21-13.38L94.52,74.32a6.87,6.87,0,0,0-8.7,4.33h0Zm0,0"/><path d="M83.22,103a6.86,6.86,0,1,0-4.28,13l29.66,10.53a6.63,6.63,0,0,0,2.15.35,6.86,6.86,0,0,0,2.13-13.39Zm0,0"/><path d="M82.12,38.32a7.41,7.41,0,1,1-7.62,7.4,7.51,7.51,0,0,1,7.62-7.4h0Zm0,0"/><path d="M71.35,65.85a7.4,7.4,0,1,1-7.62,7.4,7.51,7.51,0,0,1,7.62-7.4h0Zm0,0"/><path d="M59.86,94.24a7.41,7.41,0,1,1-7.62,7.41,7.52,7.52,0,0,1,7.62-7.41h0Zm0,0"/></svg>