<svg id="Layer_1" data-name="Layer 1" xmlns="http://www.w3.org/2000/svg" viewBox="0 0 180 180"><title>sv icons</title><path d="M55.87,42.33A20.83,20.83,0,1,0,35,21.5,20.84,20.84,0,0,0,55.87,42.33h0Zm0,0"/><path d="M62.68,69.56q10.61,18.23,20.24,37C73.39,111.45,62.1,120,56.35,124.66s-16.48,28.51-22,39.92c-5.92,12.24,13.14,21.13,19,8.93,4.86-10.05,13.06-30.05,17.83-34s20.42-15,32.37-19.17a11.54,11.54,0,0,0,1.63-.72c14.62,18.56,43.26,27.32,67.68,13,12.87-7.52,1.23-26.07-11.68-18.52-17.89,10.46-36.51-2.91-44.94-19.67S101.88,66,95,54.1c13.35-4.26,25.55-.37,35.15,13.07,7.81,10.93,26.06.45,18.17-10.61-18.58-26-46.27-32.47-74-16-1.15.68-6.36,3.55-7.53,4.25C49.59,55,33.57,53.09,21.6,36.34,13.79,25.4-4.46,35.89,3.44,46.95,18.7,68.33,40.13,76.47,62.68,69.56h0Zm0,0"/></svg>