<svg id="Layer_1" data-name="Layer 1" xmlns="http://www.w3.org/2000/svg" viewBox="0 0 180 180"><title>sv icons</title><path d="M144.21,57.56l1.26-1.07c6.67-1.34,10.5-11.54,2.94-16-8.59-5.05-19.75,6.06-27.19,14.49-4.61-4.77-9.46-9.32-14.27-13.85-6.34-9.85-22.1-10.62-29.71-2.22l-0.3.22C71.43,44.34,65.82,49.54,60.55,55c-7.46-8.44-18.6-19.55-27.19-14.49-7.55,4.44-3.77,14.59,2.88,16,0.27,0.23.69,0.58,1.32,1.08C43.63,62.46,49,68.36,54.27,74c3,3.26,9.22,3.49,12.23,0,2.06-2.41,4.25-4.74,6.47-7V94.67c0,0.36,0,.72.06,1.09,0,0.17,0,.31,0,0.49,0,25.06,0,50.15-1.08,75.2-0.46,11.14,16.82,11.09,17.28,0,0.8-19.64,1-39.29,1.05-58.95a17.85,17.85,0,0,0,2.46,0c0,19.65.25,39.29,1.07,58.93,0.46,11.09,17.72,11.14,17.26,0-1-25.07-1.07-50.14-1.07-75.2a9,9,0,0,0-.27-2.16V67.9q2.88,3,5.6,6.14c3,3.49,9.17,3.26,12.21,0A196.9,196.9,0,0,1,144.21,57.56Z"/><path d="M91.33,30.45A15.11,15.11,0,1,0,76.2,15.34,15.11,15.11,0,0,0,91.33,30.45Z"/><path d="M36.78,78.89A0.76,0.76,0,0,0,36,78.74a0.69,0.69,0,0,0-.41.64v8.73H20.17a0.67,0.67,0,0,0-.67.67V99.53a0.67,0.67,0,0,0,.67.67H35.62v8.73a0.69,0.69,0,0,0,.41.63,0.76,0.76,0,0,0,.75-0.15L51.55,94.64a0.72,0.72,0,0,0,0-1Z"/><path d="M159.83,88.11H144.38V79.38a0.69,0.69,0,0,0-.41-0.63,0.76,0.76,0,0,0-.75.15L128.45,93.67a0.72,0.72,0,0,0,0,1l14.77,14.78a0.76,0.76,0,0,0,.75.15,0.69,0.69,0,0,0,.41-0.64V100.2h15.45a0.67,0.67,0,0,0,.67-0.67V88.78A0.67,0.67,0,0,0,159.83,88.11Z"/></svg>