<svg id="Layer_1" data-name="Layer 1" xmlns="http://www.w3.org/2000/svg" viewBox="0 0 180 180"><title>sv icons</title><path d="M62.26,77.31v66a6.87,6.87,0,0,1-4.62,6.51A41.33,41.33,0,0,1,44,151.94c-14.44,0-30-5.93-30-19V48.5c-0.34-5.8,1.68-16.06,11.4-21.58C30,24.35,53.63,9.11,65.54,1.42a6.86,6.86,0,0,1,7-.28,6.93,6.93,0,0,1,3.61,6.08v10A6.91,6.91,0,0,1,62.8,19.6C52.08,26.51,36.22,36.67,32.31,38.88c-3.54,2-4.32,5.77-4.46,7.76,0,2.3.47,4,1.36,5,2.46,2.69,10.62,1,19.56-4.35C57.34,42.19,99.56,14.06,100,13.79a6.9,6.9,0,0,1,10.72,5.73v0.81a6.9,6.9,0,0,1-3.07,5.73S78.35,45.67,75.75,47.32c-9.95,6.41-13.49,14.23-13.49,30h0ZM166,43.94v89.68a6.93,6.93,0,0,1-3.24,5.84s-40.27,31.3-48.46,36.25a30.11,30.11,0,0,1-15.78,4c-14.37,0-29.24-7.75-29.24-20.74V73.22a0.12,0.12,0,0,0,0-.07C69.45,68.09,70.63,60.88,80,53.93c5.64-4.15,39.2-27.05,40.61-28a6.94,6.94,0,0,1,7.11-.4,6.85,6.85,0,0,1,3.7,6.1v10a6.93,6.93,0,0,1-13.29,2.73c-10.69,7.32-26.44,18.11-29.94,20.71-4.45,3.27-5.06,5.47-5.13,8.23A6.19,6.19,0,0,0,84.82,78c3.51,3.2,13,1.86,22.36-3.75,6.92-4.14,36.73-27.18,47.62-35.71A7,7,0,0,1,166,43.94h0Zm-13.82,30.8-34.54,26.77v13.83l34.54-26.78V74.74Zm0,0"/></svg>