<svg id="Layer_1" data-name="Layer 1" xmlns="http://www.w3.org/2000/svg" viewBox="0 0 180 180"><title>sv icons</title><path d="M174.15,34.84h-128V34.59a5.85,5.85,0,0,0-5.85-5.85H24.1a5.85,5.85,0,0,0-5.85,5.85v0.25H5.85A5.85,5.85,0,0,0,0,40.68V145.41a5.85,5.85,0,0,0,5.85,5.85H174.15a5.85,5.85,0,0,0,5.85-5.85V40.68A5.85,5.85,0,0,0,174.15,34.84ZM90,138.8A45.75,45.75,0,1,1,135.75,93,45.75,45.75,0,0,1,90,138.8Zm80-89.47H137.76V44H170v5.29Z"/><path d="M90,52.3A40.75,40.75,0,1,0,130.75,93,40.75,40.75,0,0,0,90,52.3Zm0,66A25.24,25.24,0,1,1,115.24,93,25.24,25.24,0,0,1,90,118.28Z"/></svg>