<svg id="Layer_1" data-name="Layer 1" xmlns="http://www.w3.org/2000/svg" viewBox="0 0 180 180"><title>sv icons</title><path d="M173,128.35H43.13V19.3a7,7,0,1,0-14.06,0V128.35H7a7,7,0,0,0,0,14.06h22V160.7a7,7,0,1,0,14.06,0V142.42H173a7,7,0,1,0,0-14.06h0Zm0,0"/><path d="M60.47,116.5a9.36,9.36,0,0,0,7.44-15.06l17-40.87,17.33,35.72a9.37,9.37,0,1,0,16.69,1.07L125.4,89a8.64,8.64,0,0,0,3,0l6.07,8.24a9.37,9.37,0,1,0,16.31-1.47l12.7-25.47A9.37,9.37,0,1,0,155,66.22L142.32,91.7l-0.3,0-6.33-8.6A9.38,9.38,0,1,0,118.18,83l-6.81,8.74a9.66,9.66,0,0,0-1-.07l-18-37a9.38,9.38,0,1,0-15.21,0L59.25,97.83a9.37,9.37,0,0,0,1.22,18.66h0Zm0,0"/></svg>