<svg id="Layer_1" data-name="Layer 1" xmlns="http://www.w3.org/2000/svg" viewBox="0 0 180 180"><title>sv icons</title><path d="M151.73,115l-0.76-.29-2.21-51.9c-0.08-26.76-18.46-48.23-44.68-52.25l-0.75-.12-0.24-.72a13.79,13.79,0,0,0-26.19,0l-0.24.72-0.75.12c-26.22,4-44.59,25.38-44.67,52L29,114.71l-0.76.29A25.93,25.93,0,0,0,11.5,138.87c0,5.05,1.93,21.54,26.7,21.54H141.8c24.77,0,26.7-16.49,26.7-21.54A25.92,25.92,0,0,0,151.73,115Zm-9.93,35.21H38.2c-16.5,0-16.5-8.54-16.5-11.34,0-7.36,5.55-13.76,13.21-15.2l4-.74,2.54-60.17c0.07-23.12,17-41,40.21-42.56H98.27c23.31,1.53,40.22,19.55,40.3,42.86l2.53,59.88,4,0.74c7.66,1.45,13.22,7.84,13.22,15.2C158.31,141.67,158.31,150.21,141.8,150.21Z"/><path d="M90,179.72a17.72,17.72,0,0,0,17.54-15.89H72.46A17.73,17.73,0,0,0,90,179.72Z"/></svg>