<?xml version="1.0" encoding="utf-8"?>
<!-- Generator: Adobe Illustrator 19.1.0, SVG Export Plug-In . SVG Version: 6.00 Build 0)  -->
<svg version="1.1" id="Layer_1" xmlns="http://www.w3.org/2000/svg" xmlns:xlink="http://www.w3.org/1999/xlink" x="0px" y="0px"
	 viewBox="0 0 91.9 86.8" style="enable-background:new 0 0 91.9 86.8;" xml:space="preserve">
<style type="text/css">
	.st0{fill:#1D1D1B;}
	.st1{fill:none;stroke:#555759;stroke-miterlimit:10;}
	.st2{fill:none;stroke:#555759;stroke-miterlimit:10;stroke-dasharray:0.9994,0.9994;}
	.st3{fill:none;stroke:#555759;stroke-miterlimit:10;stroke-dasharray:1;}
	.st4{fill:#555759;}
	.st5{fill:#0E0F0F;}
	.st6{fill:#030104;}
	.st7{fill:#FFFFFF;}
	.st8{fill:#050505;}
</style>
<g>
	<path d="M78.9,47h-6.2v27.5c0,0.7-0.6,1.2-1.2,1.2H58.9c-0.7,0-1.2-0.6-1.2-1.2V53.2h-15v21.2c0,0.7-0.6,1.2-1.2,1.2H28.9
		c-0.7,0-1.2-0.6-1.2-1.2V47h-6.2c-0.5,0-1-0.3-1.2-0.8c-0.1-0.5-0.1-1,0.3-1.4l28.7-28.7c0.5-0.5,1.3-0.5,1.8,0l28.7,28.7
		c0.3,0.4,0.4,0.9,0.3,1.4C79.8,46.7,79.4,47,78.9,47z"/>
</g>
</svg>
