<?xml version="1.0" encoding="utf-8"?>
<!-- Generator: Adobe Illustrator 19.1.0, SVG Export Plug-In . SVG Version: 6.00 Build 0)  -->
<svg version="1.1" id="Layer_1" xmlns="http://www.w3.org/2000/svg" xmlns:xlink="http://www.w3.org/1999/xlink" x="0px" y="0px"
	 viewBox="0 0 91.9 86.8" style="enable-background:new 0 0 91.9 86.8;" xml:space="preserve">
<style type="text/css">
	.st0{fill:#1D1D1B;}
	.st1{fill:none;stroke:#555759;stroke-miterlimit:10;}
	.st2{fill:none;stroke:#555759;stroke-miterlimit:10;stroke-dasharray:0.9994,0.9994;}
	.st3{fill:none;stroke:#555759;stroke-miterlimit:10;stroke-dasharray:1;}
	.st4{fill:#555759;}
	.st5{fill:#0E0F0F;}
	.st6{fill:#030104;}
	.st7{fill:#FFFFFF;}
	.st8{fill:#050505;}
</style>
<g>
	<path d="M81.6,69.5H16.1c-1.6,0-2.7,1.1-2.7,2.7c0,1.6,1.1,2.7,2.7,2.7h65.5c1.6,0,2.7-1.1,2.7-2.7C84.3,70.6,83.2,69.5,81.6,69.5z
		"/>
	<path d="M81.6,42.3H16.1c-1.6,0-2.7,1.1-2.7,2.7c0,1.6,1.1,2.7,2.7,2.7h65.5c1.6,0,2.7-1.1,2.7-2.7C84.3,43.4,83.2,42.3,81.6,42.3z
		"/>
	<path d="M16.1,20.4h65.5c1.6,0,2.7-1.1,2.7-2.7c0-1.6-1.1-2.7-2.7-2.7H16.1c-1.6,0-2.7,1.1-2.7,2.7C13.4,19.4,14.5,20.4,16.1,20.4z
		"/>
</g>
</svg>
