<?xml version="1.0" encoding="utf-8"?>
<!-- Generator: Adobe Illustrator 19.1.0, SVG Export Plug-In . SVG Version: 6.00 Build 0)  -->
<svg version="1.1" id="Layer_1" xmlns="http://www.w3.org/2000/svg" xmlns:xlink="http://www.w3.org/1999/xlink" x="0px" y="0px"
	 viewBox="0 0 91.9 91.9" style="enable-background:new 0 0 91.9 91.9;" xml:space="preserve">
<style type="text/css">
	.st0{fill:#1D1D1B;}
	.st1{fill:none;stroke:#555759;stroke-miterlimit:10;}
	.st2{fill:none;stroke:#555759;stroke-miterlimit:10;stroke-dasharray:0.9994,0.9994;}
	.st3{fill:none;stroke:#555759;stroke-miterlimit:10;stroke-dasharray:1;}
	.st4{fill:#555759;}
	.st5{fill:#0E0F0F;}
	.st6{fill:#030104;}
	.st7{fill:#FFFFFF;}
	.st8{fill:#050505;}
</style>
<g>
	<path d="M71.8,43.6h-9.4c-1.5,0-2.9,0.8-3.7,2c1.2,0.1,2.1,1.1,2.1,2.4c0,1.2-0.9,2.2-2.1,2.4c0.8,1.2,2.1,2,3.6,2h9.4
		c0.3,0,0.5-0.2,0.5-0.5v-7.8C72.2,43.9,72,43.6,71.8,43.6z"/>
	<path d="M43.1,47.2c1.3-0.2,2.7-0.5,4-0.7c-0.4-0.9-1-1.6-1.7-2.3C44.6,45.1,43.8,46.1,43.1,47.2z"/>
	<path d="M69,68.3c0,2.8-1.8,5.2-4.4,6.1V54.9h-2.9c-3.8,0-6.9-3.1-6.9-6.9c0-3.8,3.1-6.9,6.9-6.9h2.9V21.5c2.6,0.9,4.4,3.3,4.4,6.1
		v13.5h3.2V27.6c0-5.3-4.3-9.6-9.6-9.6H31.1c-5.3,0-9.6,4.3-9.6,9.6v40.7c0,5.3,4.3,9.6,9.6,9.6h31.5c5.3,0,9.6-4.3,9.6-9.6V54.9H69
		V68.3z M50.4,50c-2.8,0.5-5.5,1-8.3,1.5c-0.4,0.1-0.7,0-1,0c0,0.1-0.1,0.2-0.1,0.2c1.8,4,3.6,8,5.6,12c1.5,3-3,5.6-4.5,2.6
		c-1.9-3.8-3.7-7.7-5.4-11.7c-1.8,3.9-3.3,8-4.6,11.8c-1.1,3.2-5.8,1.1-4.7-2c1.7-5.1,3.9-10.8,6.5-15.6c1.4-3.8,5.2-11.2,7.2-13.6
		c2.9-4.8,7.8-8.1,14.5-8.7c2.6-0.2,3.5,3.8,0.9,4c-5.2,0.5-9.2,2.6-11.6,6.5c1.2,1,2.3,1.9,2.6,3.1c2.2,2,4,4.2,4.5,7.3
		C52,48.5,51.6,49.8,50.4,50z M51.1,40.6c-2,0-3.5-1.6-3.5-3.5c0-2,1.6-3.5,3.5-3.5c2,0,3.5,1.6,3.5,3.5
		C54.7,39,53.1,40.6,51.1,40.6z"/>
</g>
</svg>
