<?xml version="1.0" encoding="utf-8"?>
<!-- Generator: Adobe Illustrator 19.1.0, SVG Export Plug-In . SVG Version: 6.00 Build 0)  -->
<svg version="1.1" id="Layer_1" xmlns="http://www.w3.org/2000/svg" xmlns:xlink="http://www.w3.org/1999/xlink" x="0px" y="0px"
	 viewBox="0 0 91.9 86.8" style="enable-background:new 0 0 91.9 86.8;" xml:space="preserve">
<style type="text/css">
	.st0{fill:#1D1D1B;}
	.st1{fill:none;stroke:#555759;stroke-miterlimit:10;}
	.st2{fill:none;stroke:#555759;stroke-miterlimit:10;stroke-dasharray:0.9994,0.9994;}
	.st3{fill:none;stroke:#555759;stroke-miterlimit:10;stroke-dasharray:1;}
	.st4{fill:#555759;}
	.st5{fill:#0E0F0F;}
	.st6{fill:#030104;}
	.st7{fill:#FFFFFF;}
	.st8{fill:#050505;}
</style>
<g>
	<g>
		<path d="M45.1,17.7c-16.6,0-30,13.4-30,30s13.4,30,30,30s30-13.4,30-30S61.7,17.7,45.1,17.7z M59.4,40.6L42,58
			c-0.1,0.1-0.3,0.2-0.4,0.2c-0.2,0-0.3-0.1-0.4-0.2L30.9,47.8c-0.2-0.2-0.2-0.6,0-0.9l4.2-4.2c0.2-0.2,0.6-0.2,0.9,0l5.6,5.6
			l12.8-12.8c0.2-0.2,0.6-0.2,0.9,0l4.2,4.2C59.6,40,59.6,40.4,59.4,40.6z"/>
	</g>
</g>
</svg>
