<?xml version="1.0" encoding="utf-8"?>
<!-- Generator: Adobe Illustrator 19.1.0, SVG Export Plug-In . SVG Version: 6.00 Build 0)  -->
<svg version="1.1" id="Layer_1" xmlns="http://www.w3.org/2000/svg" xmlns:xlink="http://www.w3.org/1999/xlink" x="0px" y="0px"
	 viewBox="0 0 91.9 91.9" style="enable-background:new 0 0 91.9 91.9;" xml:space="preserve">
<style type="text/css">
	.st0{fill:#1D1D1B;}
	.st1{fill:none;stroke:#555759;stroke-miterlimit:10;}
	.st2{fill:none;stroke:#555759;stroke-miterlimit:10;stroke-dasharray:0.9994,0.9994;}
	.st3{fill:none;stroke:#555759;stroke-miterlimit:10;stroke-dasharray:1;}
	.st4{fill:#555759;}
	.st5{fill:#0E0F0F;}
	.st6{fill:#030104;}
	.st7{fill:#FFFFFF;}
	.st8{fill:#050505;}
</style>
<g>
	<g>
		<path class="st6" d="M40,19.5c-0.4-0.2-0.8-0.4-1.3-0.4c-1.3,0-2.3,1-2.3,2.3c0,0.4,0.1,0.8,0.3,1.2L40,19.5z"/>
		<path class="st6" d="M74,54.9c3.1-4,3.9-8.7,1.6-10.5c-2.1-1.7-6.1-0.2-9.2,3.2c-2.9-0.8-5.4-0.6-7.6,0.6
			c-4.2,2.4-5.8,7.8-6.3,11.9c-0.1,0.6-0.2,1.3-0.3,1.9c-0.9,7.1-1.8,13.8-10.3,13.8c-0.1,0-0.3,0-0.4,0c-2.4-0.1-4.1-0.8-5.3-2.3
			c-2.1-2.7-1.8-7.2-1.5-9c0.8-0.4,1.4-1.2,1.5-2.2l0.1-3.6l4.5-1.3c1-0.3,1.6-1.1,1.8-2.1c3.7-2,6.2-4.7,7.5-8.1
			c3.6-9.5-4.2-20.6-4.5-21.1c-0.1-0.1-0.2-0.2-0.3-0.2c0.2-0.5,0.2-1-0.2-1.2c-0.6-0.4-1.5-1.5-2-2.5l-0.9-1.8
			c-0.5-1-1.6-1.2-2.5-0.4l-2.3,2.2c-0.8,0.8-0.7,1.9,0.3,2.4l1.6,0.8c1,0.5,2.1,1.5,2.5,2.1c0.3,0.5,0.9,0.6,1.5,0.2
			c0.7,1,7.1,10.7,4.1,18.4c-1,2.7-3.1,4.9-6.1,6.5c-0.6-0.3-1.3-0.4-1.9-0.2l-5.5,1.6l-5.8-1.8c-0.7-0.2-1.4-0.1-1.9,0.2
			c-2.8-1.6-4.7-3.7-5.6-6.3c-3.1-8.1,4.1-18.4,4.2-18.5c0,0,0,0,0-0.1c0,0,0.2,0.2,0.4,0.4c0.2,0.2,0.7-0.2,1-0.8
			c0.4-0.7,1.5-1.6,2.5-2.1l1.6-0.8c1-0.5,1.2-1.6,0.3-2.4l-2.3-2.2c-0.8-0.8-1.9-0.6-2.5,0.4l-0.9,1.8c-0.5,1-1.4,2.1-2,2.5
			c-0.6,0.4-0.9,0.9-0.6,1.1l0.5,0.4c-0.1,0.1-0.2,0.2-0.3,0.3c-0.3,0.5-8.1,11.6-4.5,21.1c1.2,3.2,3.5,5.8,6.9,7.8
			c0.1,1,0.7,1.8,1.7,2.1l4.8,1.5l-0.1,3.5c0,0.7,0.3,1.4,0.8,1.9c-0.3,2.2-0.8,7.6,2,11.2c1.7,2.1,4.2,3.3,7.4,3.3
			c0.2,0,0.3,0,0.5,0c10.8,0,12-9,13-16.2c0.1-0.6,0.2-1.3,0.3-1.9c0.7-5,2.5-8.5,5-9.9c1.3-0.7,2.8-0.9,4.5-0.6
			c-2.1,3.6-2.4,7.3-0.5,8.8C66.4,60.7,70.8,58.9,74,54.9z M69.9,51.6c-1.2,1.5-2.8,2.2-3.7,1.5c-0.6-0.5-0.6-1.6-0.1-2.7
			c0.4,0.1,0.9,0.3,1.4,0.5c0.7,0.3,1.5,0,1.8-0.7c0.3-0.7,0-1.5-0.7-1.8c-0.2-0.1-0.4-0.2-0.6-0.2c1-0.7,2-0.9,2.6-0.4
			C71.4,48.4,71.1,50.2,69.9,51.6z"/>
		<path class="st6" d="M31.5,21c0-1.3-1-2.3-2.3-2.3c-0.5,0-0.9,0.1-1.3,0.4l3.3,3.1C31.4,21.8,31.5,21.4,31.5,21z"/>
		<path class="st6" d="M77.9,46c-0.6-0.3-0.7,0.3-0.6,1.4c0.2,1.7-0.1,4.3-2.3,7.1c-2.8,3.6-5.2,4.9-6.9,5.3c-1.1,0.3-1.4,0.5-0.6,1
			c0.8,0.5,2.3,0.6,3.3,0c1.2-0.8,3.1-2.3,5.3-5.1c2.5-3.1,3.1-5.5,3.1-7.1C79.3,47.4,78.5,46.3,77.9,46z"/>
	</g>
</g>
</svg>
