<?xml version="1.0" encoding="utf-8"?>
<!-- Generator: Adobe Illustrator 19.1.0, SVG Export Plug-In . SVG Version: 6.00 Build 0)  -->
<svg version="1.1" id="Layer_1" xmlns="http://www.w3.org/2000/svg" xmlns:xlink="http://www.w3.org/1999/xlink" x="0px" y="0px"
	 viewBox="0 0 91.9 86.8" style="enable-background:new 0 0 91.9 86.8;" xml:space="preserve">
<style type="text/css">
	.st0{fill:#1D1D1B;}
	.st1{fill:none;stroke:#555759;stroke-miterlimit:10;}
	.st2{fill:none;stroke:#555759;stroke-miterlimit:10;stroke-dasharray:0.9994,0.9994;}
	.st3{fill:none;stroke:#555759;stroke-miterlimit:10;stroke-dasharray:1;}
	.st4{fill:#555759;}
	.st5{fill:#0E0F0F;}
	.st6{fill:#030104;}
	.st7{fill:#FFFFFF;}
	.st8{fill:#050505;}
</style>
<g>
	<g>
		<path d="M68.6,20.8c-5.5-5.5-9.6-4.7-9.6-4.7L39.8,35.3l-22,22l-3.8,18.1l18.1-3.8l41.2-41.2C73.3,30.4,74.1,26.3,68.6,20.8
			L68.6,20.8z M31,69.4l-6.2,1.3c-0.6-1.1-1.3-2.2-2.6-3.6c-1.3-1.3-2.4-2-3.5-2.6l1.3-6.2l1.8-1.8c0,0,3.4,0.1,7.2,3.9
			c3.8,3.8,3.9,7.2,3.9,7.2L31,69.4z M31,69.4"/>
	</g>
</g>
</svg>
