<?xml version="1.0" encoding="utf-8"?>
<!-- Generator: Adobe Illustrator 19.1.0, SVG Export Plug-In . SVG Version: 6.00 Build 0)  -->
<svg version="1.1" id="Layer_1" xmlns="http://www.w3.org/2000/svg" xmlns:xlink="http://www.w3.org/1999/xlink" x="0px" y="0px"
	 viewBox="0 0 91.9 86.8" style="enable-background:new 0 0 91.9 86.8;" xml:space="preserve">
<style type="text/css">
	.st0{fill:#1D1D1B;}
	.st1{fill:none;stroke:#555759;stroke-miterlimit:10;}
	.st2{fill:none;stroke:#555759;stroke-miterlimit:10;stroke-dasharray:0.9994,0.9994;}
	.st3{fill:none;stroke:#555759;stroke-miterlimit:10;stroke-dasharray:1;}
	.st4{fill:#555759;}
	.st5{fill:#0E0F0F;}
	.st6{fill:#030104;}
	.st7{fill:#FFFFFF;}
	.st8{fill:#050505;}
</style>
<path d="M75.1,19.8v52.5c0,2.1-1.7,3.8-3.8,3.8h-15V52.7h7.5l1.3-8.6h-8.8v-6.8c0-2.5,1.3-3.9,3.8-3.9h5.6v-7.8c0,0-2.5-0.4-6.2-0.4
	c-8.2,0-12.4,4.6-12.4,11.4v7.5h-7.5v8.6h7.5V76H18.9c-2.1,0-3.7-1.7-3.7-3.8V19.8c0-2.1,1.7-3.8,3.7-3.8h52.5
	C73.4,16,75.1,17.7,75.1,19.8z"/>
</svg>
