<?xml version="1.0" encoding="utf-8"?>
<!-- Generator: Adobe Illustrator 19.1.0, SVG Export Plug-In . SVG Version: 6.00 Build 0)  -->
<svg version="1.1" id="Layer_1" xmlns="http://www.w3.org/2000/svg" xmlns:xlink="http://www.w3.org/1999/xlink" x="0px" y="0px"
	 viewBox="0 0 91.9 86.8" style="enable-background:new 0 0 91.9 86.8;" xml:space="preserve">
<style type="text/css">
	.st0{fill:#1D1D1B;}
	.st1{fill:none;stroke:#555759;stroke-miterlimit:10;}
	.st2{fill:none;stroke:#555759;stroke-miterlimit:10;stroke-dasharray:0.9994,0.9994;}
	.st3{fill:none;stroke:#555759;stroke-miterlimit:10;stroke-dasharray:1;}
	.st4{fill:#555759;}
	.st5{fill:#0E0F0F;}
	.st6{fill:#030104;}
	.st7{fill:#FFFFFF;}
	.st8{fill:#050505;}
</style>
<path d="M45.9,15c-15.8,0-28.6,11.5-28.6,25.7c0,13.7,11.9,24.8,26.8,25.6c1,5.2,1.7,8.7,1.7,8.7s7.2-4.4,13.7-11.7
	c8.8-4.4,14.8-12.8,14.8-22.5C74.4,26.6,61.6,15,45.9,15z M37.3,45.3c-0.1,0.5-0.4,1-0.8,1.5c-0.4,0.5-1,0.9-1.8,1.2
	c-0.8,0.3-1.8,0.5-3.1,0.5c-1.1,0-2.1-0.1-3-0.3c-0.9-0.2-1.6-0.5-2-0.8l0.3-3.1c0.5,0.5,1.1,0.8,1.9,1.1s1.8,0.5,2.8,0.5
	c1.8,0,2.7-0.5,2.7-1.6c0-0.3-0.1-0.6-0.2-0.9c-0.2-0.3-0.3-0.5-0.6-0.7c-0.2-0.2-0.5-0.3-0.8-0.5c-0.3-0.1-0.6-0.2-0.8-0.3l-2-0.7
	l-0.9-0.4c-0.9-0.4-1.6-0.8-2-1.3c-0.4-0.5-0.6-1.2-0.7-2.2c0-0.6,0.1-1.1,0.3-1.7c0.2-0.5,0.5-1,1-1.4c0.4-0.4,1-0.8,1.7-1
	c0.7-0.3,1.5-0.4,2.4-0.4c0.5,0,1,0,1.4,0.1c0.5,0.1,0.9,0.2,1.4,0.3c0.4,0.1,0.8,0.2,1.2,0.4c0.3,0.1,0.6,0.3,0.8,0.4l-0.3,2.8
	c-1.7-0.9-3.1-1.4-4.4-1.4c-0.4,0-0.7,0-1.1,0.1c-0.3,0.1-0.6,0.2-0.9,0.3c-0.3,0.1-0.5,0.3-0.6,0.5s-0.2,0.4-0.2,0.7
	c0,0.4,0.1,0.7,0.3,0.9c0.2,0.2,0.4,0.4,0.8,0.5c0.4,0.2,0.8,0.3,1.3,0.5c0.5,0.2,1.1,0.4,1.9,0.7l1.2,0.5c0.3,0.1,0.6,0.3,0.9,0.5
	c0.3,0.2,0.6,0.5,0.9,0.8c0.3,0.3,0.5,0.7,0.7,1.1c0.2,0.4,0.3,0.9,0.3,1.4C37.4,44.3,37.4,44.8,37.3,45.3z M52,48.1L50.7,38
	L46.9,45L43,38.1l-1.3,10.1h-2.9l2.1-15.1h2.3l3.7,6.9l3.7-6.9h2.3l2.1,15.1H52z M66.6,46.8c-0.4,0.5-1,0.9-1.8,1.2
	c-0.8,0.3-1.8,0.5-3.1,0.5c-1.1,0-2.1-0.1-3-0.3c-0.9-0.2-1.6-0.5-2-0.8l0.3-3.1c0.5,0.5,1.1,0.8,1.9,1.1s1.8,0.5,2.8,0.5
	c1.8,0,2.7-0.5,2.7-1.6c0-0.3-0.1-0.6-0.2-0.9c-0.2-0.3-0.3-0.5-0.6-0.7c-0.2-0.2-0.5-0.3-0.8-0.5c-0.3-0.1-0.6-0.2-0.8-0.3l-2-0.7
	l-0.9-0.4c-0.9-0.4-1.6-0.8-2-1.3c-0.4-0.5-0.6-1.2-0.7-2.2c0-0.6,0.1-1.1,0.3-1.7c0.2-0.5,0.5-1,1-1.4c0.4-0.4,1-0.8,1.7-1
	c0.7-0.3,1.5-0.4,2.4-0.4c0.5,0,1,0,1.4,0.1c0.5,0.1,0.9,0.2,1.4,0.3c0.4,0.1,0.8,0.2,1.2,0.4c0.3,0.1,0.6,0.3,0.8,0.4l-0.3,2.8
	c-1.7-0.9-3.1-1.4-4.4-1.4c-0.4,0-0.7,0-1.1,0.1c-0.3,0.1-0.6,0.2-0.9,0.3c-0.3,0.1-0.5,0.3-0.6,0.5s-0.2,0.4-0.2,0.7
	c0,0.4,0.1,0.7,0.3,0.9c0.2,0.2,0.4,0.4,0.8,0.5c0.4,0.2,0.8,0.3,1.3,0.5c0.5,0.2,1.1,0.4,1.9,0.7l1.2,0.5c0.3,0.1,0.6,0.3,0.9,0.5
	c0.3,0.2,0.6,0.5,0.9,0.8c0.3,0.3,0.5,0.7,0.7,1.1c0.2,0.4,0.3,0.9,0.3,1.4c0,0.5-0.1,1-0.2,1.5C67.2,45.9,67,46.4,66.6,46.8z"/>
</svg>
