<?xml version="1.0" encoding="utf-8"?>
<!-- Generator: Adobe Illustrator 19.1.0, SVG Export Plug-In . SVG Version: 6.00 Build 0)  -->
<svg version="1.1" id="Layer_1" xmlns="http://www.w3.org/2000/svg" xmlns:xlink="http://www.w3.org/1999/xlink" x="0px" y="0px"
	 viewBox="0 0 91.9 86.8" style="enable-background:new 0 0 91.9 86.8;" xml:space="preserve">
<style type="text/css">
	.st0{fill:#1D1D1B;}
	.st1{fill:none;stroke:#555759;stroke-miterlimit:10;}
	.st2{fill:none;stroke:#555759;stroke-miterlimit:10;stroke-dasharray:0.9994,0.9994;}
	.st3{fill:none;stroke:#555759;stroke-miterlimit:10;stroke-dasharray:1;}
	.st4{fill:#555759;}
	.st5{fill:#0E0F0F;}
	.st6{fill:#030104;}
	.st7{fill:#FFFFFF;}
	.st8{fill:#050505;}
</style>
<g>
	<path d="M77.2,29.4L64.6,16.8c-0.2-0.2-0.5-0.4-0.9-0.4H27.6c-0.7,0-1.2,0.6-1.2,1.2v57.5c0,0.7,0.6,1.2,1.2,1.2h48.7
		c0.7,0,1.2-0.6,1.2-1.2V30.3C77.6,30,77.5,29.7,77.2,29.4L77.2,29.4z M65,21.6l7.4,7.4H65V21.6z M29.8,73V19.9h31.7v11.4
		c0,0.7,0.6,1.2,1.2,1.2h11.4V73H29.8z M29.8,73"/>
	<path d="M42.7,37.8H34c-0.7,0-1.2-0.6-1.2-1.2v-8.7c0-0.7,0.6-1.2,1.2-1.2h8.7c0.7,0,1.2,0.6,1.2,1.2v8.7
		C43.9,37.2,43.4,37.8,42.7,37.8L42.7,37.8z M35.2,35.3h6.2v-6.2h-6.2V35.3z M35.2,35.3"/>
	<path d="M57.3,31.1H46.7c-0.7,0-1.2-0.6-1.2-1.2c0-0.7,0.6-1.2,1.2-1.2h10.6c0.7,0,1.2,0.6,1.2,1.2C58.5,30.5,57.9,31.1,57.3,31.1
		L57.3,31.1z M57.3,31.1"/>
	<path d="M54.6,35.8h-8c-0.7,0-1.2-0.6-1.2-1.2c0-0.7,0.6-1.2,1.2-1.2h8c0.7,0,1.2,0.6,1.2,1.2C55.8,35.2,55.3,35.8,54.6,35.8
		L54.6,35.8z M54.6,35.8"/>
	<path d="M42.7,53.3H34c-0.7,0-1.2-0.6-1.2-1.2v-8.7c0-0.7,0.6-1.2,1.2-1.2h8.7c0.7,0,1.2,0.6,1.2,1.2v8.7
		C43.9,52.7,43.4,53.3,42.7,53.3L42.7,53.3z M35.2,50.8h6.2v-6.2h-6.2V50.8z M35.2,50.8"/>
	<path d="M63.6,46.6H46.7c-0.7,0-1.2-0.6-1.2-1.2c0-0.7,0.6-1.2,1.2-1.2h16.9c0.7,0,1.2,0.6,1.2,1.2C64.8,46,64.2,46.6,63.6,46.6
		L63.6,46.6z M63.6,46.6"/>
	<path d="M57.9,51.3H46.7c-0.7,0-1.2-0.6-1.2-1.2c0-0.7,0.6-1.2,1.2-1.2h11.2c0.7,0,1.2,0.6,1.2,1.2C59.1,50.8,58.6,51.3,57.9,51.3
		L57.9,51.3z M57.9,51.3"/>
	<path d="M42.7,68.8H34c-0.7,0-1.2-0.6-1.2-1.2v-8.7c0-0.7,0.6-1.2,1.2-1.2h8.7c0.7,0,1.2,0.6,1.2,1.2v8.7
		C43.9,68.3,43.4,68.8,42.7,68.8L42.7,68.8z M35.2,66.4h6.2v-6.2h-6.2V66.4z M35.2,66.4"/>
	<path d="M65.6,62.1h-19c-0.7,0-1.2-0.6-1.2-1.2c0-0.7,0.6-1.2,1.2-1.2h19c0.7,0,1.2,0.6,1.2,1.2C66.9,61.6,66.3,62.1,65.6,62.1
		L65.6,62.1z M65.6,62.1"/>
	<path d="M62.6,66.8H46.7c-0.7,0-1.2-0.6-1.2-1.2c0-0.7,0.6-1.2,1.2-1.2h15.9c0.7,0,1.2,0.6,1.2,1.2C63.8,66.3,63.3,66.8,62.6,66.8
		L62.6,66.8z M62.6,66.8"/>
</g>
</svg>
