<?xml version="1.0" encoding="utf-8"?>
<!-- Generator: Adobe Illustrator 19.1.0, SVG Export Plug-In . SVG Version: 6.00 Build 0)  -->
<svg version="1.1" id="Layer_1" xmlns="http://www.w3.org/2000/svg" xmlns:xlink="http://www.w3.org/1999/xlink" x="0px" y="0px"
	 viewBox="0 0 91.9 86.8" style="enable-background:new 0 0 91.9 86.8;" xml:space="preserve">
<style type="text/css">
	.st0{fill:#1D1D1B;}
	.st1{fill:none;stroke:#555759;stroke-miterlimit:10;}
	.st2{fill:none;stroke:#555759;stroke-miterlimit:10;stroke-dasharray:0.9994,0.9994;}
	.st3{fill:none;stroke:#555759;stroke-miterlimit:10;stroke-dasharray:1;}
	.st4{fill:#555759;}
	.st5{fill:#0E0F0F;}
	.st6{fill:#030104;}
	.st7{fill:#FFFFFF;}
	.st8{fill:#050505;}
</style>
<g>
	<polygon points="20,74.1 24,28.2 31.8,31.2 31.8,42 26.6,74.1 	"/>
	<polygon points="23.2,28.2 18.2,34.4 15.1,74.1 19.2,74.1 	"/>
	<polygon points="74.3,74.1 72.1,34.4 64.3,37.1 62.9,55.8 66.5,74.1 	"/>
	<polygon points="78.6,74.1 75.5,39.6 73,35.3 75.8,74.1 	"/>
	<path d="M36.3,22.6L28,74.1h17.8v-60L36.3,22.6z M44.2,64.5l-13.8,5.1l0.7-5.4L44.2,59V64.5z M44.2,56.4l-12.7,5l0.7-5.1l12-5.4
		V56.4z M44.2,48.3l-11.5,5l0.7-5.6l10.8-4.9V48.3z M44.2,40.4l-10,4.9l0.5-5l9.5-5.3V40.4z M44.2,32.1l-8.9,5.3l0.7-5.3l8.2-5.3
		V32.1z M44.2,24.2l-7.7,4.9l0.9-4.9l6.7-5.5V24.2z"/>
	<path d="M54.9,20.3l-8-6.2v60H65L54.9,20.3z M48.4,18.7l5.7,4l1.1,4.6l-6.8-3.8V18.7z M48.4,26.8l6.8,3.1l0.7,4.5l-7.6-2.8V26.8z
		 M48.4,34.7l7.8,2.7l1,5l-8.7-2.8V34.7z M48.4,42.6l8.9,3.1l1,5.8l-9.9-3.4V42.6z M48.4,50.5l10.4,3.8l1,5.5L48.4,56V50.5z
		 M48.4,58.6L60,62.8l1,4.9L48.4,64V58.6z"/>
</g>
</svg>
