<?xml version="1.0" encoding="utf-8"?>
<!-- Generator: Adobe Illustrator 19.1.0, SVG Export Plug-In . SVG Version: 6.00 Build 0)  -->
<svg version="1.1" id="Layer_1" xmlns="http://www.w3.org/2000/svg" xmlns:xlink="http://www.w3.org/1999/xlink" x="0px" y="0px"
	 viewBox="0 0 91.9 82.4" style="enable-background:new 0 0 91.9 82.4;" xml:space="preserve">
<style type="text/css">
	.st0{fill:#1D1D1B;}
	.st1{fill:none;stroke:#555759;stroke-miterlimit:10;}
	.st2{fill:none;stroke:#555759;stroke-miterlimit:10;stroke-dasharray:0.9994,0.9994;}
	.st3{fill:none;stroke:#555759;stroke-miterlimit:10;stroke-dasharray:1;}
	.st4{fill:#555759;}
	.st5{fill:#0E0F0F;}
	.st6{fill:#030104;}
	.st7{fill:#FFFFFF;}
	.st8{fill:#050505;}
</style>
<path class="st0" d="M72.9,36.2h-7.1V18.3l-9.4-9.4H25.8c-2.9,0-5.2,2.3-5.2,5.2v48.3c0,2.9,2.3,5.2,5.2,5.2h34.8
	c2.9,0,5.2-2.3,5.2-5.2v-10h7.1c2.1,0,3.9-1.7,3.9-3.9v-8.5C76.8,38,75.1,36.2,72.9,36.2z M63.9,47.4V49h-5.4v-9.1h1.7v7.5H63.9z
	 M63.3,62.5c0,1.4-1.2,2.6-2.6,2.6H25.8c-1.4,0-2.6-1.2-2.6-2.6V14.1c0-1.4,1.2-2.6,2.6-2.6h28.4v8.3c0,0.4,0.3,0.6,0.6,0.6h8.3
	v15.7H47.9c-2.1,0-3.9,1.7-3.9,3.9v8.5c0,2.1,1.7,3.9,3.9,3.9h15.4V62.5z M49.5,39.9h1.9l2.1,3.2l1.9-3.2h1.9l-3,4.4l3.2,4.7h-1.9
	l-2.2-3.3L51.3,49h-1.9l3.2-4.5L49.5,39.9z M71,47.3c-0.1,0.3-0.2,0.6-0.5,0.9c-0.2,0.3-0.6,0.5-1.1,0.7c-0.5,0.2-1.1,0.3-1.9,0.3
	c-0.6,0-1.2-0.1-1.8-0.2c-0.5-0.1-0.9-0.3-1.2-0.5l0.2-1.9c0.3,0.3,0.7,0.5,1.2,0.7s1.1,0.3,1.7,0.3c1.1,0,1.6-0.3,1.6-1
	c0-0.2,0-0.4-0.1-0.5c-0.1-0.2-0.2-0.3-0.3-0.4s-0.3-0.2-0.5-0.3c-0.2-0.1-0.3-0.1-0.5-0.2l-1.2-0.4L66,44.6
	c-0.5-0.2-0.9-0.5-1.2-0.8c-0.3-0.3-0.4-0.7-0.4-1.3c0-0.3,0.1-0.7,0.2-1c0.1-0.3,0.3-0.6,0.6-0.9c0.3-0.3,0.6-0.5,1-0.6
	c0.4-0.2,0.9-0.2,1.5-0.2c0.3,0,0.6,0,0.9,0.1c0.3,0,0.6,0.1,0.8,0.2c0.3,0.1,0.5,0.1,0.7,0.2c0.2,0.1,0.4,0.2,0.5,0.2l-0.2,1.7
	c-1-0.5-1.9-0.8-2.7-0.8c-0.2,0-0.4,0-0.6,0.1c-0.2,0-0.4,0.1-0.5,0.2c-0.2,0.1-0.3,0.2-0.4,0.3c-0.1,0.1-0.1,0.3-0.1,0.4
	c0,0.2,0.1,0.4,0.2,0.5c0.1,0.1,0.3,0.2,0.5,0.3c0.2,0.1,0.5,0.2,0.8,0.3c0.3,0.1,0.7,0.2,1.1,0.4l0.7,0.3c0.2,0.1,0.4,0.2,0.6,0.3
	c0.2,0.1,0.4,0.3,0.5,0.5c0.2,0.2,0.3,0.4,0.4,0.7c0.1,0.3,0.2,0.5,0.2,0.9C71.1,46.7,71,47,71,47.3z"/>
</svg>
