<?xml version="1.0" encoding="utf-8"?>
<!-- Generator: Adobe Illustrator 19.1.0, SVG Export Plug-In . SVG Version: 6.00 Build 0)  -->
<svg version="1.1" id="Layer_1" xmlns="http://www.w3.org/2000/svg" xmlns:xlink="http://www.w3.org/1999/xlink" x="0px" y="0px"
	 viewBox="0 0 91.9 86.8" style="enable-background:new 0 0 91.9 86.8;" xml:space="preserve">
<style type="text/css">
	.st0{fill:#1D1D1B;}
	.st1{fill:none;stroke:#555759;stroke-miterlimit:10;}
	.st2{fill:none;stroke:#555759;stroke-miterlimit:10;stroke-dasharray:0.9994,0.9994;}
	.st3{fill:none;stroke:#555759;stroke-miterlimit:10;stroke-dasharray:1;}
	.st4{fill:#555759;}
	.st5{fill:#0E0F0F;}
	.st6{fill:#030104;}
	.st7{fill:#FFFFFF;}
	.st8{fill:#050505;}
</style>
<path d="M67,69.4h-5.5C59.4,67,56,65.1,52,64.1v-3.7c1.7,0,3-1.3,3-3s-1.3-3-3-3v-4.1c2.3-0.9,4.6-2.5,6.7-5
	c0.3,0.1,0.5,0.2,0.8,0.2C67.8,45.4,76,34.3,76,26c0-7.6-3.4-9.8-7.9-10.4c-0.3-0.1-0.7-0.2-1.1-0.2h-0.1H64H28H25H25
	c-0.4,0-0.8,0.1-1.1,0.2C19.4,16.3,16,18.4,16,26c0,8.3,8.2,19.4,16.5,19.4c0.3,0,0.5-0.1,0.8-0.2c2.1,2.5,4.4,4.1,6.7,5v4.1
	c-1.7,0-3,1.3-3,3s1.3,3,3,3v3.7c-4.1,1-7.4,2.9-9.5,5.3H25c-1.7,0-3,1.3-3,3c0,1.7,1.3,3,3,3h42c1.7,0,3-1.3,3-3
	C70,70.8,68.6,69.4,67,69.4z M62.8,38.2c1.7-4.2,3.1-9.7,3.7-16.7c3.4,0.2,3.4,1.2,3.4,4.5C70,30,66.6,35.8,62.8,38.2z M22,26
	c0-3.4,0-4.3,3.4-4.5c0.6,7.1,2,12.5,3.7,16.7C25.4,35.8,22,30,22,26z"/>
</svg>
