<?xml version="1.0" encoding="utf-8"?>
<!-- Generator: Adobe Illustrator 19.1.0, SVG Export Plug-In . SVG Version: 6.00 Build 0)  -->
<svg version="1.1" id="Layer_1" xmlns="http://www.w3.org/2000/svg" xmlns:xlink="http://www.w3.org/1999/xlink" x="0px" y="0px"
	 viewBox="0 0 91.9 86.8" style="enable-background:new 0 0 91.9 86.8;" xml:space="preserve">
<style type="text/css">
	.st0{fill:#1D1D1B;}
	.st1{fill:none;stroke:#555759;stroke-miterlimit:10;}
	.st2{fill:none;stroke:#555759;stroke-miterlimit:10;stroke-dasharray:0.9994,0.9994;}
	.st3{fill:none;stroke:#555759;stroke-miterlimit:10;stroke-dasharray:1;}
	.st4{fill:#555759;}
	.st5{fill:#0E0F0F;}
	.st6{fill:#030104;}
	.st7{fill:#FFFFFF;}
	.st8{fill:#050505;}
</style>
<path d="M45,34.5c2.5-10,11.2-13.7,16.2-13.7c5,0,8.8,4,8.8,10.1C70,47,46.2,73.3,38.2,73.3c-6.9,0-9.5-7.5-10.7-11.2L20,38.3
	c-1-3-2.5-3.8-7.5,0l-2.5-3c0,0,11.2-14.4,18.8-14.4s7.8,11.2,8.8,17.5c1,6.3,2.9,16.3,5.4,16.3c2.5,0,9.6-11.2,9.6-16.3
	C52.5,34.5,50,32,45,34.5z"/>
</svg>
