<?xml version="1.0" encoding="utf-8"?>
<!-- Generator: Adobe Illustrator 19.1.0, SVG Export Plug-In . SVG Version: 6.00 Build 0)  -->
<svg version="1.1" id="Layer_1" xmlns="http://www.w3.org/2000/svg" xmlns:xlink="http://www.w3.org/1999/xlink" x="0px" y="0px"
	 viewBox="0 0 105.1 86.8" style="enable-background:new 0 0 105.1 86.8;" xml:space="preserve">
<style type="text/css">
	.st0{fill:#1D1D1B;}
	.st1{fill:none;stroke:#555759;stroke-miterlimit:10;}
	.st2{fill:none;stroke:#555759;stroke-miterlimit:10;stroke-dasharray:0.9994,0.9994;}
	.st3{fill:none;stroke:#555759;stroke-miterlimit:10;stroke-dasharray:1;}
	.st4{fill:#555759;}
	.st5{fill:#0E0F0F;}
	.st6{fill:#030104;}
	.st7{fill:#FFFFFF;}
	.st8{fill:#050505;}
</style>
<g>
	<path d="M65.7,22.1c9.9,0,17.9,8,18,17.8c0,0.4-0.1,0.7-0.1,1.1l-0.2,4.4l4.2,1.5c4.8,1.7,8.1,6.2,8.1,11.3c0,6.6-5.4,12-12,12h-60
		c-6.6,0-12-5.4-12-12c0-6.6,5.3-11.9,11.8-12c0.3,0,0.6,0.1,0.9,0.1l4.6,0.3l1.5-4.3c1.7-4.8,6.2-8.1,11.3-8.1
		c0.6,0,1.2,0.1,2.1,0.2l4.2,0.8l2.1-3.7C53.3,25.6,59.3,22.1,65.7,22.1 M65.7,16.1c-9,0-16.7,5-20.8,12.3c-1-0.2-2.1-0.3-3.2-0.3
		c-7.9,0-14.5,5.1-16.9,12.1c-0.4,0-0.7-0.1-1.1-0.1c-9.9,0-18,8.1-18,18c0,9.9,8.1,18,18,18h60c9.9,0,18-8.1,18-18
		c0-7.9-5.1-14.5-12.1-16.9c0-0.4,0.1-0.7,0.1-1.1C89.7,26.8,78.9,16.1,65.7,16.1L65.7,16.1z M65.7,16.1"/>
</g>
</svg>
