<?xml version="1.0" encoding="utf-8"?>
<!-- Generator: Adobe Illustrator 19.1.0, SVG Export Plug-In . SVG Version: 6.00 Build 0)  -->
<svg version="1.1" id="Layer_1" xmlns="http://www.w3.org/2000/svg" xmlns:xlink="http://www.w3.org/1999/xlink" x="0px" y="0px"
	 viewBox="0 0 91.9 86.8" style="enable-background:new 0 0 91.9 86.8;" xml:space="preserve">
<style type="text/css">
	.st0{fill:#1D1D1B;}
	.st1{fill:none;stroke:#555759;stroke-miterlimit:10;}
	.st2{fill:none;stroke:#555759;stroke-miterlimit:10;stroke-dasharray:0.9994,0.9994;}
	.st3{fill:none;stroke:#555759;stroke-miterlimit:10;stroke-dasharray:1;}
	.st4{fill:#555759;}
	.st5{fill:#0E0F0F;}
	.st6{fill:#030104;}
	.st7{fill:#FFFFFF;}
	.st8{fill:#050505;}
</style>
<path d="M78.9,45c0,16.6-13.4,30-30,30s-30-13.4-30-30s13.4-30,30-30S78.9,28.4,78.9,45z M41.4,30.7c-0.1-2.5-1.9-4.4-5-4.4
	c-3,0-5,1.9-5,4.4c0,2.4,1.9,4.4,4.9,4.4h0.1C39.4,35,41.4,33.1,41.4,30.7z M40.1,38.8h-7.5V60h7.5V38.8z M67.6,48.8
	c0-6.9-3.4-11.2-8.8-11.2c-3,0-5.3,1.8-6.2,4.5l-0.3-3.3h-7.4c0.1,0.8,0.2,5,0.2,5V60h7.5V48.8c0-3,1.4-5,3.7-5c2.3,0,3.8,1.2,3.8,5
	V60h7.5V48.8z"/>
</svg>
