<?xml version="1.0" encoding="utf-8"?>
<!-- Generator: Adobe Illustrator 19.2.1, SVG Export Plug-In . SVG Version: 6.00 Build 0)  -->
<svg version="1.1" id="Layer_1" xmlns="http://www.w3.org/2000/svg" xmlns:xlink="http://www.w3.org/1999/xlink" x="0px" y="0px"
	 viewBox="0 0 180 180" style="enable-background:new 0 0 180 180;" xml:space="preserve">
<title>sv icons</title>
<g>
	<g>
		<g>
			<g>
				<path d="M18.1,51c1.2-1.9,2.1-3.9,3.5-5.6c2.5-2.9,5.9-3.6,9.6-3.6c19.6,0,39.3,0,58.9,0c18.6,0,37.2,0.2,55.8-0.1
					c7.5-0.1,12.9,2,15.7,9.2c0,25.8,0,51.6,0,77.4c-1.2,1.9-2.1,3.9-3.5,5.5c-2.5,2.9-5.9,3.6-9.6,3.6c-19.5,0-39.1,0-58.6,0
					c-18.8,0-37.6-0.2-56.4,0.1c-7.4,0.1-12.7-2.2-15.4-9.2C18.1,102.6,18.1,76.8,18.1,51z M90,131.6c19.2,0,38.3,0,57.5,0
					c6.4,0,8.2-1.8,8.2-8.1c0-22.5,0-45,0-67.6c0-6.3-1.8-8.2-8.2-8.2c-38.4,0-76.8,0-115.2,0c-6.2,0-8.1,1.8-8.1,8
					c0,22.6,0,45.2,0,67.9c0,6.2,1.9,8,8.1,8C51.4,131.6,70.7,131.6,90,131.6z"/>
			</g>
		</g>
		<g>
			<path d="M89.9,105.1c-0.6-0.3-1.2-0.6-1.7-1C71.5,93.3,54.9,82.6,38.3,71.8c-1.7-1.1-3-2.5-1.7-4.6c1.4-2.2,3.2-1.6,5.1-0.4
				c15.3,10,30.8,19.8,46,29.9c1.7,1.1,2.8,1.1,4.4,0c15-9.8,30.1-19.5,45.1-29.3c0.8-0.5,1.6-1.4,2.4-1.3c1.2,0,2.9,0.4,3.5,1.2
				c0.5,0.7,0,2.3-0.4,3.5c-0.2,0.5-1,0.8-1.5,1.2c-16.4,10.6-32.9,21.3-49.4,31.9C91.2,104.3,90.6,104.7,89.9,105.1z"/>
		</g>
		<g>
			<path d="M66.4,98.8c-0.8,1-1.3,2-2.2,2.6c-8.6,5.8-17.4,11.6-26.1,17.4c-1.6,1.1-3.3,1.2-4.4-0.6c-1.2-1.8-0.5-3.3,1.2-4.5
				c8.6-5.8,17.2-11.5,25.9-17.2c0.9-0.6,2.5-0.6,3.6-0.3C65.2,96.4,65.6,97.7,66.4,98.8z"/>
		</g>
		<g>
			<path d="M146.6,115.8c0,2.8-1.8,4.2-3.8,3.6c-0.7-0.2-1.3-0.7-1.9-1.1c-8.2-5.5-16.3-10.9-24.5-16.3c-1.9-1.2-3.5-2.7-1.9-5
				c1.6-2.3,3.5-1.2,5.4,0c8.1,5.5,16.3,10.9,24.4,16.4C145.3,114.1,146.1,115.2,146.6,115.8z"/>
		</g>
	</g>
</g>
</svg>
