<?xml version="1.0" encoding="utf-8"?>
<!-- Generator: Adobe Illustrator 19.1.0, SVG Export Plug-In . SVG Version: 6.00 Build 0)  -->
<svg version="1.1" id="Layer_1" xmlns="http://www.w3.org/2000/svg" xmlns:xlink="http://www.w3.org/1999/xlink" x="0px" y="0px"
	 viewBox="0 0 91.9 82.4" style="enable-background:new 0 0 91.9 82.4;" xml:space="preserve">
<style type="text/css">
	.st0{fill:#1D1D1B;}
	.st1{fill:none;stroke:#555759;stroke-miterlimit:10;}
	.st2{fill:none;stroke:#555759;stroke-miterlimit:10;stroke-dasharray:0.9994,0.9994;}
	.st3{fill:none;stroke:#555759;stroke-miterlimit:10;stroke-dasharray:1;}
	.st4{fill:#555759;}
	.st5{fill:#0E0F0F;}
	.st6{fill:#030104;}
	.st7{fill:#FFFFFF;}
	.st8{fill:#050505;}
</style>
<g>
	<path class="st0" d="M64.1,41.3c-0.4,0-0.8,0.1-1.1,0.2s-0.6,0.4-0.8,0.6c-0.2,0.3-0.4,0.6-0.5,1c-0.1,0.4-0.2,0.8-0.2,1.3
		s0.1,0.9,0.2,1.3c0.1,0.4,0.3,0.7,0.5,1c0.2,0.3,0.5,0.5,0.8,0.6s0.7,0.2,1.1,0.2c0.4,0,0.8-0.1,1.1-0.2s0.6-0.4,0.8-0.6
		s0.4-0.6,0.5-1c0.1-0.4,0.2-0.8,0.2-1.3c0-0.9-0.2-1.7-0.7-2.3C65.6,41.6,65,41.3,64.1,41.3z"/>
	<path class="st0" d="M54.3,41.5h-1.7v5.9h1.7c0.9,0,1.5-0.3,2-0.8c0.5-0.5,0.7-1.2,0.7-2.2c0-0.9-0.2-1.7-0.7-2.2
		S55.1,41.5,54.3,41.5z"/>
	<path class="st0" d="M75.9,36.2h-7.1V18.3l-9.4-9.4H28.8c-2.9,0-5.2,2.3-5.2,5.2v48.3c0,2.9,2.3,5.2,5.2,5.2h34.8
		c2.9,0,5.2-2.3,5.2-5.2v-10h7.1c2.1,0,3.9-1.7,3.9-3.9v-8.5C79.8,38,78.1,36.2,75.9,36.2z M68.6,44.5c0,1.4-0.4,2.6-1.3,3.4
		c-0.8,0.9-1.9,1.3-3.2,1.3c-0.6,0-1.2-0.1-1.8-0.3c-0.5-0.2-1-0.5-1.4-1c-0.4-0.4-0.7-0.9-0.9-1.5c-0.2-0.6-0.3-1.2-0.3-1.9
		s0.1-1.4,0.3-1.9c0.2-0.6,0.5-1.1,0.9-1.5c0.4-0.4,0.9-0.7,1.4-1c0.5-0.2,1.1-0.3,1.8-0.3c0.6,0,1.2,0.1,1.8,0.3s1,0.6,1.4,1
		c0.4,0.4,0.7,0.9,0.9,1.5C68.5,43.1,68.6,43.8,68.6,44.5z M66.3,62.5c0,1.4-1.2,2.6-2.6,2.6H28.8c-1.4,0-2.6-1.2-2.6-2.6V14.1
		c0-1.4,1.2-2.6,2.6-2.6h28.4v8.3c0,0.4,0.3,0.6,0.6,0.6h8.3v15.7H50.9c-2.1,0-3.9,1.7-3.9,3.9v8.5c0,2.1,1.7,3.9,3.9,3.9h15.4V62.5
		z M58.7,44.5c0,0.7-0.1,1.3-0.3,1.9s-0.5,1-0.9,1.4c-0.4,0.4-0.9,0.7-1.4,0.9c-0.5,0.2-1.2,0.3-1.8,0.3h-3.4v-9.1h3.4
		c0.7,0,1.3,0.1,1.8,0.3s1,0.5,1.4,0.9c0.4,0.4,0.7,0.9,0.9,1.4C58.6,43.2,58.7,43.8,58.7,44.5z M71.5,45.8c0.1,0.4,0.3,0.7,0.5,1
		c0.2,0.3,0.5,0.5,0.8,0.6s0.7,0.2,1.1,0.2c0.7,0,1.5-0.2,2.4-0.5l0.2,1.6c-0.7,0.4-1.6,0.5-2.6,0.5c-0.6,0-1.2-0.1-1.8-0.3
		c-0.5-0.2-1-0.5-1.4-1c-0.4-0.4-0.7-0.9-0.9-1.5c-0.2-0.6-0.3-1.2-0.3-1.9s0.1-1.4,0.3-1.9c0.2-0.6,0.5-1.1,0.9-1.5
		c0.4-0.4,0.9-0.7,1.4-1c0.5-0.2,1.1-0.3,1.8-0.3c1,0,1.8,0.2,2.6,0.5l-0.2,1.6c-0.9-0.4-1.7-0.5-2.4-0.5c-0.4,0-0.8,0.1-1.1,0.2
		s-0.6,0.4-0.8,0.6c-0.2,0.3-0.4,0.6-0.5,1c-0.1,0.4-0.2,0.8-0.2,1.3S71.4,45.4,71.5,45.8z"/>
</g>
</svg>
