<?xml version="1.0" encoding="utf-8"?>
<!-- Generator: Adobe Illustrator 19.1.0, SVG Export Plug-In . SVG Version: 6.00 Build 0)  -->
<svg version="1.1" id="Layer_1" xmlns="http://www.w3.org/2000/svg" xmlns:xlink="http://www.w3.org/1999/xlink" x="0px" y="0px"
	 viewBox="0 0 91.9 86.8" style="enable-background:new 0 0 91.9 86.8;" xml:space="preserve">
<style type="text/css">
	.st0{fill:#1D1D1B;}
	.st1{fill:none;stroke:#555759;stroke-miterlimit:10;}
	.st2{fill:none;stroke:#555759;stroke-miterlimit:10;stroke-dasharray:0.9994,0.9994;}
	.st3{fill:none;stroke:#555759;stroke-miterlimit:10;stroke-dasharray:1;}
	.st4{fill:#555759;}
	.st5{fill:#0E0F0F;}
	.st6{fill:#030104;}
	.st7{fill:#FFFFFF;}
	.st8{fill:#050505;}
</style>
<g>
	<g>
		<path d="M65.2,29.9L37.5,15.6c-3.8-2-11.3,1.9-13.4,5.3c-1,1.5-0.9,2.6-0.9,3.2l0.3,32.2c0,0.7,0.9,1.6,1.6,2.1
			c1.5,0.9,24.8,15.5,25.5,15.9c0.4,0.2,0.8,0.3,1.2,0.3c0.4,0,0.7-0.1,1-0.2c0.7-0.3,1.1-1,1.1-1.7V38.7c0-0.7-0.4-1.4-1.1-1.7
			L27.8,23c0.3-0.6,1.4-1.7,3.5-2.8c2.2-1.1,3.8-0.7,4.2-0.6c0,0,24.2,12.9,24.9,13.3C61,33.3,61,33.4,61,34v32.1
			c0,1.6,1.6,2.3,2.8,2.3c1.2,0,2.5-1.2,2.5-2.3V31.6C66.3,30.9,65.9,30.2,65.2,29.9L65.2,29.9z M65.2,29.9"/>
	</g>
</g>
</svg>
