<?xml version="1.0" encoding="utf-8"?>
<!-- Generator: Adobe Illustrator 19.1.0, SVG Export Plug-In . SVG Version: 6.00 Build 0)  -->
<svg version="1.1" id="Layer_1" xmlns="http://www.w3.org/2000/svg" xmlns:xlink="http://www.w3.org/1999/xlink" x="0px" y="0px"
	 viewBox="0 0 91.9 91.9" style="enable-background:new 0 0 91.9 91.9;" xml:space="preserve">
<style type="text/css">
	.st0{fill:#1D1D1B;}
	.st1{fill:none;stroke:#555759;stroke-miterlimit:10;}
	.st2{fill:none;stroke:#555759;stroke-miterlimit:10;stroke-dasharray:0.9994,0.9994;}
	.st3{fill:none;stroke:#555759;stroke-miterlimit:10;stroke-dasharray:1;}
	.st4{fill:#555759;}
	.st5{fill:#0E0F0F;}
	.st6{fill:#030104;}
	.st7{fill:#FFFFFF;}
	.st8{fill:#050505;}
</style>
<g>
	<path d="M74.9,61.9V43.7H56.8L74.9,61.9z M74.9,61.9"/>
	<path d="M7.9,43.7c-2.9,0-5.3,2.4-5.3,5.3v9.4c0,2.9,2.4,5.3,5.3,5.3h40.3L28.2,43.7H7.9z M24.4,57.9h-16v-8.4h16V57.9z M24.4,57.9
		"/>
	<path d="M86.7,43.7h-8.1v20h8.1c1.3,0,2.4-1.1,2.4-2.4V46C89.1,44.7,88.1,43.7,86.7,43.7L86.7,43.7z M86.7,43.7"/>
	<path d="M82.4,39.1c1.6,0,2.9-1.3,2.9-2.9c0-6.4-5.2-11.5-11.5-11.5H50.3c-3.7,0-6.7-3-6.7-6.7c0-1.6-1.3-2.9-2.9-2.9
		s-2.9,1.3-2.9,2.9c0,6.9,5.6,12.5,12.5,12.5h23.4c3.2,0,5.8,2.6,5.8,5.8C79.5,37.8,80.8,39.1,82.4,39.1L82.4,39.1z M82.4,39.1"/>
	<path d="M25.2,20.3c-1.7-1.7-4.4-1.7-6.1,0c-1.7,1.7-1.7,4.4,0,6.1l47.4,47.4c0.8,0.8,2,1.3,3.1,1.3c1.1,0,2.2-0.4,3.1-1.3
		c1.7-1.7,1.7-4.4,0-6.1L25.2,20.3z M25.2,20.3"/>
</g>
</svg>
