<?xml version="1.0" encoding="utf-8"?>
<!-- Generator: Adobe Illustrator 19.1.0, SVG Export Plug-In . SVG Version: 6.00 Build 0)  -->
<svg version="1.1" id="Layer_1" xmlns="http://www.w3.org/2000/svg" xmlns:xlink="http://www.w3.org/1999/xlink" x="0px" y="0px"
	 viewBox="0 0 91.9 86.8" style="enable-background:new 0 0 91.9 86.8;" xml:space="preserve">
<style type="text/css">
	.st0{fill:#1D1D1B;}
	.st1{fill:none;stroke:#555759;stroke-miterlimit:10;}
	.st2{fill:none;stroke:#555759;stroke-miterlimit:10;stroke-dasharray:0.9994,0.9994;}
	.st3{fill:none;stroke:#555759;stroke-miterlimit:10;stroke-dasharray:1;}
	.st4{fill:#555759;}
	.st5{fill:#0E0F0F;}
	.st6{fill:#030104;}
	.st7{fill:#FFFFFF;}
	.st8{fill:#050505;}
</style>
<g>
	<path d="M46.9,38.2c-6.2,0-11.2,5-11.2,11.2c0,6.2,5,11.2,11.2,11.2c6.2,0,11.3-5,11.3-11.2C58.1,43.2,53.1,38.2,46.9,38.2
		L46.9,38.2z M76.9,26.9h-9c-1.2,0-2.6-1-3-2.1l-2.3-7c-0.4-1.2-1.7-2.1-3-2.1H34.1c-1.2,0-2.6,1-3,2.1l-2.3,7
		c-0.4,1.2-1.7,2.1-3,2.1h-9c-4.1,0-7.5,3.4-7.5,7.5v33.7c0,4.1,3.4,7.5,7.5,7.5h60c4.1,0,7.5-3.4,7.5-7.5V34.4
		C84.4,30.3,81,26.9,76.9,26.9L76.9,26.9z M46.9,68.2c-10.4,0-18.7-8.4-18.7-18.7c0-10.4,8.4-18.8,18.7-18.8
		c10.4,0,18.8,8.4,18.8,18.8C65.6,59.8,57.2,68.2,46.9,68.2L46.9,68.2z M74.2,39.7c-1.4,0-2.6-1.2-2.6-2.6c0-1.4,1.2-2.6,2.6-2.6
		c1.5,0,2.6,1.2,2.6,2.6C76.9,38.5,75.7,39.7,74.2,39.7L74.2,39.7z M74.2,39.7"/>
</g>
</svg>
