<?xml version="1.0" encoding="utf-8"?>
<!-- Generator: Adobe Illustrator 19.1.0, SVG Export Plug-In . SVG Version: 6.00 Build 0)  -->
<svg version="1.1" id="Layer_1" xmlns="http://www.w3.org/2000/svg" xmlns:xlink="http://www.w3.org/1999/xlink" x="0px" y="0px"
	 viewBox="0 0 91.9 86.8" style="enable-background:new 0 0 91.9 86.8;" xml:space="preserve">
<style type="text/css">
	.st0{fill:#1D1D1B;}
	.st1{fill:none;stroke:#555759;stroke-miterlimit:10;}
	.st2{fill:none;stroke:#555759;stroke-miterlimit:10;stroke-dasharray:0.9994,0.9994;}
	.st3{fill:none;stroke:#555759;stroke-miterlimit:10;stroke-dasharray:1;}
	.st4{fill:#555759;}
	.st5{fill:#0E0F0F;}
	.st6{fill:#030104;}
	.st7{fill:#FFFFFF;}
	.st8{fill:#050505;}
</style>
<path d="M72.6,34.8v1.6c0,16.3-12.4,35-35,35c-6.9,0-13.5-1.5-18.9-5c1,0.1,1.9,0.2,2.9,0.2c5.7,0,11.1-2.5,15.3-5.8
	c-5.3-0.1-9.9-3.7-11.5-8.6c0.8,0.1,1.5,0.2,2.3,0.2c1.1,0,2.2-0.1,3.3-0.4c-5.6-1.1-9.9-6.1-9.9-12.1v-0.1c1.7,0.9,3.5,1.5,5.6,1.5
	c-3.3-2.2-5.5-6-5.5-10.2c0-2.3,0.6-4.2,1.7-6c6.1,7.4,15.1,12.1,25.3,12.6C48,36.9,48,35.9,48,34.9c0-6.8,5.5-12.3,12.3-12.3
	c3.5,0,6.7,1.5,9.1,3.9c2.8-0.6,5.4-1.6,7.8-3c-0.9,2.9-2.8,5.3-5.4,6.8c2.5-0.3,4.9-1,7.1-2C77.1,30.9,75,33.1,72.6,34.8z"/>
</svg>
