<?xml version="1.0" encoding="utf-8"?>
<!-- Generator: Adobe Illustrator 19.1.0, SVG Export Plug-In . SVG Version: 6.00 Build 0)  -->
<svg version="1.1" id="Layer_1" xmlns="http://www.w3.org/2000/svg" xmlns:xlink="http://www.w3.org/1999/xlink" x="0px" y="0px"
	 viewBox="0 0 91.9 82.4" style="enable-background:new 0 0 91.9 82.4;" xml:space="preserve">
<style type="text/css">
	.st0{fill:#1D1D1B;}
	.st1{fill:none;stroke:#555759;stroke-miterlimit:10;}
	.st2{fill:none;stroke:#555759;stroke-miterlimit:10;stroke-dasharray:0.9994,0.9994;}
	.st3{fill:none;stroke:#555759;stroke-miterlimit:10;stroke-dasharray:1;}
	.st4{fill:#555759;}
	.st5{fill:#0E0F0F;}
	.st6{fill:#030104;}
	.st7{fill:#FFFFFF;}
	.st8{fill:#050505;}
</style>
<g>
	<path d="M64.3,12H19.6v52.6h44.7V12z M60,60.3H23.9V16.3H60V60.3z M60,60.3"/>
	<rect x="28.2" y="21.8" width="28.1" height="2.6"/>
	<rect x="28.2" y="29.9" width="28.1" height="2.6"/>
	<path d="M66,20.3v4.3h2.3v43.1H33.1V66h-4.3v6h43.8V20.3H66z M66,20.3"/>
	<path d="M29.3,49.1c0.5,0,0.9-0.1,1.3-0.3l3.5,2.9c0,0.1-0.1,0.3-0.1,0.4c0,1.7,1.4,3.1,3.1,3.1c1.7,0,3.1-1.4,3.1-3.1
		c0-0.5-0.1-0.9-0.3-1.3c1.7-2.5,3.9-5.8,5.2-7.7c0.2,0,0.4,0.1,0.6,0.1c0.7,0,1.4-0.3,1.9-0.7c1.2,0.7,2.7,1.6,4,2.3
		c0,0,0,0.1,0,0.1c0,1.7,1.4,3.1,3.1,3.1c1.7,0,3.1-1.4,3.1-3.1s-1.4-3.1-3.1-3.1c-0.8,0-1.4,0.3-2,0.7l-3.9-2.3c0,0,0-0.1,0-0.1
		c0-1.7-1.4-3.1-3.1-3.1s-3.1,1.4-3.1,3.1c0,0.6,0.2,1.1,0.5,1.5c-1.6,2.4-3.7,5.6-5,7.6C37.7,49,37.4,49,37.1,49
		c-0.6,0-1.2,0.2-1.7,0.6c-1-0.8-2.2-1.8-3.3-2.7c0.1-0.3,0.2-0.5,0.2-0.8c0-1.7-1.4-3.1-3.1-3.1c-1.7,0-3.1,1.4-3.1,3.1
		C26.2,47.7,27.6,49.1,29.3,49.1L29.3,49.1z M29.3,49.1"/>
</g>
</svg>
