<?xml version="1.0" encoding="utf-8"?>
<!-- Generator: Adobe Illustrator 19.1.0, SVG Export Plug-In . SVG Version: 6.00 Build 0)  -->
<svg version="1.1" id="Layer_1" xmlns="http://www.w3.org/2000/svg" xmlns:xlink="http://www.w3.org/1999/xlink" x="0px" y="0px"
	 viewBox="0 0 91.9 86.8" style="enable-background:new 0 0 91.9 86.8;" xml:space="preserve">
<style type="text/css">
	.st0{fill:#1D1D1B;}
	.st1{fill:none;stroke:#555759;stroke-miterlimit:10;}
	.st2{fill:none;stroke:#555759;stroke-miterlimit:10;stroke-dasharray:0.9994,0.9994;}
	.st3{fill:none;stroke:#555759;stroke-miterlimit:10;stroke-dasharray:1;}
	.st4{fill:#555759;}
	.st5{fill:#0E0F0F;}
	.st6{fill:#030104;}
	.st7{fill:#FFFFFF;}
	.st8{fill:#050505;}
</style>
<g>
	<path d="M45.1,21.1C58.3,21.1,69,31.9,69,45c0,13.2-10.7,23.9-23.9,23.9C32,68.9,21.2,58.2,21.2,45C21.2,31.9,32,21.1,45.1,21.1
		 M45.1,15c-16.6,0-30,13.4-30,30c0,16.6,13.4,30,30,30c16.6,0,30-13.4,30-30C75.1,28.5,61.7,15,45.1,15L45.1,15z"/>
	<g>
		<circle cx="35.5" cy="39.9" r="4.1"/>
		<circle cx="54.8" cy="39.9" r="4.1"/>
	</g>
	<path d="M58.7,55.1c0,1.3-1.1,2.4-2.4,2.4H34c-1.3,0-2.4-1.1-2.4-2.4l0,0c0-1.3,1.1-2.4,2.4-2.4h22.4
		C57.7,52.7,58.7,53.8,58.7,55.1L58.7,55.1z"/>
</g>
</svg>
