<?xml version="1.0" encoding="utf-8"?>
<!-- Generator: Adobe Illustrator 19.1.0, SVG Export Plug-In . SVG Version: 6.00 Build 0)  -->
<svg version="1.1" id="Layer_1" xmlns="http://www.w3.org/2000/svg" xmlns:xlink="http://www.w3.org/1999/xlink" x="0px" y="0px"
	 viewBox="0 0 91.9 91.9" style="enable-background:new 0 0 91.9 91.9;" xml:space="preserve">
<style type="text/css">
	.st0{fill:#1D1D1B;}
	.st1{fill:none;stroke:#555759;stroke-miterlimit:10;}
	.st2{fill:none;stroke:#555759;stroke-miterlimit:10;stroke-dasharray:0.9994,0.9994;}
	.st3{fill:none;stroke:#555759;stroke-miterlimit:10;stroke-dasharray:1;}
	.st4{fill:#555759;}
	.st5{fill:#0E0F0F;}
	.st6{fill:#030104;}
	.st7{fill:#FFFFFF;}
	.st8{fill:#050505;}
</style>
<g>
	<path d="M62.8,37.2c0.2-0.2,0.3-0.3,0.4-0.4c2.2-0.4,3.5-3.9,1-5.3c-2.9-1.7-6.6,2-9.1,4.8c-1.5-1.6-3.2-3.1-4.8-4.6
		c-2.1-3.3-7.4-3.5-9.9-0.7c0,0-0.1,0-0.1,0.1c-1.8,1.7-3.7,3.5-5.5,5.3c-2.5-2.8-6.2-6.5-9.1-4.8c-2.5,1.5-1.3,4.9,1,5.3
		c0.1,0.1,0.2,0.2,0.4,0.4c2,1.6,3.8,3.6,5.6,5.5c1,1.1,3.1,1.2,4.1,0c0.7-0.8,1.4-1.6,2.2-2.4v9.2c0,0.1,0,0.2,0,0.4
		c0,0.1,0,0.1,0,0.2c0,8.4,0,16.8-0.4,25.1c-0.2,3.7,5.6,3.7,5.8,0c0.3-6.6,0.3-13.1,0.4-19.7c0.3,0,0.5,0,0.8,0
		c0,6.6,0.1,13.1,0.4,19.7c0.2,3.7,5.9,3.7,5.8,0c-0.3-8.4-0.4-16.8-0.4-25.1c0-0.3,0-0.5-0.1-0.7v-8.7c0.6,0.7,1.3,1.4,1.9,2.1
		c1,1.2,3.1,1.1,4.1,0C59,40.8,60.8,38.9,62.8,37.2z"/>
	<path d="M45.1,28.1c2.8,0,5-2.3,5-5c0-2.8-2.3-5.1-5-5.1c-2.8,0-5.1,2.3-5.1,5.1C40.1,25.9,42.3,28.1,45.1,28.1z"/>
	<path d="M26.9,44.3c-0.1-0.1-0.2-0.1-0.2,0c-0.1,0-0.1,0.1-0.1,0.2v2.9h-5.2c-0.1,0-0.2,0.1-0.2,0.2v3.6c0,0.1,0.1,0.2,0.2,0.2h5.2
		v2.9c0,0.1,0,0.2,0.1,0.2c0.1,0,0.2,0,0.2,0l4.9-4.9c0,0,0.1-0.1,0.1-0.2c0-0.1,0-0.1-0.1-0.2L26.9,44.3z"/>
	<path d="M68,47.4h-5.2v-2.9c0-0.1,0-0.2-0.1-0.2c-0.1,0-0.2,0-0.2,0l-4.9,4.9c0,0-0.1,0.1-0.1,0.2s0,0.1,0.1,0.2l4.9,4.9
		c0.1,0.1,0.2,0.1,0.2,0c0.1,0,0.1-0.1,0.1-0.2v-2.9H68c0.1,0,0.2-0.1,0.2-0.2v-3.6C68.2,47.5,68.1,47.4,68,47.4z"/>
</g>
</svg>
