<?xml version="1.0" encoding="utf-8"?>
<!-- Generator: Adobe Illustrator 19.1.0, SVG Export Plug-In . SVG Version: 6.00 Build 0)  -->
<svg version="1.1" id="Layer_1" xmlns="http://www.w3.org/2000/svg" xmlns:xlink="http://www.w3.org/1999/xlink" x="0px" y="0px"
	 viewBox="0 0 100.9 86.8" style="enable-background:new 0 0 100.9 86.8;" xml:space="preserve">
<style type="text/css">
	.st0{fill:#1D1D1B;}
	.st1{fill:none;stroke:#555759;stroke-miterlimit:10;}
	.st2{fill:none;stroke:#555759;stroke-miterlimit:10;stroke-dasharray:0.9994,0.9994;}
	.st3{fill:none;stroke:#555759;stroke-miterlimit:10;stroke-dasharray:1;}
	.st4{fill:#555759;}
	.st5{fill:#0E0F0F;}
	.st6{fill:#030104;}
	.st7{fill:#FFFFFF;}
	.st8{fill:#050505;}
</style>
<g>
	<g>
		<path d="M80.4,35.6l-17.3-1.6c-1.1-0.1-2-0.8-2.5-1.8l-6.2-15c-1-2.5-4.5-2.5-5.5,0l-6.1,15c-0.4,1-1.4,1.7-2.5,1.8l-17.3,1.6
			c-2.6,0.2-3.6,3.5-1.7,5.2l13,11.4c0.8,0.7,1.2,1.8,0.9,2.9l-3.9,16c-0.6,2.5,2.1,4.6,4.4,3.3l14.4-8.5c0.9-0.5,2.1-0.5,3,0
			l14.4,8.5c2.3,1.3,5-0.7,4.4-3.3l-3.9-16c-0.2-1.1,0.1-2.2,0.9-2.9l13-11.4C84,39,82.9,35.8,80.4,35.6L80.4,35.6z M80.4,35.6"/>
	</g>
</g>
</svg>
