<?xml version="1.0" encoding="utf-8"?>
<!-- Generator: Adobe Illustrator 19.1.0, SVG Export Plug-In . SVG Version: 6.00 Build 0)  -->
<svg version="1.1" id="Layer_1" xmlns="http://www.w3.org/2000/svg" xmlns:xlink="http://www.w3.org/1999/xlink" x="0px" y="0px"
	 viewBox="0 0 91.9 91.9" style="enable-background:new 0 0 91.9 91.9;" xml:space="preserve">
<style type="text/css">
	.st0{fill:#1D1D1B;}
	.st1{fill:none;stroke:#555759;stroke-miterlimit:10;}
	.st2{fill:none;stroke:#555759;stroke-miterlimit:10;stroke-dasharray:0.9994,0.9994;}
	.st3{fill:none;stroke:#555759;stroke-miterlimit:10;stroke-dasharray:1;}
	.st4{fill:#555759;}
	.st5{fill:#0E0F0F;}
	.st6{fill:#030104;}
	.st7{fill:#FFFFFF;}
	.st8{fill:#050505;}
</style>
<g>
	<g>
		<path d="M36.2,44.6v21.8c0,1-0.6,1.8-1.5,2.2c-1.3,0.5-2.8,0.7-4.5,0.7c-4.8,0-9.9-2-9.9-6.3v-28c-0.1-1.9,0.6-5.3,3.8-7.1
			c1.5-0.8,9.3-5.9,13.3-8.4c0.7-0.5,1.6-0.5,2.3-0.1c0.7,0.4,1.2,1.2,1.2,2v3.3c0,1.3-1,2.3-2.3,2.3c-1,0-1.8-0.6-2.1-1.5
			c-3.5,2.3-8.8,5.6-10.1,6.4c-1.2,0.7-1.4,1.9-1.5,2.6c0,0.8,0.2,1.3,0.4,1.7c0.8,0.9,3.5,0.3,6.5-1.4c2.8-1.7,16.8-11,17-11.1
			c0.7-0.5,1.6-0.5,2.3-0.1c0.7,0.4,1.2,1.2,1.2,2v0.3c0,0.8-0.4,1.5-1,1.9c0,0-9.7,6.5-10.6,7C37.3,36.8,36.2,39.4,36.2,44.6
			L36.2,44.6z M70.5,33.6v29.7c0,0.8-0.4,1.5-1.1,1.9c0,0-13.3,10.4-16,12c-1.4,0.9-3.2,1.3-5.2,1.3c-4.8,0-9.7-2.6-9.7-6.9V43.3
			c0,0,0,0,0,0c0-1.7,0.4-4.1,3.5-6.4c1.9-1.4,13-9,13.4-9.3c0.7-0.5,1.6-0.5,2.4-0.1c0.8,0.4,1.2,1.2,1.2,2v3.3
			c0,1.3-1,2.3-2.3,2.3c-0.9,0-1.8-0.6-2.1-1.4c-3.5,2.4-8.7,6-9.9,6.9c-1.5,1.1-1.7,1.8-1.7,2.7c0,0.7,0.2,1.2,0.6,1.6
			c1.2,1.1,4.3,0.6,7.4-1.2c2.3-1.4,12.2-9,15.8-11.8c0.7-0.5,1.6-0.6,2.4-0.2C70,31.9,70.5,32.7,70.5,33.6L70.5,33.6z M65.9,43.8
			l-11.4,8.9v4.6l11.4-8.9V43.8z M65.9,43.8"/>
	</g>
</g>
</svg>
