<?xml version="1.0" encoding="utf-8"?>
<!-- Generator: Adobe Illustrator 19.1.0, SVG Export Plug-In . SVG Version: 6.00 Build 0)  -->
<svg version="1.1" id="Layer_1" xmlns="http://www.w3.org/2000/svg" xmlns:xlink="http://www.w3.org/1999/xlink" x="0px" y="0px"
	 viewBox="0 0 91.9 86.8" style="enable-background:new 0 0 91.9 86.8;" xml:space="preserve">
<style type="text/css">
	.st0{fill:#1D1D1B;}
	.st1{fill:none;stroke:#555759;stroke-miterlimit:10;}
	.st2{fill:none;stroke:#555759;stroke-miterlimit:10;stroke-dasharray:0.9994,0.9994;}
	.st3{fill:none;stroke:#555759;stroke-miterlimit:10;stroke-dasharray:1;}
	.st4{fill:#555759;}
	.st5{fill:#0E0F0F;}
	.st6{fill:#030104;}
	.st7{fill:#FFFFFF;}
	.st8{fill:#050505;}
</style>
<path d="M48.5,15c-16.6,0.2-29.8,13.8-29.6,30.4C19.1,62,32.7,75.2,49.3,75c16.6-0.2,29.8-13.8,29.6-30.4C78.6,28,65,14.8,48.5,15z
	 M51.4,63.3h-6v-6h6V63.3z M57.2,39.4c-0.5,1.1-1.2,2.2-1.9,3.2l-2.2,3.1c-0.7,1-1.4,2.2-1.9,3.5c-0.5,1.3-0.8,2.5-0.8,3.8v0.6h-4.1
	c-0.1-1.5-0.1-2.3-0.1-2.6c0-1.6,0.3-2.9,0.9-4.2c0.6-1.2,1.3-2.4,2.1-3.6c0.8-1.1,1.5-2.3,2.1-3.4c0.6-1.1,0.9-2.4,0.9-3.7
	c0-1.5-0.5-2.6-1.4-3.4c-0.9-0.8-2.1-1.1-3.5-1.1c-2.5,0-4.5,1.1-6,3.2L40,30.3c1.6-2.3,4.1-3.4,7.8-3.4c1.6,0,3,0.3,4.3,0.8
	c1.3,0.5,2.3,1.3,3.2,2.2c0.9,0.9,1.5,1.9,2,3c0.5,1.1,0.7,2.2,0.7,3.3C58,37.2,57.7,38.3,57.2,39.4z"/>
</svg>
