<?xml version="1.0" encoding="utf-8"?>
<!-- Generator: Adobe Illustrator 19.1.0, SVG Export Plug-In . SVG Version: 6.00 Build 0)  -->
<svg version="1.1" id="Layer_1" xmlns="http://www.w3.org/2000/svg" xmlns:xlink="http://www.w3.org/1999/xlink" x="0px" y="0px"
	 viewBox="0 0 100.9 86.8" style="enable-background:new 0 0 100.9 86.8;" xml:space="preserve">
<style type="text/css">
	.st0{fill:#1D1D1B;}
	.st1{fill:none;stroke:#555759;stroke-miterlimit:10;}
	.st2{fill:none;stroke:#555759;stroke-miterlimit:10;stroke-dasharray:0.9994,0.9994;}
	.st3{fill:none;stroke:#555759;stroke-miterlimit:10;stroke-dasharray:1;}
	.st4{fill:#555759;}
	.st5{fill:#0E0F0F;}
	.st6{fill:#030104;}
	.st7{fill:#FFFFFF;}
	.st8{fill:#050505;}
</style>
<g>
	<path d="M53.2,21.8c13.2,0,23.9,10.7,23.9,23.9c0,13.2-10.7,23.9-23.9,23.9c-13.2,0-23.9-10.7-23.9-23.9
		C29.3,32.5,40,21.8,53.2,21.8 M53.2,15.7c-16.6,0-30,13.4-30,30c0,16.6,13.4,30,30,30c16.6,0,30-13.4,30-30
		C83.2,29.1,69.8,15.7,53.2,15.7L53.2,15.7z"/>
	<g>
		<path d="M49.3,36.2c-0.5,1-1.7,1.4-2.8,1.2c-2.1-0.3-4.2,0.2-6,1.4c-0.9,0.6-2.2,0.8-3.1,0.1l0,0c-0.9-0.7-0.6-2.4,0.8-3.4
			c2.6-1.8,5.7-2.5,8.8-2C48.8,33.8,49.7,35.2,49.3,36.2L49.3,36.2z"/>
		<path d="M57.2,36.2c0.5,1,1.7,1.4,2.8,1.2c2.1-0.3,4.2,0.2,6,1.4c0.9,0.6,2.2,0.8,3.1,0.1l0,0c0.9-0.7,0.6-2.4-0.8-3.4
			c-2.6-1.8-5.7-2.5-8.8-2C57.7,33.8,56.7,35.2,57.2,36.2L57.2,36.2z"/>
	</g>
	<path d="M65.1,49.9c0,5.9-5.3,13.2-11.9,13.2c-6.6,0-11.9-7.3-11.9-13.2c0-5.9,5.3-3.4,11.9-3.4C59.8,46.5,65.1,43.9,65.1,49.9z"/>
</g>
</svg>
