<?xml version="1.0" encoding="utf-8"?>
<!-- Generator: Adobe Illustrator 19.1.0, SVG Export Plug-In . SVG Version: 6.00 Build 0)  -->
<svg version="1.1" id="Layer_1" xmlns="http://www.w3.org/2000/svg" xmlns:xlink="http://www.w3.org/1999/xlink" x="0px" y="0px"
	 viewBox="0 0 91.9 82.4" style="enable-background:new 0 0 91.9 82.4;" xml:space="preserve">
<style type="text/css">
	.st0{fill:#1D1D1B;}
	.st1{fill:none;stroke:#555759;stroke-miterlimit:10;}
	.st2{fill:none;stroke:#555759;stroke-miterlimit:10;stroke-dasharray:0.9994,0.9994;}
	.st3{fill:none;stroke:#555759;stroke-miterlimit:10;stroke-dasharray:1;}
	.st4{fill:#555759;}
	.st5{fill:#0E0F0F;}
	.st6{fill:#030104;}
	.st7{fill:#FFFFFF;}
	.st8{fill:#050505;}
</style>
<g>
	<path class="st0" d="M52.9,41.7c-0.1-0.1-0.3-0.2-0.5-0.3c-0.2-0.1-0.5-0.1-0.8-0.1h-1.4v3.1h1.4c0.6,0,1.1-0.1,1.3-0.4
		c0.3-0.2,0.4-0.7,0.4-1.3c0-0.3,0-0.5-0.1-0.7C53.1,42,53,41.8,52.9,41.7z"/>
	<path class="st0" d="M59.6,41.5h-1.7v5.9h1.7c0.9,0,1.5-0.3,2-0.8c0.5-0.5,0.7-1.2,0.7-2.2c0-0.9-0.2-1.7-0.7-2.2
		C61.1,41.8,60.5,41.5,59.6,41.5z"/>
	<path class="st0" d="M71.9,36.2h-7.1V18.3l-9.4-9.4H24.8c-2.9,0-5.2,2.3-5.2,5.2v48.3c0,2.9,2.3,5.2,5.2,5.2h34.8
		c2.9,0,5.2-2.3,5.2-5.2v-10h7.1c2.1,0,3.9-1.7,3.9-3.9v-8.5C75.8,38,74.1,36.2,71.9,36.2z M64.1,44.5c0,0.7-0.1,1.3-0.3,1.9
		s-0.5,1-0.9,1.4c-0.4,0.4-0.9,0.7-1.4,0.9c-0.5,0.2-1.2,0.3-1.8,0.3h-3.4v-9.1h3.4c0.7,0,1.3,0.1,1.8,0.3s1,0.5,1.4,0.9
		c0.4,0.4,0.7,0.9,0.9,1.4C63.9,43.2,64.1,43.8,64.1,44.5z M62.3,62.5c0,1.4-1.2,2.6-2.6,2.6H24.8c-1.4,0-2.6-1.2-2.6-2.6V14.1
		c0-1.4,1.2-2.6,2.6-2.6h28.4v8.3c0,0.4,0.3,0.6,0.6,0.6h8.3v15.7H46.9c-2.1,0-3.9,1.7-3.9,3.9v8.5c0,2.1,1.7,3.9,3.9,3.9h15.4V62.5
		z M54.9,42.8c0,0.6-0.1,1.2-0.3,1.6c-0.2,0.4-0.5,0.7-0.8,1c-0.3,0.2-0.7,0.4-1,0.5C52.5,46,52.1,46,51.8,46h-1.6v3h-1.7v-9.1H51
		c0.7,0,1.2,0,1.7,0.1c0.5,0.1,0.9,0.2,1.2,0.4c0.3,0.2,0.6,0.5,0.7,0.9C54.8,41.7,54.9,42.2,54.9,42.8z M71.1,41.6h-3.9v1.9h3v1.6
		h-3V49h-1.7v-9.1h5.6V41.6z"/>
</g>
</svg>
