<?xml version="1.0" encoding="utf-8"?>
<!-- Generator: Adobe Illustrator 19.1.0, SVG Export Plug-In . SVG Version: 6.00 Build 0)  -->
<svg version="1.1" id="Layer_1" xmlns="http://www.w3.org/2000/svg" xmlns:xlink="http://www.w3.org/1999/xlink" x="0px" y="0px"
	 viewBox="0 0 91.9 86.8" style="enable-background:new 0 0 91.9 86.8;" xml:space="preserve">
<style type="text/css">
	.st0{fill:#1D1D1B;}
	.st1{fill:none;stroke:#555759;stroke-miterlimit:10;}
	.st2{fill:none;stroke:#555759;stroke-miterlimit:10;stroke-dasharray:0.9994,0.9994;}
	.st3{fill:none;stroke:#555759;stroke-miterlimit:10;stroke-dasharray:1;}
	.st4{fill:#555759;}
	.st5{fill:#0E0F0F;}
	.st6{fill:#030104;}
	.st7{fill:#FFFFFF;}
	.st8{fill:#050505;}
</style>
<path d="M27.6,30L27.6,30c-4.5,0-7.4-3-7.4-6.9c0-3.9,3-6.9,7.6-6.9c4.5,0,7.4,3,7.4,6.9C35.1,27,32.2,30,27.6,30z M33.9,36.3V75
	H21.4V36.3H33.9z M53.9,75H41.4V45c0,0-0.2-7.4-0.2-8.8h12.3l0.4,5.4c2.5-3.8,6.2-6.6,11.2-6.6c8.8,0,15,6.2,15,17.5V75H67.6V53.8
	c0-6.3-3-8.8-6.8-8.8c-3.8,0-6.9,2.5-6.9,7.5V75z"/>
</svg>
