<?xml version="1.0" encoding="utf-8"?>
<!-- Generator: Adobe Illustrator 19.1.0, SVG Export Plug-In . SVG Version: 6.00 Build 0)  -->
<svg version="1.1" id="Layer_1" xmlns="http://www.w3.org/2000/svg" xmlns:xlink="http://www.w3.org/1999/xlink" x="0px" y="0px"
	 viewBox="0 0 91.9 86.8" style="enable-background:new 0 0 91.9 86.8;" xml:space="preserve">
<style type="text/css">
	.st0{fill:#1D1D1B;}
	.st1{fill:none;stroke:#555759;stroke-miterlimit:10;}
	.st2{fill:none;stroke:#555759;stroke-miterlimit:10;stroke-dasharray:0.9994,0.9994;}
	.st3{fill:none;stroke:#555759;stroke-miterlimit:10;stroke-dasharray:1;}
	.st4{fill:#555759;}
	.st5{fill:#0E0F0F;}
	.st6{fill:#030104;}
	.st7{fill:#FFFFFF;}
	.st8{fill:#050505;}
</style>
<g>
	<path d="M49.8,50.5h-0.8c-0.3-1.1-0.7-2.4-1.4-3.7c-2.3-4.3-6.4-6.6-11.4-6.6c-5.1,0-9.2,2.3-11.4,6.6c-0.7,1.4-1.1,2.8-1.4,3.9
		c-5.4,1-9.1,5.2-9.1,10.8c0,5.7,4,10.1,9.5,10.9c0.3,0.1,0.6,0.1,0.9,0.1h25c6.6,0,11.5-4.8,11.5-11.1
		C61.4,55.1,56.5,50.5,49.8,50.5L49.8,50.5z M49.8,67H25.9c-4.1,0-6-2.8-6-5.5c0-3.3,2.4-5.5,6-5.5c1.5,0,2.7-1.2,2.8-2.7
		c0,0,0.1-2.1,1.2-4.1c1.2-2.3,3.4-3.5,6.4-3.5c3,0,5.2,1.2,6.5,3.5c1.1,2,1.2,4.1,1.2,4.1c0.1,1.5,1.3,2.6,2.8,2.6h3.1
		c3.6,0,6,2.2,6,5.5C55.8,64.2,54,67,49.8,67L49.8,67z M49.8,67"/>
	<path d="M68.8,43.1h-0.4c-0.2-0.8-0.5-1.6-1-2.5c-1.6-3-4.5-4.7-8.1-4.7c-0.5,0-0.9,0-1.4,0.1c-0.8-5.9-5.8-10.5-12-10.5
		c-5.6,0-10.4,3.8-11.7,9.3c-0.3,1.1,0.4,2.2,1.5,2.5c1.1,0.3,2.2-0.4,2.5-1.5c0.8-3.6,4-6.1,7.7-6.1c4.4,0,7.9,3.5,7.9,7.9
		c-1.1,0.8-2,1.8-2.6,3.1C50,42.8,50,44.8,50,45.1c0,1.1,0.8,2.1,2,2.1c1.1,0.1,2.1-0.8,2.1-2c0.1-0.9,0.5-5.2,5.1-5.2
		c4.7,0,5.2,4.4,5.2,5.2c0.1,1.1,1,2,2.1,2h2.1c2.4,0,4,1.5,4,3.7c0,1.8-1.2,3.7-4,3.7h-2.5c-1.2,0-2.1,0.9-2.1,2.1
		c0,1.2,0.9,2.1,2.1,2.1h2.5c4.6,0,8.2-3.4,8.2-7.8C77,46.4,73.5,43.1,68.8,43.1L68.8,43.1z M68.8,43.1"/>
	<path d="M46,21.2c1.2,0,2.1-0.9,2.1-2.1v-4.5c0-1.2-0.9-2.1-2.1-2.1c-1.2,0-2.1,0.9-2.1,2.1v4.5C44,20.3,44.9,21.2,46,21.2L46,21.2
		z M46,21.2"/>
	<path d="M23.1,39.6h4.5c1.2,0,2.1-0.9,2.1-2.1c0-1.2-0.9-2.1-2.1-2.1h-4.5c-1.2,0-2.1,0.9-2.1,2.1C21,38.7,21.9,39.6,23.1,39.6
		L23.1,39.6z M23.1,39.6"/>
	<path d="M59.1,26.6c0.5,0,1-0.2,1.5-0.6l3.2-3.2c0.8-0.8,0.8-2.1,0-2.9c-0.8-0.8-2.1-0.8-2.9,0l-3.2,3.2c-0.8,0.8-0.8,2.1,0,2.9
		C58,26.4,58.5,26.6,59.1,26.6L59.1,26.6z M59.1,26.6"/>
	<path d="M31.5,26c0.4,0.4,1,0.6,1.5,0.6c0.6,0,1-0.2,1.5-0.6c0.8-0.8,0.8-2.1,0-2.9l-3.2-3.2c-0.8-0.8-2.1-0.8-2.9,0
		c-0.8,0.8-0.8,2.1,0,2.9L31.5,26z M31.5,26"/>
</g>
</svg>
