<?xml version="1.0" encoding="utf-8"?>
<!-- Generator: Adobe Illustrator 19.1.0, SVG Export Plug-In . SVG Version: 6.00 Build 0)  -->
<svg version="1.1" id="Layer_1" xmlns="http://www.w3.org/2000/svg" xmlns:xlink="http://www.w3.org/1999/xlink" x="0px" y="0px"
	 viewBox="0 0 91.9 86.8" style="enable-background:new 0 0 91.9 86.8;" xml:space="preserve">
<style type="text/css">
	.st0{fill:#1D1D1B;}
	.st1{fill:none;stroke:#555759;stroke-miterlimit:10;}
	.st2{fill:none;stroke:#555759;stroke-miterlimit:10;stroke-dasharray:0.9994,0.9994;}
	.st3{fill:none;stroke:#555759;stroke-miterlimit:10;stroke-dasharray:1;}
	.st4{fill:#555759;}
	.st5{fill:#0E0F0F;}
	.st6{fill:#030104;}
	.st7{fill:#FFFFFF;}
	.st8{fill:#050505;}
</style>
<path d="M35.7,21.9c-2.7,4-4.4,8.8-4.4,14c0,13.6,11,24.6,24.6,24.6c4.1,0,8-1,11.4-2.8C62.8,64,55.4,68.2,47,68.2
	c-13.6,0-24.6-11-24.6-24.6C22.5,34.2,27.8,26,35.7,21.9 M67.3,57.6L67.3,57.6 M35.7,15c-1.1,0-2.1,0.3-3.1,0.8
	c-10.4,5.4-16.9,16.1-16.9,27.8C15.6,61,29.7,75,47,75c10.2,0,19.8-5,25.7-13.4c0.8-1.1,1.3-2.5,1.3-4c0-3.7-2.9-6.7-6.6-6.8
	c-0.1,0-0.1,0-0.2,0c-0.2,0-0.5,0-0.7,0c-0.9,0.1-1.7,0.4-2.5,0.8c-2.5,1.3-5.3,2-8.1,2c-9.8,0-17.8-8-17.8-17.8
	c0-3.6,1.1-7.1,3.1-10.1c1.8-2.6,1.6-6-0.5-8.4C39.5,15.8,37.6,15,35.7,15L35.7,15z"/>
</svg>
