<?xml version="1.0" encoding="utf-8"?>
<!-- Generator: Adobe Illustrator 19.1.0, SVG Export Plug-In . SVG Version: 6.00 Build 0)  -->
<svg version="1.1" id="Layer_1" xmlns="http://www.w3.org/2000/svg" xmlns:xlink="http://www.w3.org/1999/xlink" x="0px" y="0px"
	 viewBox="0 0 91.9 86.8" style="enable-background:new 0 0 91.9 86.8;" xml:space="preserve">
<style type="text/css">
	.st0{fill:#1D1D1B;}
	.st1{fill:none;stroke:#555759;stroke-miterlimit:10;}
	.st2{fill:none;stroke:#555759;stroke-miterlimit:10;stroke-dasharray:0.9994,0.9994;}
	.st3{fill:none;stroke:#555759;stroke-miterlimit:10;stroke-dasharray:1;}
	.st4{fill:#555759;}
	.st5{fill:#0E0F0F;}
	.st6{fill:#030104;}
	.st7{fill:#FFFFFF;}
	.st8{fill:#050505;}
</style>
<g>
	<path d="M51,51.8c-0.4-0.1-2.7-1.2-1.3-5.6h0c3.8-3.9,6.7-10.3,6.7-16.5c0-9.6-6.4-14.6-13.8-14.6c-7.4,0-13.7,5-13.7,14.6
		c0,6.3,2.9,12.6,6.7,16.5c1.5,3.9-1.2,5.4-1.7,5.6c-7.8,2.8-16.8,7.9-16.8,13v1.9c0,6.9,13.3,8.4,25.7,8.4
		c12.4,0,25.5-1.6,25.5-8.4v-1.9C68.3,59.5,59.2,54.5,51,51.8L51,51.8z M51,51.8"/>
</g>
</svg>
