<?xml version="1.0" encoding="utf-8"?>
<!-- Generator: Adobe Illustrator 19.1.0, SVG Export Plug-In . SVG Version: 6.00 Build 0)  -->
<svg version="1.1" id="Layer_1" xmlns="http://www.w3.org/2000/svg" xmlns:xlink="http://www.w3.org/1999/xlink" x="0px" y="0px"
	 viewBox="0 0 100.9 86.8" style="enable-background:new 0 0 100.9 86.8;" xml:space="preserve">
<style type="text/css">
	.st0{fill:#1D1D1B;}
	.st1{fill:none;stroke:#555759;stroke-miterlimit:10;}
	.st2{fill:none;stroke:#555759;stroke-miterlimit:10;stroke-dasharray:0.9994,0.9994;}
	.st3{fill:none;stroke:#555759;stroke-miterlimit:10;stroke-dasharray:1;}
	.st4{fill:#555759;}
	.st5{fill:#0E0F0F;}
	.st6{fill:#030104;}
	.st7{fill:#FFFFFF;}
	.st8{fill:#050505;}
</style>
<g>
	<path class="st8" d="M53.5,32.7H31.3c-1.6,0-2.9,1.3-2.9,2.9v36.7c0,1.6,1.3,2.9,2.9,2.9h22.2c1.6,0,2.9-1.3,2.9-2.9V35.5
		C56.4,33.9,55.1,32.7,53.5,32.7L53.5,32.7z M32.4,37.9c0-0.4,0.3-0.7,0.7-0.7h18.6c0.4,0,0.7,0.3,0.7,0.7v27c0,0.4-0.3,0.7-0.7,0.7
		H33.2c-0.4,0-0.7-0.3-0.7-0.7V37.9z M37.8,70.7c0,0.4-0.3,0.7-0.7,0.7h-4.9c-0.4,0-0.7-0.3-0.7-0.7v-1.2c0-0.4,0.3-0.7,0.7-0.7h4.9
		c0.4,0,0.7,0.3,0.7,0.7V70.7z M42.4,72.1c-1.1,0-2-0.9-2-2c0-1.1,0.9-2,2-2c1.1,0,2,0.9,2,2C44.4,71.2,43.5,72.1,42.4,72.1
		L42.4,72.1z M53.4,70.7c0,0.4-0.3,0.7-0.7,0.7h-4.9c-0.4,0-0.7-0.3-0.7-0.7v-1.2c0-0.4,0.3-0.7,0.7-0.7h4.9c0.4,0,0.7,0.3,0.7,0.7
		V70.7z M53.4,70.7"/>
	<path class="st8" d="M54.4,23.3c-1.1,0-2,0.9-2,2c0,1.1,0.9,2,2,2c2.2,0,4.3,0.9,5.9,2.4c1.6,1.6,2.4,3.7,2.4,5.9c0,1.1,0.9,2,2,2
		c1.1,0,2-0.9,2-2c0-3.3-1.3-6.4-3.6-8.7C60.8,24.6,57.7,23.3,54.4,23.3L54.4,23.3z M54.4,23.3"/>
	<path class="st8" d="M54.4,15c-1.1,0-2,0.9-2,2c0,1.1,0.9,2,2,2C63.5,19,71,26.5,71,35.6c0,1.1,0.9,2,2,2c1.1,0,2-0.9,2-2
		C75,24.3,65.7,15,54.4,15L54.4,15z M54.4,15"/>
</g>
</svg>
