<?xml version="1.0" encoding="utf-8"?>
<!-- Generator: Adobe Illustrator 19.1.0, SVG Export Plug-In . SVG Version: 6.00 Build 0)  -->
<svg version="1.1" id="Layer_1" xmlns="http://www.w3.org/2000/svg" xmlns:xlink="http://www.w3.org/1999/xlink" x="0px" y="0px"
	 viewBox="0 0 91.9 86.8" style="enable-background:new 0 0 91.9 86.8;" xml:space="preserve">
<style type="text/css">
	.st0{fill:#1D1D1B;}
	.st1{fill:none;stroke:#555759;stroke-miterlimit:10;}
	.st2{fill:none;stroke:#555759;stroke-miterlimit:10;stroke-dasharray:0.9994,0.9994;}
	.st3{fill:none;stroke:#555759;stroke-miterlimit:10;stroke-dasharray:1;}
	.st4{fill:#555759;}
	.st5{fill:#0E0F0F;}
	.st6{fill:#030104;}
	.st7{fill:#FFFFFF;}
	.st8{fill:#050505;}
</style>
<g>
	<path d="M75.6,46c0,16.6-13.4,30-30,30s-30-13.4-30-30s13.4-30,30-30S75.6,29.4,75.6,46z M68.1,35.1c-1.5,0.6-3.2,1.1-4.9,1.3
		c1.8-1.1,3-2.7,3.7-4.7c-1.7,1-3.4,1.7-5.3,2.1C60,32.1,57.8,31,55.3,31c-4.7,0-8.5,3.8-8.5,8.6c0,0.6,0.1,1.3,0.2,1.9
		c-7.1-0.4-13.4-3.8-17.6-9c-0.7,1.3-1.1,2.8-1.1,4.3c0,3,1.5,5.6,3.8,7.1c-1.4,0-2.7-0.4-3.8-1.1V43c0,4.2,2.9,7.6,6.8,8.4
		c-0.7,0.2-1.5,0.3-2.2,0.3c-0.6,0-1.1-0.1-1.6-0.1c1.1,3.4,4.2,5.7,7.9,5.8c-2.9,2.3-6.5,3.9-10.6,3.9c-0.7,0-1.4-0.1-2-0.1
		c3.8,2.4,8.3,3.8,13,3.8c15.7,0,24.2-13,24.2-24.2v-1.1C65.5,38.3,66.9,36.7,68.1,35.1z"/>
</g>
</svg>
