<?xml version="1.0" encoding="utf-8"?>
<!-- Generator: Adobe Illustrator 19.1.0, SVG Export Plug-In . SVG Version: 6.00 Build 0)  -->
<svg version="1.1" id="Layer_1" xmlns="http://www.w3.org/2000/svg" xmlns:xlink="http://www.w3.org/1999/xlink" x="0px" y="0px"
	 viewBox="0 0 91.9 86.8" style="enable-background:new 0 0 91.9 86.8;" xml:space="preserve">
<style type="text/css">
	.st0{fill:#1D1D1B;}
	.st1{fill:none;stroke:#555759;stroke-miterlimit:10;}
	.st2{fill:none;stroke:#555759;stroke-miterlimit:10;stroke-dasharray:0.9994,0.9994;}
	.st3{fill:none;stroke:#555759;stroke-miterlimit:10;stroke-dasharray:1;}
	.st4{fill:#555759;}
	.st5{fill:#0E0F0F;}
	.st6{fill:#030104;}
	.st7{fill:#FFFFFF;}
	.st8{fill:#050505;}
</style>
<g>
	<path d="M43.1,21.8c12.8,0,23.2,10.4,23.2,23.2c0,12.8-10.4,23.2-23.2,23.2c-12.8,0-23.2-10.4-23.2-23.2
		C19.9,32.2,30.4,21.8,43.1,21.8 M43.1,15.9C27.1,15.9,14,29,14,45c0,16.1,13,29.1,29.1,29.1c16.1,0,29.1-13,29.1-29.1
		C72.3,29,59.2,15.9,43.1,15.9L43.1,15.9z"/>
	<g>
		<circle cx="33.8" cy="40.1" r="4"/>
		<circle cx="52.5" cy="40.1" r="4"/>
	</g>
	<path d="M57.5,52.1c0.7,1.1,0.1,2.7-1.4,3.4c-8.2,4-17.8,4-26,0c-1.5-0.7-2-2.3-1.4-3.4l0,0c0.7-1.1,2.2-1.4,3.4-0.8
		c6.9,3.4,15.1,3.4,22,0C55.4,50.7,56.8,51,57.5,52.1L57.5,52.1z"/>
</g>
</svg>
