<?xml version="1.0" encoding="utf-8"?>
<!-- Generator: Adobe Illustrator 19.1.0, SVG Export Plug-In . SVG Version: 6.00 Build 0)  -->
<svg version="1.1" id="Layer_1" xmlns="http://www.w3.org/2000/svg" xmlns:xlink="http://www.w3.org/1999/xlink" x="0px" y="0px"
	 viewBox="0 0 91.9 86.8" style="enable-background:new 0 0 91.9 86.8;" xml:space="preserve">
<style type="text/css">
	.st0{fill:#1D1D1B;}
	.st1{fill:none;stroke:#555759;stroke-miterlimit:10;}
	.st2{fill:none;stroke:#555759;stroke-miterlimit:10;stroke-dasharray:0.9994,0.9994;}
	.st3{fill:none;stroke:#555759;stroke-miterlimit:10;stroke-dasharray:1;}
	.st4{fill:#555759;}
	.st5{fill:#0E0F0F;}
	.st6{fill:#030104;}
	.st7{fill:#FFFFFF;}
	.st8{fill:#050505;}
</style>
<g id="d6DuK7.tif">
	<g>
		<path class="st0" d="M43.7,28.5C25,30.8,15,46.8,15.4,60.1c1.9,0,3.8,0,5.7,0c0.5-16,12.3-25.1,20.6-26.3
			c-4.6,2.9-8,6.7-10.4,11.4c-2.4,4.7-3.5,9.7-3.3,14.9c17,0,33.8,0,50.7,0c0-5.7-1.3-10.9-4.2-15.7C69.2,35.1,61.1,30,50.5,28.5
			c0-2.3,0-4.5,0-6.8c1,0,2,0,2.9,0c2.1,0,3.6-1.4,3.7-3.3c0-2-1.5-3.4-3.7-3.4c-4.2,0-8.5,0-12.7,0c-2.1,0-3.6,1.4-3.6,3.3
			c0,1.9,1.5,3.3,3.6,3.3c1,0,2,0,3,0C43.7,24.1,43.7,26.3,43.7,28.5z M47.1,65c-3.7,0-7.4,0-11,0c-7.4,0-14.9,0-22.3,0
			c-2.9,0-5,2.2-5.1,5c0,2.9,2.2,5,5.2,5c13.5,0,27.1,0,40.6,0c8.6,0,17.2,0,25.8,0c2.3,0,4.1-1.3,4.8-3.3c1.2-3.3-1.2-6.7-4.8-6.7
			C69.3,65,58.2,65,47.1,65z"/>
		<path class="st0" d="M43.7,28.5c0-2.3,0-4.5,0-6.8c-1,0-2,0-3,0c-2.1,0-3.6-1.4-3.6-3.3c0-1.9,1.5-3.3,3.6-3.3c4.2,0,8.5,0,12.7,0
			c2.2,0,3.7,1.4,3.7,3.4c0,1.9-1.5,3.3-3.7,3.3c-1,0-1.9,0-2.9,0c0,2.3,0,4.5,0,6.8c10.5,1.5,18.7,6.6,24.2,15.9
			c2.8,4.8,4.2,10.1,4.2,15.7c-16.9,0-33.8,0-50.7,0c-0.2-5.3,0.9-10.2,3.3-14.9c2.4-4.7,5.8-8.5,10.4-11.4
			C33.5,35,21.7,44.1,21.2,60.1c-1.9,0-3.8,0-5.7,0C15,46.8,25,30.8,43.7,28.5z"/>
		<path class="st0" d="M47.1,65c11.1,0,22.2,0,33.3,0c3.6,0,6,3.4,4.8,6.7c-0.7,2-2.6,3.3-4.8,3.3c-8.6,0-17.2,0-25.8,0
			C41,75,27.5,75,14,75c-3,0-5.2-2.1-5.2-5c0-2.8,2.2-5,5.1-5c7.4,0,14.9,0,22.3,0C39.8,65,43.4,65,47.1,65z"/>
	</g>
</g>
</svg>
