<?xml version="1.0" encoding="utf-8"?>
<!-- Generator: Adobe Illustrator 19.1.0, SVG Export Plug-In . SVG Version: 6.00 Build 0)  -->
<svg version="1.1" id="Layer_1" xmlns="http://www.w3.org/2000/svg" xmlns:xlink="http://www.w3.org/1999/xlink" x="0px" y="0px"
	 viewBox="0 0 98.9 86.8" style="enable-background:new 0 0 98.9 86.8;" xml:space="preserve">
<style type="text/css">
	.st0{fill:#1D1D1B;}
	.st1{fill:none;stroke:#555759;stroke-miterlimit:10;}
	.st2{fill:none;stroke:#555759;stroke-miterlimit:10;stroke-dasharray:0.9994,0.9994;}
	.st3{fill:none;stroke:#555759;stroke-miterlimit:10;stroke-dasharray:1;}
	.st4{fill:#555759;}
	.st5{fill:#0E0F0F;}
	.st6{fill:#030104;}
	.st7{fill:#FFFFFF;}
	.st8{fill:#050505;}
</style>
<g>
	<path d="M49.9,36.7c3,0,5.4-2.4,5.4-5.4V20.4c0-3-2.4-5.4-5.4-5.4c-3,0-5.4,2.4-5.4,5.4v10.9C44.5,34.4,46.9,36.7,49.9,36.7
		L49.9,36.7z M49.9,36.7"/>
	<path d="M81.5,49.6c1.3,0,2.7-0.5,3.8-1.6l7.8-7.8c2.2-2.2,2.2-5.5,0-7.7c-2.2-2.1-5.5-2.1-7.7,0l-7.8,7.8c-2.2,2.2-2.2,5.5,0,7.7
		C78.8,49,80.1,49.6,81.5,49.6L81.5,49.6z M81.5,49.6"/>
	<path d="M14.5,48c0.9,1.1,2.4,1.6,3.8,1.6c1.3,0,2.7-0.5,3.8-1.6c2.1-2.2,2.1-5.5,0-7.7l-7.8-7.8c-2.2-2.1-5.5-2.1-7.7,0
		c-2.1,2.2-2.1,5.5,0,7.7L14.5,48z M14.5,48"/>
	<path d="M25.2,74.9c2.8,0.8,5.8-0.9,6.6-3.9c2.2-8.3,9.7-14.1,18.3-14.1c8.6,0,16.1,5.8,18.3,14.1c0.7,2.4,2.8,4,5.2,4
		c0.4,0,0.9,0,1.3-0.1c2.8-0.8,4.6-3.6,3.9-6.6c-3.4-13-15.2-22.2-28.6-22.2c-13.4,0-25.3,9.1-28.6,22.2
		C20.4,71.2,22.2,74.2,25.2,74.9L25.2,74.9z M25.2,74.9"/>
</g>
</svg>
