<?xml version="1.0" encoding="utf-8"?>
<!-- Generator: Adobe Illustrator 19.1.0, SVG Export Plug-In . SVG Version: 6.00 Build 0)  -->
<svg version="1.1" id="Layer_1" xmlns="http://www.w3.org/2000/svg" xmlns:xlink="http://www.w3.org/1999/xlink" x="0px" y="0px"
	 viewBox="0 0 91.9 86.8" style="enable-background:new 0 0 91.9 86.8;" xml:space="preserve">
<style type="text/css">
	.st0{fill:#1D1D1B;}
	.st1{fill:none;stroke:#555759;stroke-miterlimit:10;}
	.st2{fill:none;stroke:#555759;stroke-miterlimit:10;stroke-dasharray:0.9994,0.9994;}
	.st3{fill:none;stroke:#555759;stroke-miterlimit:10;stroke-dasharray:1;}
	.st4{fill:#555759;}
	.st5{fill:#0E0F0F;}
	.st6{fill:#030104;}
	.st7{fill:#FFFFFF;}
	.st8{fill:#050505;}
</style>
<g id="XMLID_29_">
	<path id="XMLID_223_" d="M63,69.2L52.7,58.9c-0.2-0.2-0.5-0.2-0.7,0l-1,1l-3.8-3.8c3.1-4.5,2.6-10.7-1.4-14.7
		c-4.5-4.5-11.8-4.5-16.3,0c-4.5,4.5-4.5,11.8,0,16.3c4,4,10.2,4.4,14.7,1.4l3.8,3.8l-1,1c-0.2,0.2-0.2,0.5,0,0.7L57.3,75
		c0.2,0.2,1.8,1.8,4.7-1.1C64.8,71.1,63.2,69.4,63,69.2z M43.3,55.2c-3.1,3.1-8.2,3.1-11.3,0c-3.1-3.1-3.1-8.2,0-11.3
		c3.1-3.1,8.2-3.1,11.3,0C46.4,47,46.4,52.1,43.3,55.2z"/>
	<path id="XMLID_224_" d="M47.2,40c4.2,4.2,5.1,10.6,2.5,15.8l0.3,0.3c6.4-1,11.3-6.3,11.3-12.7c0-8.6-13.6-27.8-13.6-27.8
		S39.7,27,36,36.1c0.5-0.1,1.1-0.1,1.6-0.1C41.2,36,44.6,37.4,47.2,40z"/>
</g>
</svg>
