<?xml version="1.0" encoding="utf-8"?>
<!-- Generator: Adobe Illustrator 19.1.0, SVG Export Plug-In . SVG Version: 6.00 Build 0)  -->
<svg version="1.1" id="Layer_1" xmlns="http://www.w3.org/2000/svg" xmlns:xlink="http://www.w3.org/1999/xlink" x="0px" y="0px"
	 viewBox="0 0 91.9 86.8" style="enable-background:new 0 0 91.9 86.8;" xml:space="preserve">
<style type="text/css">
	.st0{fill:#1D1D1B;}
	.st1{fill:none;stroke:#555759;stroke-miterlimit:10;}
	.st2{fill:none;stroke:#555759;stroke-miterlimit:10;stroke-dasharray:0.9994,0.9994;}
	.st3{fill:none;stroke:#555759;stroke-miterlimit:10;stroke-dasharray:1;}
	.st4{fill:#555759;}
	.st5{fill:#0E0F0F;}
	.st6{fill:#030104;}
	.st7{fill:#FFFFFF;}
	.st8{fill:#050505;}
</style>
<g>
	<g>
		<path d="M16.9,16.9L34.6,71c0.5,1.6,2.8,1.7,3.4,0l5.8-16.7c0.5-1.5,2.4-1.9,3.6-0.8l17.3,17.3c1.4,1.4,3.7,1.4,5.1,0l5.6-5.6
			c1.4-1.4,1.4-3.7,0-5.1L58,42.8c-1.1-1.1-0.7-3,0.8-3.6l16.7-5.8c1.6-0.6,1.6-2.9,0-3.4L21.4,12.4C18.7,11.5,16,14.1,16.9,16.9
			L16.9,16.9z M16.9,16.9"/>
	</g>
</g>
</svg>
