<?xml version="1.0" encoding="utf-8"?>
<!-- Generator: Adobe Illustrator 19.1.0, SVG Export Plug-In . SVG Version: 6.00 Build 0)  -->
<svg version="1.1" id="Layer_1" xmlns="http://www.w3.org/2000/svg" xmlns:xlink="http://www.w3.org/1999/xlink" x="0px" y="0px"
	 viewBox="0 0 91.9 82.4" style="enable-background:new 0 0 91.9 82.4;" xml:space="preserve">
<style type="text/css">
	.st0{fill:#1D1D1B;}
	.st1{fill:none;stroke:#555759;stroke-miterlimit:10;}
	.st2{fill:none;stroke:#555759;stroke-miterlimit:10;stroke-dasharray:0.9994,0.9994;}
	.st3{fill:none;stroke:#555759;stroke-miterlimit:10;stroke-dasharray:1;}
	.st4{fill:#555759;}
	.st5{fill:#0E0F0F;}
	.st6{fill:#030104;}
	.st7{fill:#FFFFFF;}
	.st8{fill:#050505;}
</style>
<path class="st0" d="M70.9,36.2h-7.1V18.3l-9.4-9.4H23.8c-2.9,0-5.2,2.3-5.2,5.2v48.3c0,2.9,2.3,5.2,5.2,5.2h34.8
	c2.9,0,5.2-2.3,5.2-5.2v-10h7.1c2.1,0,3.9-1.7,3.9-3.9v-8.5C74.8,38,73.1,36.2,70.9,36.2z M54.6,41.6v-1.6h6.8v1.6h-2.6V49h-1.7
	v-7.5H54.6z M61.3,62.5c0,1.4-1.2,2.6-2.6,2.6H23.8c-1.4,0-2.6-1.2-2.6-2.6V14.1c0-1.4,1.2-2.6,2.6-2.6h28.4v8.3
	c0,0.4,0.3,0.6,0.6,0.6h8.3v15.7H45.9c-2.1,0-3.9,1.7-3.9,3.9v8.5c0,2.1,1.7,3.9,3.9,3.9h15.4V62.5z M47.4,45.1V49h-1.7v-9.1h1.7
	v3.5h4.3v-3.5h1.7V49h-1.7v-3.9H47.4z M69.7,49L69,42.9l-2.3,4.2L64.3,43L63.5,49h-1.7l1.3-9.1h1.4l2.2,4.1l2.2-4.1h1.4l1.3,9.1
	H69.7z"/>
</svg>
