<?xml version="1.0" encoding="utf-8"?>
<!-- Generator: Adobe Illustrator 19.1.0, SVG Export Plug-In . SVG Version: 6.00 Build 0)  -->
<svg version="1.1" id="Layer_1" xmlns="http://www.w3.org/2000/svg" xmlns:xlink="http://www.w3.org/1999/xlink" x="0px" y="0px"
	 viewBox="0 0 98.9 86.8" style="enable-background:new 0 0 98.9 86.8;" xml:space="preserve">
<style type="text/css">
	.st0{fill:#1D1D1B;}
	.st1{fill:none;stroke:#555759;stroke-miterlimit:10;}
	.st2{fill:none;stroke:#555759;stroke-miterlimit:10;stroke-dasharray:0.9994,0.9994;}
	.st3{fill:none;stroke:#555759;stroke-miterlimit:10;stroke-dasharray:1;}
	.st4{fill:#555759;}
	.st5{fill:#0E0F0F;}
	.st6{fill:#030104;}
	.st7{fill:#FFFFFF;}
	.st8{fill:#050505;}
</style>
<g>
	<g>
		<path d="M51.2,8.5L27.7,21.3l1-0.3l28.1-7.1l-2.4-4.4C53.9,8.3,52.4,7.9,51.2,8.5L51.2,8.5z M51.2,8.5"/>
	</g>
	<path d="M73.6,21.9l-1.8-7c-0.3-1.1-1.2-1.8-2.3-1.8c-0.2,0-0.4,0-0.6,0.1l-10.9,2.8l-23.7,6L73.6,21.9L73.6,21.9z M73.6,21.9"/>
	<path d="M57.6,52.1v-12c0-2.5,2-4.5,4.5-4.5h18v-9.2c0-1.3-1.1-2.4-2.4-2.4H22.7c-0.9,0-1.6,0.5-2.1,1.2c-0.2,0.4-0.3,0.8-0.3,1.2
		v39.6c0,1.3,1.1,2.4,2.4,2.4h55.1c1.3,0,2.4-1.1,2.4-2.4v-9.2h-18C59.6,56.6,57.6,54.6,57.6,52.1L57.6,52.1z M57.6,52.1"/>
	<path d="M82.2,38c-0.3-0.2-0.7-0.3-1-0.3c-0.1,0-0.1,0-0.2,0H62.1c-1.3,0-2.4,1.1-2.4,2.4v12c0,1.3,1.1,2.4,2.4,2.4H81
		c0.1,0,0.1,0,0.2,0c0.4,0,0.7-0.1,1-0.3c0.7-0.4,1.2-1.2,1.2-2.1v-12C83.4,39.2,82.9,38.5,82.2,38L82.2,38z M68.1,50
		c-2.1,0-3.9-1.7-3.9-3.9c0-2.1,1.7-3.9,3.9-3.9c2.1,0,3.9,1.7,3.9,3.9C71.9,48.2,70.2,50,68.1,50L68.1,50z M68.1,50"/>
</g>
</svg>
