<?xml version="1.0" encoding="utf-8"?>
<!-- Generator: Adobe Illustrator 19.1.0, SVG Export Plug-In . SVG Version: 6.00 Build 0)  -->
<svg version="1.1" id="Layer_1" xmlns="http://www.w3.org/2000/svg" xmlns:xlink="http://www.w3.org/1999/xlink" x="0px" y="0px"
	 viewBox="0 0 91.9 86.8" style="enable-background:new 0 0 91.9 86.8;" xml:space="preserve">
<style type="text/css">
	.st0{fill:#1D1D1B;}
	.st1{fill:none;stroke:#555759;stroke-miterlimit:10;}
	.st2{fill:none;stroke:#555759;stroke-miterlimit:10;stroke-dasharray:0.9994,0.9994;}
	.st3{fill:none;stroke:#555759;stroke-miterlimit:10;stroke-dasharray:1;}
	.st4{fill:#555759;}
	.st5{fill:#0E0F0F;}
	.st6{fill:#030104;}
	.st7{fill:#FFFFFF;}
	.st8{fill:#050505;}
</style>
<g>
	<path d="M47.1,20.8C60.3,20.8,71,31.5,71,44.7c0,13.2-10.7,23.9-23.9,23.9c-13.2,0-23.9-10.7-23.9-23.9
		C23.2,31.5,34,20.8,47.1,20.8 M47.1,14.7c-16.6,0-30,13.4-30,30c0,16.6,13.4,30,30,30c16.6,0,30-13.4,30-30
		C77.1,28.1,63.7,14.7,47.1,14.7L47.1,14.7z"/>
	<path d="M61.8,40.6c-0.9,0.6-2.2,0.4-3.1-0.3c-1.7-1.3-3.8-1.9-5.9-1.7c-1.1,0.1-2.3-0.4-2.8-1.4l0,0c-0.4-1,0.6-2.4,2.4-2.5
		c3.1-0.3,6.2,0.6,8.6,2.5C62.6,38.3,62.7,40,61.8,40.6L61.8,40.6z"/>
	<path d="M53.7,56.4c0,1.3-2.9,2.4-6.5,2.4c-3.6,0-6.5-1.1-6.5-2.4c0-1.3,2.9-7.3,6.5-7.3C50.7,49.1,53.7,55,53.7,56.4z"/>
	<path d="M32,40.6c0.9,0.6,2.2,0.4,3.1-0.3c1.7-1.3,3.8-1.9,5.9-1.7c1.1,0.1,2.3-0.4,2.8-1.4l0,0c0.4-1-0.6-2.4-2.4-2.5
		c-3.1-0.3-6.2,0.6-8.6,2.5C31.3,38.3,31.2,40,32,40.6L32,40.6z"/>
	<path d="M65.5,48.1c-0.1,2-1.6,3.3-3,3c-1.4-0.4-2.2-1.8-2.2-3.2c0.2-1.3,2.2-4.9,2.2-5C62.5,42.7,65.7,45.9,65.5,48.1z"/>
</g>
</svg>
