<?xml version="1.0" encoding="utf-8"?>
<!-- Generator: Adobe Illustrator 19.1.0, SVG Export Plug-In . SVG Version: 6.00 Build 0)  -->
<svg version="1.1" id="Layer_1" xmlns="http://www.w3.org/2000/svg" xmlns:xlink="http://www.w3.org/1999/xlink" x="0px" y="0px"
	 viewBox="0 0 91.9 86.8" style="enable-background:new 0 0 91.9 86.8;" xml:space="preserve">
<style type="text/css">
	.st0{fill:#1D1D1B;}
	.st1{fill:none;stroke:#555759;stroke-miterlimit:10;}
	.st2{fill:none;stroke:#555759;stroke-miterlimit:10;stroke-dasharray:0.9994,0.9994;}
	.st3{fill:none;stroke:#555759;stroke-miterlimit:10;stroke-dasharray:1;}
	.st4{fill:#555759;}
	.st5{fill:#0E0F0F;}
	.st6{fill:#030104;}
	.st7{fill:#FFFFFF;}
	.st8{fill:#050505;}
</style>
<g>
	<path d="M45.9,13.7c-16.6,0-30,13.4-30,30c0,16.6,13.4,30,30,30c16.6,0,30-13.4,30-30S62.4,13.7,45.9,13.7z M49.6,68.5
		c-0.2-1.3-1.8-2.3-3.7-2.3c-1.9,0-3.5,1-3.7,2.3c-12.1-1.8-21.4-12.2-21.4-24.8c0-0.3,0-0.5,0-0.8c1.4,0.1,2.7-1.3,3.1-3.3
		c0.3-1.9-0.4-3.7-1.7-4.1c3.4-9.8,12.7-16.9,23.7-16.9c11,0,20.3,7.1,23.7,16.9c-1.3,0.5-2,2.2-1.7,4.1c0.3,1.9,1.7,3.3,3,3.3
		c0,0.3,0,0.5,0,0.8C70.9,56.2,61.7,66.7,49.6,68.5z"/>
	<path d="M45.9,35.6c-5.1,0-9.3,4.2-9.3,9.3s4.2,9.3,9.3,9.3c5.1,0,9.3-4.2,9.3-9.3S51,35.6,45.9,35.6z M45.9,52.7
		c-4.3,0-7.8-3.5-7.8-7.8s3.5-7.8,7.8-7.8s7.8,3.5,7.8,7.8S50.2,52.7,45.9,52.7z"/>
	<circle cx="45.9" cy="44.9" r="6.6"/>
	<path d="M42.6,54.7l1.4,11c0.5-0.2,1.1-0.4,1.8-0.4c0.7,0,1.3,0.1,1.8,0.4l1.4-11c-1,0.3-2.1,0.5-3.3,0.5S43.6,55.1,42.6,54.7z"/>
	<path d="M36.8,39.9l-12.3-1.8c0.1,0.6,0.2,1.2,0.1,1.8c-0.1,0.7-0.4,1.2-0.7,1.7l11.8,4.6c-0.2-1.1-0.2-2.2,0-3.3
		C36,41.9,36.3,40.8,36.8,39.9z"/>
	<path d="M67.2,37.7l-12.3,2.1c0.5,1,0.9,2,1.1,3.1c0.2,1.1,0.2,2.2,0,3.3l11.8-5c-0.3-0.5-0.6-1.1-0.7-1.7S67.1,38.3,67.2,37.7z"/>
</g>
</svg>
