<?xml version="1.0" encoding="utf-8"?>
<!-- Generator: Adobe Illustrator 19.1.0, SVG Export Plug-In . SVG Version: 6.00 Build 0)  -->
<svg version="1.1" id="Layer_1" xmlns="http://www.w3.org/2000/svg" xmlns:xlink="http://www.w3.org/1999/xlink" x="0px" y="0px"
	 viewBox="0 0 91.9 86.8" style="enable-background:new 0 0 91.9 86.8;" xml:space="preserve">
<style type="text/css">
	.st0{fill:#1D1D1B;}
	.st1{fill:none;stroke:#555759;stroke-miterlimit:10;}
	.st2{fill:none;stroke:#555759;stroke-miterlimit:10;stroke-dasharray:0.9994,0.9994;}
	.st3{fill:none;stroke:#555759;stroke-miterlimit:10;stroke-dasharray:1;}
	.st4{fill:#555759;}
	.st5{fill:#0E0F0F;}
	.st6{fill:#030104;}
	.st7{fill:#FFFFFF;}
	.st8{fill:#050505;}
</style>
<path d="M72.9,45c0,16.6-13.4,30-30,30s-30-13.4-30-30s13.4-30,30-30S72.9,28.4,72.9,45z M61.6,36.8c0-4.2-2.6-6.7-5.9-6.7
	c-3.4,0-9.3,2-11,8.8c3.4-1.7,5.7,0.4,5.7,2.9c0,3.4-5.4,10.8-7.1,10.8c-1.7,0-3-6.5-3.7-10.8C39,37.5,38.8,30,33.7,30
	s-12.4,9.6-12.4,9.6l1.5,1.7c3.4-2.5,4.4-2,5,0l5,16.3c0.8,2.5,2.8,7.5,7.5,7.5C45.8,65,61.6,47.6,61.6,36.8z"/>
</svg>
