<?xml version="1.0" encoding="utf-8"?>
<!-- Generator: Adobe Illustrator 19.1.0, SVG Export Plug-In . SVG Version: 6.00 Build 0)  -->
<svg version="1.1" id="Layer_1" xmlns="http://www.w3.org/2000/svg" xmlns:xlink="http://www.w3.org/1999/xlink" x="0px" y="0px"
	 viewBox="0 0 91.9 86.8" style="enable-background:new 0 0 91.9 86.8;" xml:space="preserve">
<style type="text/css">
	.st0{fill:#1D1D1B;}
	.st1{fill:none;stroke:#555759;stroke-miterlimit:10;}
	.st2{fill:none;stroke:#555759;stroke-miterlimit:10;stroke-dasharray:0.9994,0.9994;}
	.st3{fill:none;stroke:#555759;stroke-miterlimit:10;stroke-dasharray:1;}
	.st4{fill:#555759;}
	.st5{fill:#0E0F0F;}
	.st6{fill:#030104;}
	.st7{fill:#FFFFFF;}
	.st8{fill:#050505;}
</style>
<g>
	<path d="M45.1,20C58.3,20,69,30.8,69,43.9c0,13.2-10.7,23.9-23.9,23.9c-13.2,0-23.9-10.7-23.9-23.9C21.2,30.8,32,20,45.1,20
		 M45.1,13.9c-16.6,0-30,13.4-30,30c0,16.6,13.4,30,30,30c16.6,0,30-13.4,30-30C75.1,27.4,61.7,13.9,45.1,13.9L45.1,13.9z"/>
	<g>
		<circle cx="35.5" cy="38.8" r="4.1"/>
		<circle cx="54.8" cy="38.8" r="4.1"/>
	</g>
	<path d="M30.3,56.6c-0.7-1.1-0.1-2.7,1.4-3.5c8.5-4.1,18.4-4.1,26.8,0c1.5,0.7,2.1,2.4,1.4,3.5l0,0c-0.7,1.1-2.2,1.4-3.5,0.8
		C49.3,54,41,54,33.8,57.4C32.6,58,31,57.7,30.3,56.6L30.3,56.6z"/>
</g>
</svg>
