<?xml version="1.0" encoding="utf-8"?>
<!-- Generator: Adobe Illustrator 19.1.0, SVG Export Plug-In . SVG Version: 6.00 Build 0)  -->
<svg version="1.1" id="Layer_1" xmlns="http://www.w3.org/2000/svg" xmlns:xlink="http://www.w3.org/1999/xlink" x="0px" y="0px"
	 viewBox="0 0 91.9 86.8" style="enable-background:new 0 0 91.9 86.8;" xml:space="preserve">
<style type="text/css">
	.st0{fill:#1D1D1B;}
	.st1{fill:none;stroke:#555759;stroke-miterlimit:10;}
	.st2{fill:none;stroke:#555759;stroke-miterlimit:10;stroke-dasharray:0.9994,0.9994;}
	.st3{fill:none;stroke:#555759;stroke-miterlimit:10;stroke-dasharray:1;}
	.st4{fill:#555759;}
	.st5{fill:#0E0F0F;}
	.st6{fill:#030104;}
	.st7{fill:#FFFFFF;}
	.st8{fill:#050505;}
</style>
<g>
	<path d="M44.6,17.5c-1.5-1.5-3.8-1.5-5.3,0l-3.9,3.9c1.5-1.5,1.5-3.8,0-5.3c-1.5-1.5-3.8-1.5-5.3,0L17.1,29.2
		c-1.5,1.5-1.5,3.8,0,5.3s3.8,1.5,5.3,0l-3.9,3.9c-1.5,1.5-1.5,3.8,0,5.3c1.5,1.5,3.8,1.5,5.3,0l20.9-20.9
		C46.1,21.3,46.1,18.9,44.6,17.5z"/>
	<rect x="32" y="41.3" transform="matrix(-0.7071 -0.7071 0.7071 -0.7071 46.7609 109.3589)" width="28.1" height="7.4"/>
	<rect x="67.9" y="68.3" transform="matrix(0.7071 -0.7071 0.7071 0.7071 -28.933 71.3141)" width="7.4" height="4.6"/>
	<rect x="18.1" y="15.6" transform="matrix(-0.7071 -0.7071 0.7071 -0.7071 21.1093 47.4288)" width="4.6" height="7.4"/>
	<path d="M74.9,55.5c-1.5-1.5-3.8-1.5-5.3,0l3.9-3.9c1.5-1.5,1.5-3.8,0-5.3c-1.5-1.5-3.8-1.5-5.3,0L47.4,67.3
		c-1.5,1.5-1.5,3.8,0,5.3s3.8,1.5,5.3,0l3.9-3.9c-1.5,1.5-1.5,3.8,0,5.3s3.8,1.5,5.3,0l13.2-13.2C76.4,59.3,76.4,56.9,74.9,55.5z"/>
</g>
</svg>
