<?xml version="1.0" encoding="utf-8"?>
<!-- Generator: Adobe Illustrator 19.1.0, SVG Export Plug-In . SVG Version: 6.00 Build 0)  -->
<svg version="1.1" id="Layer_1" xmlns="http://www.w3.org/2000/svg" xmlns:xlink="http://www.w3.org/1999/xlink" x="0px" y="0px"
	 viewBox="0 0 91.9 82.4" style="enable-background:new 0 0 91.9 82.4;" xml:space="preserve">
<style type="text/css">
	.st0{fill:#1D1D1B;}
	.st1{fill:none;stroke:#555759;stroke-miterlimit:10;}
	.st2{fill:none;stroke:#555759;stroke-miterlimit:10;stroke-dasharray:0.9994,0.9994;}
	.st3{fill:none;stroke:#555759;stroke-miterlimit:10;stroke-dasharray:1;}
	.st4{fill:#555759;}
	.st5{fill:#0E0F0F;}
	.st6{fill:#030104;}
	.st7{fill:#FFFFFF;}
	.st8{fill:#050505;}
</style>
<g>
	<g>
		<path d="M63.1,69.8c-0.9,0-2.2-0.1-4.1-0.4c-1.9-0.3-4.3-1-7-2.1c-2.7-1.1-5.7-2.8-9.1-5c-3.4-2.2-7-5.3-10.8-9.1
			c-3-3-5.5-5.8-7.5-8.6c-2-2.7-3.6-5.3-4.8-7.6c-1.2-2.3-2.2-4.5-2.8-6.4c-0.6-1.9-1-3.6-1.3-5c-0.2-1.5-0.3-2.6-0.3-3.5
			c0-0.7,0.1-1.1,0.1-1.2l0-0.2c0.1-0.7,0.3-1.5,0.7-2.3c0.4-0.8,0.9-1.4,1.4-2L26,8.1c0.9-0.9,1.9-1.3,3.1-1.3
			c0.9,0,1.7,0.3,2.4,0.8c0.6,0.4,1.1,1,1.4,1.6L33,9.2l6.8,12.9c0.5,1,0.7,2.1,0.5,3.2c-0.2,1.1-0.7,2-1.5,2.8l-3,3
			c0.2,0.7,0.5,1.5,0.9,2.3c0.5,1,1.2,2.1,2.2,3.5c1,1.4,2.5,3,4.3,4.9c1.9,1.9,3.5,3.4,4.9,4.4c1.4,1,2.6,1.8,3.5,2.3
			c1.1,0.6,1.7,0.7,1.9,0.8l0.4,0.1l3.5-3.6c1-0.9,2.3-1.4,3.7-1.4c0.8,0,1.5,0.1,2.1,0.4h0.1l0.4,0.2l12.3,7.2
			c1.3,0.8,2,1.8,2.3,3.1l0,0.1c0.2,1.4-0.3,2.7-1.3,3.8l-8.5,8.4c-0.5,0.5-1.1,1-1.9,1.4c-0.8,0.4-1.5,0.6-2.3,0.7l-0.2,0
			c0,0-0.1,0-0.2,0C63.8,69.8,63.5,69.8,63.1,69.8z M18.5,21.1c0,0.2,0,0.6-0.1,1.2c0,0.7,0,1.6,0.2,2.8c0.2,1.3,0.6,2.8,1.2,4.5
			c0.6,1.8,1.4,3.7,2.6,5.9c1.1,2.2,2.7,4.6,4.6,7.2c1.9,2.6,4.3,5.4,7.2,8.2c3.6,3.7,7.1,6.6,10.3,8.7c3.2,2.1,6.1,3.7,8.6,4.7
			c2.5,1,4.6,1.7,6.3,1.9c2.1,0.3,3.2,0.4,3.7,0.4c0.3,0,0.5,0,0.7,0c0.2,0,0.3,0,0.4,0c0.4-0.1,0.9-0.2,1.3-0.4
			c0.4-0.2,0.8-0.5,1-0.7l8.5-8.5c0.4-0.4,0.5-0.7,0.5-1.2c-0.1-0.3-0.2-0.7-0.9-1.1l-12.3-7.2c-0.1-0.1-0.3-0.2-0.9-0.2
			c-0.6,0-1.2,0.2-1.6,0.6l-3.6,3.6c-0.3,0.3-0.6,0.5-1,0.6c-0.4,0.1-0.6,0.2-0.9,0.2l-0.3,0l-0.8-0.2c-0.7-0.1-1.5-0.5-2.7-1.1
			c-1.1-0.5-2.4-1.4-3.9-2.5C45,47.6,43.2,46,41.2,44c-2-1.9-3.6-3.7-4.7-5.2c-1.1-1.5-1.9-2.8-2.5-3.9c-0.7-1.3-1.1-2.4-1.3-3.4
			l0-0.3c0-0.3,0.1-0.6,0.2-0.9c0.1-0.4,0.3-0.7,0.6-1l3.1-3.1c0.3-0.3,0.6-0.8,0.7-1.3c0.1-0.4,0-0.8-0.2-1.2l-6.8-12.9
			c-0.2-0.3-0.4-0.5-0.7-0.7c-0.2-0.1-0.3-0.2-0.6-0.2c-0.2,0-0.6,0.1-1,0.5l-8.5,8.5c-0.3,0.3-0.6,0.6-0.8,1.1
			C18.7,20.2,18.6,20.7,18.5,21.1z"/>
	</g>
</g>
</svg>
