<?xml version="1.0" encoding="utf-8"?>
<!-- Generator: Adobe Illustrator 19.1.0, SVG Export Plug-In . SVG Version: 6.00 Build 0)  -->
<svg version="1.1" id="Layer_1" xmlns="http://www.w3.org/2000/svg" xmlns:xlink="http://www.w3.org/1999/xlink" x="0px" y="0px"
	 viewBox="0 0 91.9 86.8" style="enable-background:new 0 0 91.9 86.8;" xml:space="preserve">
<style type="text/css">
	.st0{fill:#1D1D1B;}
	.st1{fill:none;stroke:#555759;stroke-miterlimit:10;}
	.st2{fill:none;stroke:#555759;stroke-miterlimit:10;stroke-dasharray:0.9994,0.9994;}
	.st3{fill:none;stroke:#555759;stroke-miterlimit:10;stroke-dasharray:1;}
	.st4{fill:#555759;}
	.st5{fill:#0E0F0F;}
	.st6{fill:#030104;}
	.st7{fill:#FFFFFF;}
	.st8{fill:#050505;}
</style>
<g>
	<g>
		<path d="M74.2,27.7L58.9,13.6c-0.8-0.7-2.1-0.7-2.8,0.1l-0.5,0.5c-0.8,0.8-0.7,2.1,0.1,2.9l0.3,0.3L19.1,56.6
			c-1.6,1.7-2.5,4-2.4,6.3c0.1,2.4,1.1,4.5,2.8,6.1l1.9,1.7c1.6,1.5,3.7,2.3,5.9,2.3c2.4,0,4.7-1,6.4-2.8L70.8,31l0.2,0.2
			c0.8,0.7,2.1,0.7,2.8-0.1l0.5-0.5C75.1,29.8,75,28.5,74.2,27.7L74.2,27.7z M52.2,46.5L38.7,40l18.9-20.1l10.5,9.7L52.2,46.5z
			 M52.2,46.5"/>
	</g>
</g>
</svg>
