<?xml version="1.0" encoding="utf-8"?>
<!-- Generator: Adobe Illustrator 19.1.0, SVG Export Plug-In . SVG Version: 6.00 Build 0)  -->
<svg version="1.1" id="Layer_1" xmlns="http://www.w3.org/2000/svg" xmlns:xlink="http://www.w3.org/1999/xlink" x="0px" y="0px"
	 viewBox="0 0 91.9 86.8" style="enable-background:new 0 0 91.9 86.8;" xml:space="preserve">
<style type="text/css">
	.st0{fill:#1D1D1B;}
	.st1{fill:none;stroke:#555759;stroke-miterlimit:10;}
	.st2{fill:none;stroke:#555759;stroke-miterlimit:10;stroke-dasharray:0.9994,0.9994;}
	.st3{fill:none;stroke:#555759;stroke-miterlimit:10;stroke-dasharray:1;}
	.st4{fill:#555759;}
	.st5{fill:#0E0F0F;}
	.st6{fill:#030104;}
	.st7{fill:#FFFFFF;}
	.st8{fill:#050505;}
</style>
<path d="M59.2,17.7H45.7H26.2c-2.5,0-4.5,2-4.5,4.5v37.5v13.5c0,2.5,2,4.5,4.5,4.5h13.5h19.5c2.5,0,4.5-2,4.5-4.5V35.7V22.2
	C63.7,19.7,61.7,17.7,59.2,17.7z M27.7,28.2h15v3h-15V28.2z M57.7,70.2h-30v-3h30V70.2z M57.7,62.7h-30v-3h30V62.7z M57.7,55.2h-30
	v-3h30V55.2z M57.7,47.7h-30v-3h30V47.7z M57.7,40.2h-30v-3h30V40.2z"/>
</svg>
