<?xml version="1.0" encoding="utf-8"?>
<!-- Generator: Adobe Illustrator 19.1.0, SVG Export Plug-In . SVG Version: 6.00 Build 0)  -->
<svg version="1.1" id="Layer_1" xmlns="http://www.w3.org/2000/svg" xmlns:xlink="http://www.w3.org/1999/xlink" x="0px" y="0px"
	 viewBox="0 0 91.9 86.8" style="enable-background:new 0 0 91.9 86.8;" xml:space="preserve">
<style type="text/css">
	.st0{fill:#1D1D1B;}
	.st1{fill:none;stroke:#555759;stroke-miterlimit:10;}
	.st2{fill:none;stroke:#555759;stroke-miterlimit:10;stroke-dasharray:0.9994,0.9994;}
	.st3{fill:none;stroke:#555759;stroke-miterlimit:10;stroke-dasharray:1;}
	.st4{fill:#555759;}
	.st5{fill:#0E0F0F;}
	.st6{fill:#030104;}
	.st7{fill:#FFFFFF;}
	.st8{fill:#050505;}
</style>
<path d="M46.3,20.4c-7.2-7.2-18.9-7.2-26.1,0s-7.2,18.9,0,26.1c6.4,6.4,16.3,7.1,23.4,2.2l6.1,6.1l-1.6,1.6c-0.3,0.3-0.3,0.8,0,1.1
	l16.5,16.5c0.3,0.3,2.9,2.9,7.5-1.7c4.6-4.6,2-7.2,1.7-7.5L57.4,48.4c-0.3-0.3-0.8-0.3-1.1,0L54.7,50l-6.1-6.1
	C53.4,36.7,52.7,26.8,46.3,20.4z M24.3,42.5c-5-5-5-13.1,0-18.1s13.1-5,18.1,0s5,13.1,0,18.1S29.2,47.5,24.3,42.5z"/>
</svg>
