<svg id="Layer_1" data-name="Layer 1" xmlns="http://www.w3.org/2000/svg" viewBox="0 0 180 180"><title>sv icons</title><path d="M145.43,0.62C116.75,3.15,95.59,17.46,83.26,38.14,75,48.51,58.48,80.14,52.48,96.7c-10.9,20.6-20.39,45.1-27.82,67.19-4.53,13.51,15.85,22.32,20.43,8.75a538.27,538.27,0,0,1,19.85-51c7.54,16.86,15.19,33.66,23.41,50.19,6.35,12.82,25.52,1.57,19.17-11.21-8.45-17-16.3-34.3-24.06-51.66,0.1-.34.23-0.66,0.34-1a9.15,9.15,0,0,0,4.28.18l35.53-6.66c5.05-1,7-6.49,6.19-10.93-2.39-13.3-10-22.55-19.38-31.29-1.4-4.77-6.07-9-11.25-13.16,10.5-17,27.64-26.19,49.95-28.15,11.4-1,7.6-18.37-3.68-17.38h0ZM102.27,76.16a41.1,41.1,0,0,1,7.3,10l-17.2,3.22a98.43,98.43,0,0,1,9.9-13.19h0Zm0,0"/><path d="M142,45.78a15.25,15.25,0,1,1-15.25-15.25A15.25,15.25,0,0,1,142,45.78h0Zm0,0"/></svg>