<svg id="Layer_1" data-name="Layer 1" xmlns="http://www.w3.org/2000/svg" viewBox="0 0 180 180"><title>sv icons</title><path d="M175.66,34.84L148.93,5.48a7.06,7.06,0,0,0-5.54-2.3H36.61a7,7,0,0,0-5.54,2.3L4.34,34.84a7.05,7.05,0,0,0-.78,8.45l43.58,70.55a46.09,46.09,0,0,0,42.86,63h0a46.09,46.09,0,0,0,42.86-63l43.58-70.55a7.05,7.05,0,0,0-.79-8.45h0Zm-58.9,6.06L90.05,84.7H90L63.24,40.9h53.51ZM18.35,40.4L35.16,21.94,75,87.21a46.12,46.12,0,0,0-19.58,13.16Zm101.81,86.93-12.23,11.92,2.89,16.83a3.68,3.68,0,0,1-5.34,3.88L90.36,152,75.25,160a3.68,3.68,0,0,1-5.34-3.88l2.89-16.83L60.57,127.34a3.68,3.68,0,0,1,2-6.28l16.9-2.46,7.56-15.31a3.68,3.68,0,0,1,6.6,0l7.56,15.31,16.9,2.46a3.68,3.68,0,0,1,2,6.28h0Zm4.47-27A46.12,46.12,0,0,0,105,87.21l39.79-65.27L161.65,40.4Zm0,0"/></svg>