<?xml version="1.0" encoding="utf-8"?>
<!-- Generator: Adobe Illustrator 19.2.1, SVG Export Plug-In . SVG Version: 6.00 Build 0)  -->
<svg version="1.1" id="Layer_1" xmlns="http://www.w3.org/2000/svg" xmlns:xlink="http://www.w3.org/1999/xlink" x="0px" y="0px"
	 viewBox="0 0 180 180" style="enable-background:new 0 0 180 180;" xml:space="preserve">
<title>sv icons</title>
<path d="M90,180c-49.7,0-90-40.3-90-90S40.3,0,90,0s90,40.3,90,90C179.9,139.7,139.7,179.9,90,180z M90,6.9
	C44.1,6.9,6.9,44.1,6.9,90s37.2,83.1,83.1,83.1s83.1-37.2,83.1-83.1l0,0C173,44.1,135.9,7,90,6.9z"/>
<path d="M112.7,35.9H67.3c-4.4,0-7.9,3.5-7.9,7.9v92.4c0,4.4,3.5,7.9,7.9,7.9h45.5c4.4,0,7.9-3.5,7.9-7.9V43.8
	C120.6,39.4,117.1,35.9,112.7,35.9L112.7,35.9L112.7,35.9z M78.8,40.7h22.4c0.6,0,1,0.8,1,1.9s-0.5,1.9-1,1.9H78.8
	c-0.6,0-1-0.8-1-1.9S78.2,40.7,78.8,40.7L78.8,40.7L78.8,40.7z M90,136.3c-2.8,0-5-2.2-5-5s2.2-5,5-5c2.8,0,5,2.2,5,5c0,0,0,0,0,0
	C95,134,92.7,136.3,90,136.3L90,136.3z M114.7,119.1H65.3V49.2h49.4L114.7,119.1L114.7,119.1z"/>
</svg>
