<svg id="Layer_1" data-name="Layer 1" xmlns="http://www.w3.org/2000/svg" viewBox="0 0 180 180"><title>sv icons</title><path d="M126,94.89c2.77,2,5.13,3.53,7.27,5.32,8.49,7.09,15.07,15.82,21,25,2.35,3.61,4.48,7.37,6.76,11,1.24,2,2.87,3.46,5.38,3.59,7,0.38,11.32-5.49,8.86-12.11-1-2.81-2.12-5.61-3.24-8.38-4.75-11.72-10.14-23.1-17.84-33.25C146.31,75.69,136.5,67.89,123.81,64c-9.78-3-19.86-3.67-30-3.81a136,136,0,0,0-23.69,1.73c-16.28,2.63-30,9.87-40.93,22.28C17.65,97.35,10.4,112.86,4.5,129.09a7.62,7.62,0,0,0,1.68,8c4,4.39,10.31,3.55,13.47-1.87,7.13-12.22,15.91-23,27.2-31.67A58.29,58.29,0,0,1,60,95.86a7.89,7.89,0,0,1,.54,1.3q2.65,13,5.25,26c0.56,2.81.52,2.84-2.18,4.12-8,3.77-16,7.45-23.87,11.31a32.68,32.68,0,0,0-11,8.28c-3.6,4.32-5.43,9.2-3.71,14.77,1.53,5,5.27,7.95,10,9.78,5.81,2.26,11.88,2.63,18.05,2.41,2-.07,2.73-0.77,2.77-2.7a21.66,21.66,0,0,1,4.59-12.45c5.3-7.22,12.76-11.24,21-14,9.91-3.27,20.09-3.7,30.37-2.56a83.94,83.94,0,0,1,8.43,1.65,2.15,2.15,0,0,1,1.92,2.55c-0.19,1.45-1.18,2-2.51,2-0.63,0-1.25,0-1.88,0a58.82,58.82,0,0,0-17.8,1.92c-8.63,2.37-16.53,6.09-22.73,12.77a15.2,15.2,0,0,0-4.41,8.3A1.31,1.31,0,0,0,73.89,173a155.07,155.07,0,0,0,34.85,6.51c8.67,0.52,17.4.45,25.93-1.49a143.75,143.75,0,0,0,16.68-4.8c4.82-1.73,8.51-5.11,9.87-10.29,1.72-6.55-.66-12-5-16.83-3.72-4.11-8.49-6.76-13.42-9.1q-10.57-5-21.23-9.89c-1.36-.63-1.75-1.32-1.41-2.88,1.41-6.58,2.63-13.2,3.92-19.81C124.67,101.46,125.27,98.49,126,94.89Zm-36-47c13.34-.39,23.73-10.24,23.82-23.74a23.78,23.78,0,1,0-47.56-.27C66.18,37.1,76.29,47.38,90,47.85Z"/><path d="M126,94.89c-0.71,3.6-1.31,6.57-1.89,9.54-1.29,6.6-2.51,13.22-3.92,19.81-0.33,1.56.05,2.26,1.41,2.88Q132.23,132,142.81,137c4.93,2.34,9.7,5,13.42,9.1,4.33,4.79,6.7,10.28,5,16.83-1.36,5.19-5,8.56-9.87,10.29a143.75,143.75,0,0,1-16.68,4.8c-8.53,1.94-17.26,2-25.93,1.49A155.07,155.07,0,0,1,73.89,173a1.31,1.31,0,0,1-1.12-1.72,15.2,15.2,0,0,1,4.41-8.3c6.2-6.68,14.1-10.4,22.73-12.77a58.82,58.82,0,0,1,17.8-1.92c0.62,0,1.25,0,1.88,0,1.34,0,2.32-.52,2.51-2a2.15,2.15,0,0,0-1.92-2.55,83.94,83.94,0,0,0-8.43-1.65c-10.28-1.14-20.46-.71-30.37,2.56-8.28,2.73-15.74,6.75-21,14a21.66,21.66,0,0,0-4.59,12.45c0,1.94-.78,2.63-2.77,2.7-6.17.23-12.24-.14-18.05-2.41-4.68-1.83-8.42-4.83-10-9.78-1.72-5.57.1-10.45,3.71-14.77a32.68,32.68,0,0,1,11-8.28c7.91-3.86,15.91-7.54,23.87-11.31,2.7-1.28,2.73-1.31,2.18-4.12q-2.59-13-5.25-26a7.89,7.89,0,0,0-.54-1.3,58.29,58.29,0,0,0-13.11,7.73c-11.28,8.65-20.07,19.45-27.2,31.67-3.16,5.42-9.45,6.27-13.47,1.87a7.62,7.62,0,0,1-1.68-8c5.9-16.23,13.15-31.75,24.71-44.87C40.14,71.82,53.86,64.57,70.14,61.94a136,136,0,0,1,23.69-1.73c10.12,0.15,20.2.83,30,3.81,12.69,3.87,22.5,11.66,30.41,22.09,7.7,10.14,13.09,21.53,17.84,33.25,1.13,2.78,2.2,5.57,3.24,8.38,2.46,6.62-1.85,12.48-8.86,12.11-2.51-.14-4.14-1.61-5.38-3.59-2.28-3.66-4.42-7.41-6.76-11-6-9.21-12.55-17.94-21-25C131.11,98.42,128.75,96.9,126,94.89Z"/><path d="M90,47.85c-13.73-.47-23.84-10.76-23.74-24a23.78,23.78,0,1,1,47.56.27C113.74,37.61,103.36,47.46,90,47.85Z"/></svg>