<svg id="Layer_1" data-name="Layer 1" xmlns="http://www.w3.org/2000/svg" viewBox="0 0 180 180"><title>sv icons</title><path d="M94.59,58.54a30,30,0,1,0,30,30A30.05,30.05,0,0,0,94.59,58.54Z"/><path d="M94.59,31a57.58,57.58,0,1,0,57.58,57.58A57.58,57.58,0,0,0,94.59,31Zm0,93A35.43,35.43,0,1,1,130,88.56,35.47,35.47,0,0,1,94.59,124Z"/><path d="M16.77,147.71h0Z"/><path d="M28.85,35.6a3.26,3.26,0,0,0-3.21,3.2V59.64a3.19,3.19,0,0,1-5.46,2.25,3.08,3.08,0,0,1-.95-2.25V38.8a3.19,3.19,0,0,0-5.46-2.25,3.1,3.1,0,0,0-.95,2.25V59.64a3.24,3.24,0,0,1-3.2,3.2,3.24,3.24,0,0,1-3.2-3.2V38.8a3.08,3.08,0,0,0-1-2.25A3.07,3.07,0,0,0,3.2,35.6,3.08,3.08,0,0,0,1,36.55,3.1,3.1,0,0,0,0,38.8V65.6c0,2,8.45,8.4,10.36,9.07V141.3a6.16,6.16,0,0,0,1.91,4.51A6.33,6.33,0,0,0,23,141.3V74.66c1.9-.66,9-7,9-9.07V38.8A3.24,3.24,0,0,0,28.85,35.6Z"/><path d="M179,33.92A3.1,3.1,0,0,0,176.8,33h-2.3a16.08,16.08,0,0,0-16,16V89.06a1.63,1.63,0,0,0,1.6,1.61h7.27v51.94a6.33,6.33,0,0,0,12.66,0V36.17A3.07,3.07,0,0,0,179,33.92Z"/></svg>