<?xml version="1.0" encoding="utf-8"?>
<!-- Generator: Adobe Illustrator 19.2.1, SVG Export Plug-In . SVG Version: 6.00 Build 0)  -->
<svg version="1.1" id="Layer_1" xmlns="http://www.w3.org/2000/svg" xmlns:xlink="http://www.w3.org/1999/xlink" x="0px" y="0px"
	 viewBox="0 0 180 180" style="enable-background:new 0 0 180 180;" xml:space="preserve">
<title>sv icons</title>
<path d="M90,180c-49.7,0-90-40.3-90-90S40.3,0,90,0s90,40.3,90,90C179.9,139.7,139.7,179.9,90,180z M90,6.9
	C44.1,6.9,6.9,44.1,6.9,90s37.2,83.1,83.1,83.1s83.1-37.2,83.1-83.1l0,0C173,44.1,135.9,7,90,6.9z"/>
<g>
	<g>
		<path d="M81,7c0,0,1,4.5,4.3,7.9c0,0,6.5,5.5,6.5,10.8c0,0,0.7,6.4-8.3,5.9c0,0-8.1-2.9-13.3-7.1c0,0-11.6-7.3-20.3-0.2
			c0,0-6.5,7.5,0,16.5c0,0,4.2,6.3,13.6,9.6c0,0,10.5,4.3,9.7,10.9c0,0,0.2,18.8-12.9,28.9c0,0,5.7-18,2.6-23.3
			c0,0-2.8-8.2-15.5-10.8c0,0-14.9-4.1-20-2.6c0,0-10.6,3.8-5.6,13.8c0,0,2.6,3.3,8.5,4c0,0,8.7,1.8,6.6,8.1c0,0-5.5,12.6-4.9,24.3
			c0,0,0.1,22.5,22.2,30.9c0,0,15.3,8,38.6,4.8c0,0,11.9-1.9,18.1-7.2c0,0,11.9-9.1,5.2-22.3c0,0-12.5-13.3-12.8-16.5
			c0,0,0.7-6.2,3.2-10.8c0,0,5.1-9.2,2.6-15.5c0,0-9.2-15.5-20,3.1c0,0-7.5,13.8-4.8,25.1c0,0-7.3,4.4-19.5-1.9
			c0,0,13.4-10.5,14.7-30.5c0,0,1.4-11.3-10.2-16.3c0,0-16.3-8.1-16.1-13.1c0,0-1.1-8.1,8.2-5c0,0,8.9,4.2,17.2,8.8
			c0,0,11.1,3.9,17.6-4.7c0,0,6.3-5.9-1.4-15.2c0,0-8.1-8.2-2.7-10.2C92.1,7,84.7,4.5,81,7z"/>
		<circle cx="138.6" cy="93.3" r="24.4"/>
	</g>
</g>
</svg>
