<?xml version="1.0" encoding="utf-8"?>
<!-- Generator: Adobe Illustrator 19.2.1, SVG Export Plug-In . SVG Version: 6.00 Build 0)  -->
<svg version="1.1" id="Layer_1" xmlns="http://www.w3.org/2000/svg" xmlns:xlink="http://www.w3.org/1999/xlink" x="0px" y="0px"
	 viewBox="0 0 180 180" style="enable-background:new 0 0 180 180;" xml:space="preserve">
<title>sv icons</title>
<path d="M126,94.9c2.8,2,5.1,3.5,7.3,5.3c8.5,7.1,15.1,15.8,21,25c2.4,3.6,4.5,7.4,6.8,11c1.2,2,2.9,3.5,5.4,3.6
	c7,0.4,11.3-5.5,8.9-12.1c-1-2.8-2.1-5.6-3.2-8.4c-4.8-11.7-10.1-23.1-17.8-33.3c-7.9-10.4-17.7-18.2-30.4-22.1
	c-9.8-3-19.9-3.7-30-3.8c-7.9-0.1-15.9,0.5-23.7,1.7c-16.3,2.6-30,9.9-40.9,22.3c-11.5,13.2-18.8,28.7-24.7,44.9
	c-1,2.8-0.4,5.9,1.7,8c4,4.4,10.3,3.6,13.5-1.9c7.1-12.2,15.9-23,27.2-31.7c4-3.1,8.4-5.7,13.2-7.7c0.2,0.4,0.4,0.9,0.5,1.3
	c1.8,8.7,3.5,17.3,5.3,26c0.6,2.8,0.5,2.8-2.2,4.1c-8,3.8-16,7.5-23.9,11.3c-4.2,1.9-8,4.8-11,8.3c-3.6,4.3-5.4,9.2-3.7,14.8
	c1.5,5,5.3,7.9,10,9.8c5.8,2.3,11.9,2.6,18,2.4c2-0.1,2.7-0.8,2.8-2.7c0.2-4.5,1.8-8.9,4.6-12.4c5.3-7.2,12.8-11.2,21-14
	c9.9-3.3,20.1-3.7,30.4-2.6c2.8,0.4,5.7,1,8.4,1.6c1.2,0.1,2.1,1.1,2,2.3c0,0.1,0,0.1,0,0.2c-0.2,1.4-1.2,2-2.5,2
	c-0.6,0-1.3,0-1.9,0c-6-0.3-12,0.4-17.8,1.9c-8.6,2.4-16.5,6.1-22.7,12.8c-2.3,2.2-3.9,5.1-4.4,8.3c-0.2,0.7,0.2,1.4,0.9,1.6
	c0.1,0,0.1,0,0.2,0c11.3,3.5,23,5.7,34.8,6.5c8.7,0.5,17.4,0.4,25.9-1.5c5.7-1.3,11.2-2.9,16.7-4.8c4.8-1.7,8.5-5.1,9.9-10.3
	c1.7-6.6-0.7-12-5-16.8c-3.7-4.1-8.5-6.8-13.4-9.1c-7-3.3-14.1-6.6-21.2-9.9c-1.4-0.6-1.8-1.3-1.4-2.9c1.4-6.6,2.6-13.2,3.9-19.8
	C124.7,101.5,125.3,98.5,126,94.9z M90,47.9c13.3-0.4,23.7-10.2,23.8-23.7C113.9,11,103.3,0.3,90.2,0.2S66.3,10.7,66.3,23.9l0,0
	C66.2,37.1,76.3,47.4,90,47.9L90,47.9z"/>
<path d="M126,94.9c-0.7,3.6-1.3,6.6-1.9,9.5c-1.3,6.6-2.5,13.2-3.9,19.8c-0.3,1.6,0.1,2.3,1.4,2.9c7.1,3.3,14.2,6.5,21.2,9.9
	c4.9,2.3,9.7,5,13.4,9.1c4.3,4.8,6.7,10.3,5,16.8c-1.4,5.2-5,8.6-9.9,10.3c-5.5,1.9-11,3.5-16.7,4.8c-8.5,1.9-17.3,2-25.9,1.5
	c-11.8-0.8-23.5-3-34.9-6.5c-0.7-0.1-1.2-0.7-1.2-1.4c0-0.1,0-0.2,0.1-0.3c0.6-3.2,2.1-6.1,4.4-8.3c6.2-6.7,14.1-10.4,22.7-12.8
	c5.8-1.5,11.8-2.2,17.8-1.9c0.6,0,1.3,0,1.9,0c1.3,0,2.3-0.5,2.5-2c0.2-1.2-0.5-2.3-1.7-2.5c-0.1,0-0.1,0-0.2,0
	c-2.8-0.7-5.6-1.2-8.4-1.6c-10.3-1.1-20.5-0.7-30.4,2.6c-8.3,2.7-15.7,6.8-21,14c-2.8,3.6-4.4,7.9-4.6,12.4c0,1.9-0.8,2.6-2.8,2.7
	c-6.2,0.2-12.2-0.1-18-2.4c-4.7-1.8-8.4-4.8-10-9.8c-1.7-5.6,0.1-10.4,3.7-14.8c3-3.5,6.8-6.3,11-8.3c7.9-3.9,15.9-7.5,23.9-11.3
	c2.7-1.3,2.7-1.3,2.2-4.1c-1.7-8.7-3.5-17.3-5.3-26c-0.1-0.4-0.3-0.9-0.5-1.3c-4.7,2-9.1,4.6-13.1,7.7
	c-11.3,8.7-20.1,19.4-27.2,31.7c-3.2,5.4-9.4,6.3-13.5,1.9c-2.1-2.1-2.7-5.2-1.7-8c5.9-16.2,13.1-31.8,24.7-44.9
	c11-12.4,24.7-19.7,41-22.3c7.8-1.3,15.8-1.8,23.7-1.7c10.1,0.2,20.2,0.8,30,3.8c12.7,3.9,22.5,11.7,30.4,22.1
	c7.7,10.1,13.1,21.5,17.8,33.3c1.1,2.8,2.2,5.6,3.2,8.4c2.5,6.6-1.9,12.5-8.9,12.1c-2.5-0.1-4.1-1.6-5.4-3.6
	c-2.3-3.7-4.4-7.4-6.8-11c-6-9.2-12.6-17.9-21-25C131.1,98.4,128.8,96.9,126,94.9z"/>
<path d="M90,47.8c-13.7-0.5-23.8-10.8-23.7-24C66.3,10.7,77,0.1,90.2,0.2s23.7,10.8,23.6,23.9l0,0C113.7,37.6,103.4,47.5,90,47.8z"
	/>
</svg>
