<?xml version="1.0" encoding="utf-8"?>
<!-- Generator: Adobe Illustrator 19.2.1, SVG Export Plug-In . SVG Version: 6.00 Build 0)  -->
<svg version="1.1" id="Layer_1" xmlns="http://www.w3.org/2000/svg" xmlns:xlink="http://www.w3.org/1999/xlink" x="0px" y="0px"
	 viewBox="0 0 180 180" style="enable-background:new 0 0 180 180;" xml:space="preserve">
<title>sv icons</title>
<g>
	<path d="M164.1,110.5c-3.2-19.2-11.8-32.6-23.9-38.1c12-7.3,15.9-22.9,8.6-35s-22.9-15.9-35-8.6c-3.9,2.3-7,5.7-9.2,9.6
		c-13.3-7.8-30.4-3.4-38.2,9.9s-3.4,30.4,9.9,38.2c-13.7,5.8-23.4,20.7-27,42.2c-1,6.1,0.6,12.4,4.5,17.1c3,3.7,7.6,5.9,12.4,6H114
		c4.8-0.1,9.4-2.2,12.4-6c3.3-4,5-9,4.8-14.2h17.3c4.4,0,8.6-2.1,11.4-5.5C163.5,121.9,165,116.1,164.1,110.5z M127,31.6
		c10.5,0,19,8.5,19,19s-8.5,19-19,19l0,0c-3.3,0-6.5-0.9-9.4-2.6c1.6-8.9-1.3-18.1-7.8-24.5C113,35.9,119.7,31.7,127,31.6z
		 M68.7,62.4C68.8,50.5,78.4,41,90.3,41c11.5,0.1,20.9,9.2,21.3,20.7c0,0.2,0,0.4,0,0.7c-0.5,11.8-10.5,21-22.4,20.5
		C78.1,82.3,69.2,73.5,68.7,62.4z M121.5,141.8c-1.8,2.3-4.5,3.6-7.5,3.7H66.3c-2.9-0.1-5.6-1.4-7.5-3.7c-2.7-3.3-3.8-7.7-3.1-11.9
		c4.1-24.8,17-39.6,34.4-39.6h0c2,0,3.9,0.2,5.9,0.6c2.1,0.4,4.2,1.1,6.2,2.1c10.3,4.8,17.9,16.1,21.4,32.4c0.3,1.5,0.6,3,0.9,4.6
		c0.1,0.6,0.1,1.3,0.1,1.9C124.9,135.4,123.8,139,121.5,141.8L121.5,141.8z M155,122.1c-1.6,2-3.9,3.2-6.5,3.3h-18.2
		c-3.8-18.7-12.5-31.9-24.6-37.9c5.5-7.3,12.7-11.3,21.3-11.3c15.6,0,27,13.2,30.7,35.4C158.4,115.3,157.4,119.1,155,122.1
		L155,122.1z"/>
	<path d="M17,110.5c3.2-19.2,11.8-32.6,23.9-38.1c-12-7.3-15.8-22.9-8.6-35s22.9-15.9,34.9-8.6c3.8,2.3,7,5.7,9.1,9.6
		c13.2-7.8,30.3-3.4,38.1,9.9s3.4,30.4-9.9,38.2c13.7,5.8,23.4,20.7,26.9,42.2c1,6.1-0.6,12.4-4.5,17.1c-3,3.7-7.6,5.9-12.4,6H67
		c-4.8-0.1-9.3-2.2-12.4-6c-3.3-4-5-9-4.8-14.2H32.6c-4.4,0-8.6-2.1-11.4-5.5C17.6,121.9,16.1,116.1,17,110.5z M54,31.6
		c-10.5,0-19,8.5-19,19s8.5,19,19,19l0,0c3.3,0,6.5-0.9,9.4-2.6c-1.6-8.9,1.3-18.1,7.8-24.5C68.1,35.9,61.4,31.7,54,31.6z
		 M112.2,62.4C112.2,50.5,102.5,41,90.7,41c-11.5,0.1-20.9,9.2-21.3,20.7c0,0.2,0,0.4,0,0.7C70,74.2,80,83.4,91.8,82.8
		C102.9,82.3,111.7,73.5,112.2,62.4z M59.6,141.8c1.8,2.3,4.5,3.6,7.4,3.7h47.6c2.9-0.1,5.6-1.4,7.4-3.7c2.7-3.3,3.8-7.7,3.1-11.9
		c-4.1-24.8-16.9-39.6-34.3-39.6h0c-2,0-3.9,0.2-5.8,0.6c-2.1,0.4-4.2,1.1-6.2,2.1c-10.2,4.8-17.8,16.1-21.4,32.4
		c-0.3,1.5-0.6,3-0.9,4.6c-0.1,0.6-0.1,1.3-0.1,1.9C56.2,135.4,57.3,139,59.6,141.8L59.6,141.8z M26.1,122.1c1.6,2,3.9,3.2,6.5,3.3
		h18.2c3.8-18.7,12.5-31.9,24.5-37.9C69.8,80.2,62.6,76.1,54,76.1c-15.5,0-27,13.2-30.6,35.4C22.8,115.3,23.7,119.1,26.1,122.1
		L26.1,122.1z"/>
</g>
</svg>
