<svg id="Layer_1" data-name="Layer 1" xmlns="http://www.w3.org/2000/svg" viewBox="0 0 180 180"><title>sv icons</title><path d="M117.25,26.93A26.54,26.54,0,1,1,90.72.39a26.54,26.54,0,0,1,26.54,26.54h0Zm0,0"/><path d="M154.55,144.67l-3.43-2.39c-5.45-3.82-11-7.69-16.73-11.4a162.55,162.55,0,0,1-16.77,4.84A124.25,124.25,0,0,0,102.82,140a17.1,17.1,0,0,1-6.33,1.29,13.54,13.54,0,0,1-6-1.43,13.47,13.47,0,0,1-6,1.43A17.18,17.18,0,0,1,78.16,140a124,124,0,0,0-14.81-4.31A155.53,155.53,0,0,1,46,130.66c-5.82,3.78-11.48,7.7-17.06,11.59l-3.46,2.42c-6.8,4.75-9.64,14.13-6.92,22.81,2.35,7.49,8.42,12.13,15.83,12.13h111.3c7.41,0,13.48-4.64,15.83-12.13,2.71-8.69-.13-18.06-6.93-22.81h0Zm-78.48,5.21c1.59-1,3.09-2.11,4.57-3.23a28.19,28.19,0,0,0,10.23,0,28.31,28.31,0,0,0,8.78.18c1.38,1,2.8,2.05,4.29,3H76.07Zm0,0"/><path d="M77.85,133.82c5.39,2.15,9.81.93,12.83-2,3,2.94,7.45,4.14,12.85,2,16.57-6.63,47.84-7.25,53.09-28.95,4.47-18.51-9.59-37-17.62-52.64-5.82-11.32-19.29-8-24.48.44-4.26,4.75-13,13.25-23.48,13.25-11.72,0-21.51-10.64-25.17-14.69-5.76-7.38-18-9.65-23.47,1-8.05,15.68-22.1,34.12-17.62,52.64,5.26,21.7,36.53,22.32,53.1,28.95h0ZM58.09,84.06C59,82.21,60,80.38,61,78.55c0.08,9.19.21,14.17,0.21,14.7,2,0.56,4,1.11,6.15,1.64a157.57,157.57,0,0,1,20.59,6.27,19.9,19.9,0,0,1,2.53,1.31A19.39,19.39,0,0,1,93,101.17a159.89,159.89,0,0,1,18.88-5.79l4.86-1.28c0.73-.19,1.5-0.38,2.31-0.55,0.39-.08,1.5,2.7,1.88,2.62V78.32c3.47,5.76,6.79,11.81,7.84,17.57l-1.62.9c-2.26,1.21-5.41,1.64-7.85,2.31-7.93,2.14-15.78,3.91-23.43,7a15.36,15.36,0,0,0-5.18,3.36,15.67,15.67,0,0,0-5.19-3.36A153.06,153.06,0,0,0,65.3,99.9c-3.11-.77-6.19-1.6-9.25-2.53-2-.62-3.22-2.34-3.54-1.44,0.55-3.67,4.13-9,5.58-11.88h0Zm0,0"/></svg>