<svg id="Layer_1" data-name="Layer 1" xmlns="http://www.w3.org/2000/svg" viewBox="0 0 180 180"><title>sv icons</title><path d="M55.62,42a21,21,0,1,0-21-21,21,21,0,0,0,21,21h0Zm0,0"/><path d="M62.47,69.41q10.69,18.36,20.4,37.29c-9.61,4.91-21,13.52-26.77,18.22s-16.6,28.73-22.16,40.21c-6,12.33,13.24,21.28,19.18,9,4.9-10.13,13.15-30.28,18-34.23s20.58-15.12,32.61-19.31a11.62,11.62,0,0,0,1.64-.73c14.73,18.69,43.58,27.53,68.19,13.15,13-7.58,1.24-26.26-11.77-18.66-18,10.54-36.78-2.94-45.28-19.81S102,65.78,95.08,53.83c13.45-4.29,25.74-.37,35.41,13.17,7.86,11,26.25.45,18.3-10.69C130.08,30.1,102.17,23.6,74.24,40.18c-1.16.69-6.4,3.58-7.59,4.28-17.37,10.31-33.5,8.36-45.56-8.53-7.87-11-26.26-.45-18.3,10.69,15.38,21.54,37,29.74,59.68,22.78h0Zm0,0"/></svg>