<svg id="Layer_1" data-name="Layer 1" xmlns="http://www.w3.org/2000/svg" viewBox="0 0 180 180"><title>sv icons</title><path d="M106.13,115.12q16.23-6.84,25.62-18.63t9.39-25.67q0-13.88-9.39-25.67T106.13,26.52a89.93,89.93,0,0,0-35.31-6.84,90,90,0,0,0-35.32,6.84Q19.28,33.36,9.89,45.15T0.5,70.82A39.24,39.24,0,0,0,7.59,93.19a58.29,58.29,0,0,0,19.48,17.68c-0.67,1.6-1.35,3.07-2,4.4a25.29,25.29,0,0,1-2.5,3.84Q21.08,121,20.28,122T17.68,125q-1.8,1.89-2.3,2.5a0.88,0.88,0,0,0-.4.45,1.27,1.27,0,0,1-.46.5,1.08,1.08,0,0,0-.4.5l-0.35.55-0.25.5a2.22,2.22,0,0,0-.2.6,4.27,4.27,0,0,0,0,.65,2.09,2.09,0,0,0,.1.65,3.34,3.34,0,0,0,1.15,2.1,3.12,3.12,0,0,0,2,.8h0.3a84.19,84.19,0,0,0,8.59-1.6,83.92,83.92,0,0,0,27.77-12.79A100.22,100.22,0,0,0,70.83,122a89.84,89.84,0,0,0,35.31-6.84h0Zm-55.89-8.34-4.4,3.09q-2.79,1.9-6.19,3.9l3.5-8.39-9.69-5.59A46,46,0,0,1,18.58,86.6a27.26,27.26,0,0,1-5.29-15.79q0-10.19,7.84-19.08T42.26,37.65a77.82,77.82,0,0,1,28.57-5.19,77.84,77.84,0,0,1,28.57,5.19q13.28,5.2,21.13,14.09t7.84,19.08q0,10.19-7.84,19.08T99.39,104a77.81,77.81,0,0,1-28.57,5.19,86.78,86.78,0,0,1-15.28-1.39Zm0,0"/><path d="M172.41,118.81a39,39,0,0,0-.4-45.4,59.2,59.2,0,0,0-20.38-17.78,51.39,51.39,0,0,1-4.39,40.56,66.86,66.86,0,0,1-19.18,21.17,88.51,88.51,0,0,1-26.37,12.89,105.62,105.62,0,0,1-30.87,4.49q-3,0-8.79-.4,20.08,13.18,47.15,13.18a100.43,100.43,0,0,0,17.58-1.6,84,84,0,0,0,27.77,12.79,84.71,84.71,0,0,0,8.59,1.6,3,3,0,0,0,2.2-.7,3.69,3.69,0,0,0,1.3-2.2,0.7,0.7,0,0,1,.1-0.65c0.1,0,.08-0.25,0-0.65l-0.2-.6-0.25-.5a4.72,4.72,0,0,0-.35-0.54,4.39,4.39,0,0,0-.4-0.5c-0.1-.1-0.25-0.26-0.45-0.5l-0.4-.45q-0.5-.6-2.3-2.5t-2.6-2.95q-0.8-1.05-2.25-2.9a25.31,25.31,0,0,1-2.5-3.85q-1.05-2-2-4.39a58.65,58.65,0,0,0,19.47-17.64h0Zm0,0"/></svg>