<svg id="Layer_1" data-name="Layer 1" xmlns="http://www.w3.org/2000/svg" viewBox="0 0 180 180"><title>sv icons</title><path d="M144.25,0.54H11V157.45H144.25V0.54ZM131.48,144.7H23.79V13.32H131.48V144.7Zm0,0"/><rect x="36.63" y="29.68" width="83.67" height="7.74"/><rect x="36.63" y="54.01" width="83.67" height="7.7"/><path d="M149.26,25.23V38h7V166.65h-105v-5.11H38.42v17.92H169V25.23H149.26Zm0,0"/><path d="M39.73,111.23a9,9,0,0,0,4-1l10.5,8.59A6.56,6.56,0,0,0,54,120a9.18,9.18,0,0,0,18.36,0,9,9,0,0,0-1-4c5-7.56,11.48-17.24,15.37-23a10.6,10.6,0,0,0,1.77.34,9.11,9.11,0,0,0,5.76-2.15L106,98c0,0.13-.06.2-0.06,0.34a9.4,9.4,0,1,0,3.33-7L97.6,84.55c0-.14.06-0.28,0.06-0.44a9.17,9.17,0,1,0-18.33,0,8.75,8.75,0,0,0,1.4,4.56c-4.84,7.26-11.14,16.7-15.06,22.63a8.91,8.91,0,0,0-2.46-.51,8.94,8.94,0,0,0-5,1.71c-2.9-2.39-6.51-5.32-9.74-8a8.64,8.64,0,0,0,.51-2.49,9.19,9.19,0,1,0-9.2,9.2h0Zm0,0"/></svg>