<svg id="Layer_1" data-name="Layer 1" xmlns="http://www.w3.org/2000/svg" viewBox="0 0 180 180"><title>sv icons</title><path d="M88.37,11.29L26,45.1l2.74-.69,74.54-18.9L96.94,13.85a6.32,6.32,0,0,0-8.57-2.56h0Zm0,0"/><path d="M147.47,46.63L142.74,28a6.31,6.31,0,0,0-6.12-4.77,5.8,5.8,0,0,0-1.55.2l-29,7.35L43.38,46.65H147.47v0Zm0,0"/><path d="M105.19,126.64V94.87a12,12,0,0,1,12-12H165V58.37A6.32,6.32,0,0,0,158.68,52H12.82A6.32,6.32,0,0,0,6.5,58.37V163.16a6.32,6.32,0,0,0,6.32,6.32H158.66a6.32,6.32,0,0,0,6.32-6.32v-24.5H117.2a12,12,0,0,1-12-12h0Zm0,0"/><path d="M170.41,89.45a6.38,6.38,0,0,0-2.71-.87,5.19,5.19,0,0,0-.52,0h-50a6.33,6.33,0,0,0-6.32,6.32v31.77A6.33,6.33,0,0,0,117.2,133h50l0.52,0a6.13,6.13,0,0,0,2.71-.87,6.33,6.33,0,0,0,3.09-5.43V94.89a6.33,6.33,0,0,0-3.09-5.43h0ZM133,121a10.25,10.25,0,1,1,10.25-10.25A10.26,10.26,0,0,1,133,121h0Zm0,0"/></svg>