<?xml version="1.0"?><svg width="418.47" height="443.067" xmlns="http://www.w3.org/2000/svg">
 <title>sleep</title>
 <g>
  <title>Layer 1</title>
  <g id="g1882">
   <g id="g1884">
    <path d="m89.25,279.011993c21.588997,0 39.087006,-17.498993 39.087006,-39.084c0,-21.588989 -17.498009,-39.090988 -39.087006,-39.090988c-21.584999,0 -39.084999,17.501999 -39.084999,39.090988c0,21.585007 17.5,39.084 39.084999,39.084z" id="path1886" fill="#000000"/>
    <path d="m89.25,239.927994" id="path1888" fill="#000000"/>
   </g>
   <path d="m173.649002,228.843994l156.233994,0c22.92099,0 36.423004,14.753006 36.423004,34.503998l0,56.552002l-192.656998,0l0,-91.056z" id="path1890" fill="#000000"/>
   <path d="m131.123001,249.078995l0,33.918015l-60.069,0c-29,0.104004 -29.047001,37.381989 0,37.381989l78.75,0c11.5,0 18.699997,-9.282013 18.699997,-19.782013l0,-51.51799c0,-28.222 -37.380997,-28.222 -37.380997,0z" id="path1892" fill="#000000"/>
   <path d="m42.702,196.255005c0,-30.779007 -42.702,-30.779007 -42.702,0l0,246.811981l43.651001,0l0,-63.73999l332.118988,0l0,63.261017l42.700012,0l0,-190.629013c0,-32.481995 -43.174011,-32.481995 -43.174011,0l0,76.087997l-332.59399,0l0,-131.791992z" id="path1894" fill="#000000"/>
  </g>
 </g>

</svg>