<?xml version="1.0" encoding="utf-8"?>
<!-- Generator: Adobe Illustrator 19.2.1, SVG Export Plug-In . SVG Version: 6.00 Build 0)  -->
<svg version="1.1" id="Layer_1" xmlns="http://www.w3.org/2000/svg" xmlns:xlink="http://www.w3.org/1999/xlink" x="0px" y="0px"
	 viewBox="0 0 180 180" style="enable-background:new 0 0 180 180;" xml:space="preserve">
<style type="text/css">
	.st0{fill:#050505;}
</style>
<title>sv icons</title>
<path class="st0" d="M94.8,12c2.6,0.7,5.3,1.3,7.8,2.3c15.5,6,24.5,17.9,28,33.6c4.5,20.5-0.3,38.6-16.4,52.9c-0.8,0.7-1.4,2-1.4,3
	c-0.1,3.1-1,7,0.5,9.2c1.4,2,5.4,2.1,8.3,2.9c9.4,2.6,18.9,5.2,28.4,7.8c9.4,2.5,15.3,8.4,17.5,17.9c0.1,0.5,0.3,0.9,0.5,1.4
	c0,8.3,0,16.6,0,25c-52,0-104,0-156,0c0-8.5,0-17.1,0-25.6c0.5-1.4,0.9-2.9,1.5-4.2c2.8-7.2,7.8-12,15.3-14.1
	c11.9-3.3,23.8-6.6,35.8-9.8c2.1-0.6,2.7-1.5,2.9-3.7c0.5-5.7-1.2-9.7-5.4-14c-20.6-20.8-18-58.5,4.5-76.3c5.1-4,10.8-6.7,17.3-7.9
	c0.5-0.1,0.9-0.4,1.3-0.5C88.3,12,91.6,12,94.8,12z M73.6,105.8c0,3.7-0.2,6.9,0,10.1c0.1,2.2-0.7,3-2.7,3.5
	c-13.4,3.6-26.8,7.3-40.2,11c-6.4,1.7-10.9,5.8-11.7,12.2c-0.8,6.1-0.2,12.5-0.2,18.8c47.4,0,94.8,0,142.5,0c0-5.2,0-10.1,0-15.1
	c-0.1-8-4.7-13.8-12.4-16c-13.3-3.7-26.6-7.4-39.9-10.9c-2.2-0.6-2.9-1.5-2.8-3.7c0.2-3.1,0-6.2,0-9.7
	C95.2,110.8,84.6,110.7,73.6,105.8z M125.2,53.8c-10.6,2.5-15.3,0.9-28.6-9.5C84.5,56.6,70.4,54.6,56,49.6c-0.2,0.4-0.4,0.8-0.5,1.2
	c-2.5,13.6-0.5,26.3,7.7,37.6c12.6,17.2,34.2,19.6,48.9,5.4C123.4,82.9,126.9,69.2,125.2,53.8z M96.2,31c1.2,2.1,2,3.5,2.8,4.9
	c3.5,5.9,8.5,9.8,15,11.7c2.4,0.7,5.2,0.5,7.7,0.2c1.5-0.1,2.2-1.3,1.4-2.9c-2.4-4.4-4.2-9.3-7.3-13.2c-7.9-10.1-18.4-15-31.3-12.6
	c-13.4,2.5-21.3,11.6-26.7,23.8c7.3,3.4,14.6,4.7,22.4,3.5C88.7,45,93,39,96.2,31z"/>
</svg>
