<svg id="Layer_1" data-name="Layer 1" xmlns="http://www.w3.org/2000/svg" viewBox="0 0 180 180"><defs><style>.cls-1{fill:none;}</style></defs><title>sv icons</title><rect class="cls-1" x="99.56" y="96.48" width="4.2" height="23.51" transform="translate(-41.24 148.6) rotate(-62.57)"/><path d="M42.25,88.09h0.07a41.11,41.11,0,0,0,12,26.39c14.75,14.74,34,15.71,49.31,2.91l-7.25-3.77c-11.79,8.06-25.88,6.61-36.84-4.35-8.71-8.71-10-17.8-10-28.54-2,0-7.61.87-9.2-1.1a6.18,6.18,0,0,1,0-7.19c1.64-2,7.5-1.08,9.3-1.08V47.13c5.27,0,16.39,2.4,22.3,1.66,6.42-.8,26.21-4.28,30-3.74,2.47,0.35,6.81,6.78,9.7,12.1V71.36c1.8,0,7.66-.94,9.3,1.08a6.18,6.18,0,0,1,0,7.19c-1.59,2-7.18,1.1-9.2,1.1,0,8.1-.76,15.26-4.88,22l6.5,3.37a41.37,41.37,0,0,0,5.56-18.06h0.07a9.83,9.83,0,0,0,7.65-3.82,13.41,13.41,0,0,0,0-16.47A9.84,9.84,0,0,0,118.93,64V60.86C126.64,53.65,138.1,33,100.25,6L82.87,0.39l1.34,4L75.65,3.06l1.34,4H65.22l1.34,4L52.65,8.68c0.48,10,.06,3.64-6.69,11.5-12.47,14.53-8.3,21.93-3.73,39.91V64A9.84,9.84,0,0,0,34.6,67.8a13.41,13.41,0,0,0,0,16.47A9.83,9.83,0,0,0,42.25,88.09Z"/><path d="M115.4,134.29l-8.28-.72L90.26,167.69l-2.09-13.57a6.4,6.4,0,0,0,3.33-5.5V141.1c0-6.61-21.84-6.61-21.84,0v7.51a6.4,6.4,0,0,0,3.33,5.5L70.9,167.69,54,133.58l-8.28.72A27.75,27.75,0,0,0,20.5,161.88v17.73c40.31-.2,79.85-0.2,120.16,0V161.88A27.75,27.75,0,0,0,115.4,134.29Z"/><path d="M83.62,94.56l-0.4.76-2.73,5.26-0.4.76,0.76,0.4,32.77,17,0.76,0.4,0.4-.76,2.73-5.26,0.4-.76-0.76-.4L84.39,95ZM92.19,101l20.87,10.83-1.94,3.73L90.25,104.68Z"/><path d="M158.21,123.4c-2.72-4.43-6.23-1.91-6.8-2.9-3.17-5.51-9.74-3.06-10.7-3.29-0.29-2.48-11.82-6-15.4-1.6-1.17-.81-5.77,1.51-0.86,4,0.47,1,.16,6.32,5.47,4.65a14.35,14.35,0,0,0,2.67-1.36c0.31-.05.5,0.35,1.08,1.67,5.17,11.8,12.88,3,13,4.07C147.27,136.92,164.23,133.21,158.21,123.4Z"/></svg>