<svg id="Layer_1" data-name="Layer 1" xmlns="http://www.w3.org/2000/svg" viewBox="0 0 180 180"><title>sv icons</title><path d="M90,180a90,90,0,1,1,90-90A90.1,90.1,0,0,1,90,180ZM90,6.92A83.08,83.08,0,1,0,173.08,90,83.17,83.17,0,0,0,90,6.92Z"/><path d="M138.85,55.09H104.53v5.71H98.39V55.09H85.21c-11.87,0-21.63,8.35-23,19.86h0C48.65,77.61,38.94,86.5,39.84,101.59c0.73,12.06,8.12,26.38,19.84,31,11.31,4.41,18.64-8,12.91-17.08C68.77,109.4,63,104.63,58.44,99.13,52.12,91.51,54,86.41,62.31,82.35h0c1.37,11.5,11,19.1,22.89,19.1a23.17,23.17,0,0,0,22.73-18.7c0.14-.74.23-1.37,0.24-1.41a0.19,0.19,0,0,0,0-.06c3.46-14.12,26.09-15.16,31.05-15.22h0.49c0.27,0,.49-0.61.49-1.37V56.45A1.37,1.37,0,0,0,138.85,55.09ZM67.41,125.56C59.56,133.17,49.51,114,47.77,109c-2.31-6.72-2-12.77.4-17.56a17.5,17.5,0,0,0,3.15,8.7C54.49,105,73.33,119.84,67.41,125.56Z"/></svg>