<svg id="Layer_1" data-name="Layer 1" xmlns="http://www.w3.org/2000/svg" viewBox="0 0 180 180"><title>sv icons</title><path d="M150.17,124.71V87.14H112.6Zm0,0"/><path d="M11.37,87.14A10.89,10.89,0,0,0,.5,98v19.5a10.88,10.88,0,0,0,10.87,10.87H94.77L53.53,87.14H11.37Zm34.12,29.3H12.43V99.07H45.5v17.37Zm0,0"/><path d="M174.59,87H157.87v41.39h16.72a4.9,4.9,0,0,0,4.91-4.9V91.94a4.9,4.9,0,0,0-4.91-4.9h0Zm0,0"/><path d="M165.58,77.65a6,6,0,0,0,6-6,23.89,23.89,0,0,0-23.87-23.87H99.21A13.94,13.94,0,0,1,85.28,33.89a6,6,0,1,0-11.93,0A25.88,25.88,0,0,0,99.21,59.75h48.47a12,12,0,0,1,11.93,11.93,6,6,0,0,0,6,6h0Zm0,0"/><path d="M47.28,38.7A8.95,8.95,0,1,0,34.63,51.36l98.09,98.09a8.95,8.95,0,1,0,12.65-12.66Zm0,0"/></svg>