<?xml version="1.0" encoding="utf-8"?>
<!-- Generator: Adobe Illustrator 19.2.1, SVG Export Plug-In . SVG Version: 6.00 Build 0)  -->
<svg version="1.1" id="Layer_1" xmlns="http://www.w3.org/2000/svg" xmlns:xlink="http://www.w3.org/1999/xlink" x="0px" y="0px"
	 viewBox="0 0 180 180" style="enable-background:new 0 0 180 180;" xml:space="preserve">
<title>sv icons</title>
<path d="M90,180c-49.7,0-90-40.3-90-90S40.3,0,90,0s90,40.3,90,90C179.9,139.7,139.7,179.9,90,180z M90,6.9
	C44.1,6.9,6.9,44.1,6.9,90s37.2,83.1,83.1,83.1s83.1-37.2,83.1-83.1l0,0C173,44.1,135.9,7,90,6.9z"/>
<g>
	<path d="M108.7,46.6c0,10.1-8.2,18.3-18.3,18.3s-18.3-8.2-18.3-18.3s8.2-18.3,18.3-18.3c0,0,0,0,0,0
		C100.6,28.4,108.7,36.5,108.7,46.6L108.7,46.6L108.7,46.6z"/>
	<path d="M134.4,127.6L132,126c-3.7-2.6-7.6-5.3-11.5-7.8c-3.8,1.3-7.6,2.4-11.5,3.3c-3.5,0.8-6.8,1.8-10.2,2.9
		c-1.4,0.6-2.9,0.9-4.4,0.9c-1.4,0-2.8-0.3-4.1-1c-1.3,0.6-2.7,1-4.1,1c-1.5,0-3-0.3-4.4-0.9c-3.3-1.2-6.7-2.2-10.2-3
		c-4-0.9-8-2.1-11.9-3.5c-4,2.6-7.9,5.3-11.7,8l-2.4,1.7c-4.7,3.3-6.6,9.7-4.8,15.7c1.6,5.2,5.8,8.3,10.9,8.3h76.5
		c5.1,0,9.3-3.2,10.9-8.3C141,137.3,139.1,130.9,134.4,127.6L134.4,127.6L134.4,127.6z M80.4,131.2c1.1-0.7,2.1-1.5,3.1-2.2
		c2.3,0.4,4.7,0.4,7,0c2,0.4,4,0.4,6,0.1c0.9,0.7,1.9,1.4,3,2.1L80.4,131.2L80.4,131.2z"/>
	<path d="M81.6,120.1c3.7,1.5,6.7,0.6,8.8-1.4c2.1,2,5.1,2.8,8.8,1.4c11.4-4.6,32.9-5,36.5-19.9c3.1-12.7-6.6-25.4-12.1-36.2
		c-4-7.8-13.3-5.5-16.8,0.3c-2.9,3.3-8.9,9.1-16.1,9.1c-8.1,0-14.8-7.3-17.3-10.1c-4-5.1-12.4-6.6-16.1,0.7
		C51.7,74.8,42,87.5,45.1,100.2C48.7,115.2,70.2,115.6,81.6,120.1L81.6,120.1L81.6,120.1z M68,85.9c0.6-1.3,1.3-2.5,2-3.8
		c0.1,6.3,0.1,9.7,0.1,10.1c1.4,0.4,2.8,0.8,4.2,1.1c4.8,1.1,9.5,2.6,14.2,4.3c0.6,0.3,1.2,0.6,1.7,0.9c0.6-0.3,1.1-0.6,1.7-0.9
		c4.2-1.6,8.6-2.9,13-4l3.3-0.9c0.5-0.1,1-0.3,1.6-0.4c0.3-0.1,1,1.9,1.3,1.8V82c2.4,4,4.7,8.1,5.4,12.1l-1.1,0.6
		c-1.6,0.8-3.7,1.1-5.4,1.6c-5.5,1.5-10.9,2.7-16.1,4.8c-1.3,0.5-2.5,1.3-3.6,2.3c-1-1-2.2-1.8-3.6-2.3c-4.5-1.7-9.2-3.2-13.9-4.3
		c-2.1-0.5-4.3-1.1-6.4-1.7c-1.4-0.4-2.2-1.6-2.4-1C64.6,91.6,67,87.9,68,85.9L68,85.9L68,85.9z"/>
</g>
</svg>
