<svg id="Layer_1" data-name="Layer 1" xmlns="http://www.w3.org/2000/svg" viewBox="0 0 180 180"><title>sv icons</title><path d="M52.8,36.82H54V24.73H35.72A6.22,6.22,0,0,0,29.5,31V173.13a6.21,6.21,0,0,0,6.22,6.22H144.28a6.21,6.21,0,0,0,6.22-6.22V31a6.22,6.22,0,0,0-6.22-6.22H126.06V36.82h1.16A4.16,4.16,0,0,1,131.37,41V96.71H119.8L109.57,68.54a3.11,3.11,0,0,0-5.73-.27l-17.9,37.67L74.33,85.18a3.11,3.11,0,0,0-5.43,0L62.48,96.73H48.67V41a4.12,4.12,0,0,1,4.13-4.15h0Zm13.75,69.93a3.13,3.13,0,0,0,2.72-1.6l2.37-4.25,12.09,21.64a3.11,3.11,0,0,0,5.52-.19l16.53-34.81L112,104.7a3.14,3.14,0,0,0,2.93,2.05h16.43V149a4.16,4.16,0,0,1-4.15,4.15H52.8A4.16,4.16,0,0,1,48.65,149V106.75h17.9Zm0,0"/><path d="M61.51,20.79a6.58,6.58,0,0,0-.27,1.83V35.49a6.22,6.22,0,0,0,6.22,6.22h45.12a6.21,6.21,0,0,0,6.22-6.22V22.61a6.57,6.57,0,0,0-.27-1.83,6.23,6.23,0,0,0-6-4.4h-7.92c0-.35,0-0.68,0-1a15.29,15.29,0,0,0-.23-2.59,15.46,15.46,0,0,0-1.14-3.63,14.69,14.69,0,0,0-26.61,0,13.72,13.72,0,0,0-1.14,3.63,15.28,15.28,0,0,0-.23,2.59c0,0.35,0,.68,0,1H67.46a6.21,6.21,0,0,0-6,4.42h0Zm22.32-5.46a6,6,0,0,1,.58-2.59,6.16,6.16,0,0,1,11.2,0,6,6,0,0,1,.58,2.59,8.41,8.41,0,0,1-.08,1,6.14,6.14,0,0,1-3.17,4.4,6.06,6.06,0,0,1-2.93.73,6.31,6.31,0,0,1-2.93-.73,6.24,6.24,0,0,1-3.17-4.4,8.41,8.41,0,0,1-.08-1h0Zm0,0"/></svg>