<svg id="Layer_1" data-name="Layer 1" xmlns="http://www.w3.org/2000/svg" viewBox="0 0 180 180"><title>sv icons</title><path d="M167.58,4.66H95.76A12.44,12.44,0,0,0,83.34,17.09V162.91a12.42,12.42,0,0,0,12.42,12.42h71.82A12.42,12.42,0,0,0,180,162.91V17.09A12.44,12.44,0,0,0,167.58,4.66h0ZM114,12.23h35.44c0.91,0,1.64,1.34,1.64,3s-0.73,3-1.64,3H114c-0.92,0-1.62-1.34-1.62-3s0.7-3,1.62-3h0Zm17.73,150.84a7.93,7.93,0,1,1,7.89-7.92,8,8,0,0,1-7.89,7.92h0Zm39-27.18h-78V25.65h78V135.88Zm0,0"/><path d="M54.55,73.36c-14.66-.77-31,7.56-41.2,20.64L31,111.64c9.79-12.86,24.12-22.38,39.49-22.38,2,0,4,.11,5.95.29C75.15,80.22,70.17,74.18,54.55,73.36Z"/><path d="M11.27,96.85A45.57,45.57,0,0,0,3.6,116.76c-2.11,17.08.85,25.71,14.38,29.78,0-10.6,4.13-22.13,10.92-32.05Z"/><path d="M65.93,71.34c7.66,5.3,13.21,12.88,13.21,23.37,0,27-29.85,56.61-56.32,56.61-12.11,0-18.95-5.37-22.82-13.78,6.78,22.58,26.29,36.21,42.61,36.21,28.86,0,57.63-28.94,57.63-56.61C100.24,93.05,82.78,77.74,65.93,71.34Zm-1.09,78a3.63,3.63,0,1,1,3.63-3.63A3.63,3.63,0,0,1,64.84,149.3Zm7.58-7.58a3.63,3.63,0,1,1,3.63-3.63A3.63,3.63,0,0,1,72.43,141.71Zm5.9-8.43A3.63,3.63,0,1,1,82,129.66,3.63,3.63,0,0,1,78.32,133.28Z"/></svg>