<svg id="Layer_1" data-name="Layer 1" xmlns="http://www.w3.org/2000/svg" viewBox="0 0 180 180"><defs><style>.cls-1{fill-rule:evenodd;}</style></defs><title>sv icons</title><path class="cls-1" d="M119.31,116.82l-8.14,1.27a8.55,8.55,0,0,0-1.1-2.13,5.37,5.37,0,0,0-1.62-1.2v6.31q6.62,1.79,8.85,3.74a8.63,8.63,0,0,1,2.93,6.71,9.08,9.08,0,0,1-1.06,4.36,10.78,10.78,0,0,1-2.71,3.32,10.93,10.93,0,0,1-3.5,1.93,17.17,17.17,0,0,1-4.54.7v4.11h-3.17v-4.11a20.14,20.14,0,0,1-5.21-1,10.56,10.56,0,0,1-3.45-2.08,10.18,10.18,0,0,1-2.23-2.86,13.35,13.35,0,0,1-1.17-3.7l8.81-1a8.09,8.09,0,0,0,1.06,3.1,5.52,5.52,0,0,0,2.2,1.69v-7.72A40.61,40.61,0,0,1,99,126.08a8.37,8.37,0,0,1-4.54-7.69,8.64,8.64,0,0,1,2.73-6.49q2.73-2.61,8.1-2.89v-2.15h3.17V109q4.89,0.31,7.48,2.32a9.25,9.25,0,0,1,3.37,5.49h0ZM75.45,93.1A12.84,12.84,0,0,1,74,98L174.6,98.11l-0.07,55.49-135.71-.16,0-34a7.31,7.31,0,0,1-4.89-.71l0,37.14v2.45h2.45L177,158.49h2.45V156l0.07-60.38V93.22h-2.45L75.45,93.1h0ZM70.56,102c-2.58,2.12-5.72,3.52-8.55,5.31-3.79,2.4-6.1,5-7.28,9.47l-1.2,4.49-4.23-1.93a21.25,21.25,0,0,1-4.55-2.8l0,31.45a1.87,1.87,0,0,0,1.86,1.86l49.65,0.06a26.2,26.2,0,0,1-.3-47.87l-25.37,0h0Zm47,0.06a26.2,26.2,0,0,1-.41,47.87L166.8,150a1.87,1.87,0,0,0,1.86-1.86L168.72,104a1.87,1.87,0,0,0-1.86-1.86l-49.3-.06h0Zm4.51,8.53a21.68,21.68,0,1,0,6.33,15.34,21.62,21.62,0,0,0-6.33-15.34h0Zm-16.79,4.08a4.14,4.14,0,0,0-2,1.13,2.45,2.45,0,0,0-.55,1.59,2.6,2.6,0,0,0,.56,1.66,4.13,4.13,0,0,0,1.94,1.19v-5.58h0Zm3.15,21.5a5,5,0,0,0,2.71-1.37,3.11,3.11,0,0,0,.87-2.13,2.91,2.91,0,0,0-.73-1.9,6.67,6.67,0,0,0-2.84-1.6v7Z"/><path class="cls-1" d="M23.81,115.86c-47-31.4-7.56-61.68-12.89-48.2s19.16,14,10.28-5.76c-3.14-7-9.32-9.41,1.67-18,8.7-6.76,16-9.08,10.6-21.78-1.05-2.45,11.32,1.9,11.32,15.08,0,10.94-17,16.64-1.6,23,8.71,3.59,1.93-22,19.16-18.44,0.46,1.12-2.45.11-2.8,4.11-1.36,15.66,4,12.16,2.88,23.3-0.6,6.27-5.92,11.39-11.5,13.74-9.39,4,8.46,19,13.8-3.65,2.07-8.81,1.93-4.33,4.83,3.2,8.87,23-13.63,14.57-18.63,33.25-9.49-4.32-11.37-15.63-11.42-15.6-0.38.2-1.83,1.76-2.27,6.42-0.46,4.91,1.64,8.67.53,9.12-1.92.78-13-7.15-13.31-11.85C21.28,104.75,25.2,116.79,23.81,115.86Z"/></svg>